<?xml version="1.0" encoding="UTF-8" standalone="no"?>
<svg width="21px" height="22px" viewBox="0 0 21 22" version="1.1" xmlns="http://www.w3.org/2000/svg" xmlns:xlink="http://www.w3.org/1999/xlink">
    <!-- Generator: Sketch 41.2 (35397) - http://www.bohemiancoding.com/sketch -->
    <title>addressbook</title>
    <desc>Created with Sketch.</desc>
    <defs></defs>
    <g id="Page-1" stroke="none" stroke-width="1" fill="none" fill-rule="evenodd">
        <g id="680x680" transform="translate(-530.000000, -128.000000)" fill="#231F1F">
            <g id="Row-2" transform="translate(51.000000, 128.000000)">
                <path d="M483,11.000545 C483,11.5520436 482.599542,12 482.104341,12 L479.951635,12 C479.456435,12 479.055,11.5520436 479.055,11.000545 C479.055,10.4479564 479.456435,10 479.951635,10 L482.104341,10 C482.599542,10 483,10.4479564 483,11.000545 Z M483.055,17 C483.055,17.5522876 482.648959,18 482.146854,18 L479.964136,18 C479.462031,18 479.055,17.5522876 479.055,17 C479.055,16.4477124 479.462031,16 479.964136,16 L482.146854,16 C482.648959,16 483.055,16.4477124 483.055,17 Z M483.055,4.99945504 C483.055,5.5520436 482.648959,6 482.146854,6 L479.964136,6 C479.462031,6 479.055,5.5520436 479.055,4.99945504 C479.055,4.4479564 479.462031,4 479.964136,4 L482.146854,4 C482.648959,4 483.055,4.4479564 483.055,4.99945504 Z M497.538758,0 L481.570232,0 C480.733824,0 480.055,0.711730389 480.055,1.59105154 L480.055,2.51386143 C480.055,2.80767562 480.281275,3.04421195 480.560077,3.04421195 L481.770243,3.04421195 C482.617763,3.04421195 483.402653,3.65199364 483.539024,4.53131479 C483.71277,5.65035437 482.894545,6.61771371 481.861157,6.61771371 L480.560077,6.61771371 C480.281275,6.61771371 480.055,6.85531074 480.055,7.14806422 L480.055,8.62349935 C480.055,8.91625283 480.281275,9.15384986 480.560077,9.15384986 L481.770243,9.15384986 C482.617763,9.15384986 483.402653,9.76163155 483.539024,10.639892 C483.71277,11.7599923 482.894545,12.7273516 481.861157,12.7273516 L480.560077,12.7273516 C480.281275,12.7273516 480.055,12.963888 480.055,13.2577021 L480.055,14.734198 C480.055,15.0269514 480.281275,15.2645485 480.560077,15.2645485 L481.770243,15.2645485 C482.617763,15.2645485 483.402653,15.8723302 483.539024,16.7505906 C483.71277,17.8696302 482.894545,18.8369895 481.861157,18.8369895 L480.560077,18.8369895 C480.281275,18.8369895 480.055,19.0745866 480.055,19.3673401 L480.055,20.4089485 C480.055,21.2882696 480.733824,22 481.570232,22 L497.538758,22 C498.376176,22 499.055,21.2882696 499.055,20.4089485 L499.055,1.59105154 C499.055,0.711730389 498.376176,0 497.538758,0 Z M497.055,19.2206721 C497.055,19.5980283 496.765496,19.9047619 496.408341,19.9047619 L485.701659,19.9047619 C485.344504,19.9047619 485.055,19.5980283 485.055,19.2206721 L485.055,2.78038194 C485.055,2.40302579 485.344504,2.0952381 485.701659,2.0952381 L496.408341,2.0952381 C496.765496,2.0952381 497.055,2.40302579 497.055,2.78038194 L497.055,19.2206721 Z M494.136491,15.2226032 C494.088807,14.8918819 493.786465,14.6559404 493.449628,14.6559404 L491.59398,14.6559404 C489.863125,14.6559404 488.40113,13.3078477 488.353445,11.5887018 C488.303731,9.80502484 489.74442,8.34400287 491.528033,8.34400287 C493.264976,8.34400287 494.676242,9.73041088 494.703636,11.4495568 C494.705665,11.5947516 494.671169,11.7409546 494.590004,11.8619502 C494.217657,12.4155051 493.399914,12.0424353 493.399914,11.5171127 C493.390783,10.4039531 492.445204,9.49446944 491.307872,9.56605851 C490.273011,9.6315978 489.452224,10.515874 489.467443,11.5463533 C489.482661,12.612123 490.35722,13.4711918 491.433678,13.4711918 C491.757326,13.4711918 492.075901,13.4056525 492.343747,13.2665075 C492.611593,13.1273626 492.912921,13.1182879 493.182796,13.2533997 C493.471948,13.3985944 493.796611,13.4782499 494.136491,13.4711918 C495.252518,13.4439678 496.087508,12.4709614 496.054028,11.3628433 C495.979964,8.90965734 493.931548,6.95053677 491.432664,7.00095161 C488.990595,7.05035815 487.004068,9.06392674 487.000009,11.4919053 C486.994937,13.9813899 489.024076,16 491.528033,16 L493.474992,16 C493.877776,16 494.196351,15.6319717 494.136491,15.2226032 Z M491.5,12 C491.223941,12 491,11.776873 491,11.5008143 C491,11.2239414 491.223941,11 491.5,11 C491.776059,11 492,11.2239414 492,11.5008143 C492,11.776873 491.776059,12 491.5,12 Z" id="addressbook"></path>
            </g>
        </g>
    </g>
</svg>