<?xml version="1.0" encoding="UTF-8" standalone="no"?>
<svg width="20px" height="22px" viewBox="0 0 20 22" version="1.1" xmlns="http://www.w3.org/2000/svg" xmlns:xlink="http://www.w3.org/1999/xlink">
    <!-- Generator: Sketch 41.2 (35397) - http://www.bohemiancoding.com/sketch -->
    <title>alarmclock</title>
    <desc>Created with Sketch.</desc>
    <defs></defs>
    <g id="Page-1" stroke="none" stroke-width="1" fill="none" fill-rule="evenodd">
        <g id="680x680" transform="translate(-530.000000, -610.000000)" fill="#231F1F">
            <g id="Row-8" transform="translate(53.000000, 609.000000)">
                <path d="M478.013,6.428 C478.262,6.829 478.815,6.907 479.149,6.572 C479.714,6.006 480.353,5.429 480.999,4.968 C481.601,4.539 482.362,4.141 483.122,3.797 C483.561,3.599 483.672,3.041 483.372,2.664 C482.638,1.745 481.424,1.228 480.107,1.5 C478.835,1.763 477.814,2.821 477.578,4.098 C477.419,4.962 477.603,5.771 478.013,6.428 Z M495.887,6.428 C495.637,6.829 495.084,6.907 494.75,6.572 C494.185,6.006 493.547,5.429 492.901,4.968 C492.298,4.539 491.538,4.141 490.777,3.797 C490.338,3.599 490.227,3.041 490.527,2.664 C491.261,1.745 492.475,1.228 493.792,1.5 C495.064,1.763 496.086,2.821 496.321,4.098 C496.48,4.962 496.296,5.771 495.887,6.428 Z M493.692,19.254 C495.172,17.509 495.991,15.185 495.746,12.666 C495.349,8.569 492.042,5.211 487.95,4.762 C482.621,4.177 478.111,8.335 478.111,13.546 C478.111,15.718 478.898,17.704 480.199,19.242 C480.427,19.512 480.468,19.892 480.278,20.19 L479.259,21.78 C479.034,22.129 479.135,22.594 479.484,22.818 C479.833,23.042 480.298,22.942 480.522,22.593 L481.309,21.365 C481.539,21.005 482.015,20.881 482.38,21.102 C483.713,21.913 485.275,22.385 486.95,22.385 C488.621,22.385 490.179,21.916 491.511,21.109 C491.874,20.888 492.348,21.012 492.578,21.369 L493.368,22.593 C493.593,22.942 494.057,23.042 494.406,22.818 C494.755,22.594 494.856,22.129 494.632,21.78 L493.614,20.203 C493.422,19.906 493.463,19.525 493.692,19.254 Z M480.392,13.546 C480.392,9.924 483.328,6.988 486.95,6.988 C490.572,6.988 493.508,9.924 493.508,13.546 C493.508,17.168 490.572,20.103 486.95,20.103 C483.328,20.103 480.392,17.168 480.392,13.546 Z M486.197,13.84 C486.196,14.082 486.392,14.272 486.633,14.272 L491.505,14.272 C491.912,14.272 492.242,13.942 492.242,13.535 C492.242,13.128 491.912,12.798 491.505,12.798 L488.086,12.798 C487.866,12.798 487.687,12.619 487.687,12.399 L487.687,10.001 C487.687,9.594 487.357,9.264 486.95,9.264 C486.543,9.264 486.213,9.594 486.213,10.001 C486.213,10.84 486.2,12.758 486.197,13.84 Z" id="alarmclock"></path>
            </g>
        </g>
    </g>
</svg>