<?xml version="1.0" encoding="UTF-8" standalone="no"?>
<svg width="26px" height="23px" viewBox="0 0 26 23" version="1.1" xmlns="http://www.w3.org/2000/svg" xmlns:xlink="http://www.w3.org/1999/xlink">
    <!-- Generator: Sketch 41.2 (35397) - http://www.bohemiancoding.com/sketch -->
    <title>alert</title>
    <desc>Created with Sketch.</desc>
    <defs></defs>
    <g id="Page-1" stroke="none" stroke-width="1" fill="none" fill-rule="evenodd">
        <g id="680x680" transform="translate(-130.000000, -449.000000)" fill="#231F1F">
            <g id="Row-6" transform="translate(48.000000, 449.000000)">
                <path d="M107.751476,20.72375 L96.1944762,0.70575 C95.6504762,-0.23525 94.2924762,-0.23525 93.7484762,0.70575 L82.1914762,20.72375 C81.6474762,21.66475 82.3274762,22.84175 83.4144762,22.84175 L106.528476,22.84175 C107.615476,22.84175 108.295476,21.66475 107.751476,20.72375 L107.751476,20.72375 Z M94.9084762,7.25575 C95.7034762,7.21875 96.3694762,7.89275 96.2964762,8.67675 L95.6914762,15.15775 C95.6584762,15.51875 95.3544762,15.79475 94.9914762,15.79475 C94.6294762,15.79475 94.3124762,15.51875 94.2794762,15.15775 L93.6784762,8.71675 C93.6084762,7.97075 94.1604762,7.29075 94.9084762,7.25575 L94.9084762,7.25575 Z M94.9694762,19.26575 C94.2354762,19.26575 93.6404762,18.67175 93.6404762,17.93775 C93.6404762,17.20375 94.2354762,16.60875 94.9694762,16.60875 C95.7034762,16.60875 96.2984762,17.20375 96.2984762,17.93775 C96.2984762,18.67175 95.7034762,19.26575 94.9694762,19.26575 L94.9694762,19.26575 Z" id="alert"></path>
            </g>
        </g>
    </g>
</svg>