<?xml version="1.0" encoding="UTF-8" standalone="no"?>
<svg width="26px" height="23px" viewBox="0 0 26 23" version="1.1" xmlns="http://www.w3.org/2000/svg" xmlns:xlink="http://www.w3.org/1999/xlink">
    <!-- Generator: Sketch 41.2 (35397) - http://www.bohemiancoding.com/sketch -->
    <title>attach</title>
    <desc>Created with Sketch.</desc>
    <defs></defs>
    <g id="Page-1" stroke="none" stroke-width="1" fill="none" fill-rule="evenodd">
        <g id="680x680" transform="translate(-448.000000, -129.000000)" fill="#231F1F">
            <g id="Row-2" transform="translate(51.000000, 129.000000)">
                <path d="M404.425503,19.447128 L414.260503,9.612128 C414.684503,9.188128 414.684503,8.500128 414.260503,8.076128 L414.245503,8.061128 C413.821503,7.637128 413.133503,7.637128 412.709503,8.061128 L404.491503,16.278128 C404.062503,16.708128 403.349503,16.692128 402.919503,16.263128 C402.490503,15.833128 402.490503,15.136128 402.919503,14.706128 L411.138503,6.488128 C412.422503,5.204128 414.503503,5.204128 415.786503,6.488128 C417.070503,7.771128 417.117503,9.899128 415.833503,11.183128 L406.011503,21.004128 C403.967503,23.049128 400.577503,22.974128 398.533503,20.930128 C396.485503,18.882128 396.489503,15.561128 398.541503,13.518128 L410.696503,1.413128 C412.591503,-0.473871998 415.656503,-0.470871998 417.547503,1.421128 L420.872503,4.746128 C422.766503,6.640128 422.766503,9.711128 420.872503,11.604128 L410.345503,22.132128 C409.915503,22.562128 409.203503,22.546128 408.773503,22.116128 C408.343503,21.686128 408.343503,20.990128 408.773503,20.560128 L419.312503,10.021128 C420.339503,8.994128 420.339503,7.328128 419.312503,6.301128 L415.999503,2.988128 C414.972503,1.961128 413.307503,1.961128 412.279503,2.988128 L400.122503,15.145128 C398.946503,16.321128 398.946503,18.228128 400.122503,19.404128 C401.299503,20.580128 403.249503,20.623128 404.425503,19.447128" id="attach"></path>
            </g>
        </g>
    </g>
</svg>