<?xml version="1.0" encoding="UTF-8" standalone="no"?>
<svg width="22px" height="23px" viewBox="0 0 22 23" version="1.1" xmlns="http://www.w3.org/2000/svg" xmlns:xlink="http://www.w3.org/1999/xlink">
    <!-- Generator: Sketch 41.2 (35397) - http://www.bohemiancoding.com/sketch -->
    <title>barchartup</title>
    <desc>Created with Sketch.</desc>
    <defs></defs>
    <g id="Page-1" stroke="none" stroke-width="1" fill="none" fill-rule="evenodd">
        <g id="680x680" transform="translate(-49.000000, -367.000000)" fill="#000000">
            <g id="Row-5" transform="translate(49.000000, 367.000000)">
                <path d="M19.2108981,22.992 C18.5424823,22.992 18,22.3392559 18,21.534982 L18,2.44901797 C18,1.64474405 18.5424823,0.992 19.2108981,0.992 L20.7891019,0.992 C21.4583249,0.992 22,1.64474405 22,2.44901797 L22,21.534982 C22,22.3392559 21.4583249,22.992 20.7891019,22.992 L19.2108981,22.992 Z M13.2108981,22.992 C12.5424823,22.992 12,22.3392559 12,21.534982 L12,8.44901797 C12,7.64474405 12.5424823,6.992 13.2108981,6.992 L14.7891019,6.992 C15.4583249,6.992 16,7.64474405 16,8.44901797 L16,21.534982 C16,22.3392559 15.4583249,22.992 14.7891019,22.992 L13.2108981,22.992 Z M7.21089808,22.992 C6.54248234,22.992 6,22.3392559 6,21.534982 L6,14.449018 C6,13.6447441 6.54248234,12.992 7.21089808,12.992 L8.78910192,12.992 C9.45832492,12.992 10,13.6447441 10,14.449018 L10,21.534982 C10,22.3392559 9.45832492,22.992 8.78910192,22.992 L7.21089808,22.992 Z M1.21089808,22.992 C0.542482341,22.992 0,22.3392559 0,21.534982 L0,18.449018 C0,17.6447441 0.542482341,16.992 1.21089808,16.992 L2.78910192,16.992 C3.45832492,16.992 4,17.6447441 4,18.449018 L4,21.534982 C4,22.3392559 3.45832492,22.992 2.78910192,22.992 L1.21089808,22.992 Z" id="barchartup"></path>
            </g>
        </g>
    </g>
</svg>