<?xml version="1.0" encoding="UTF-8" standalone="no"?>
<svg width="19px" height="23px" viewBox="0 0 19 23" version="1.1" xmlns="http://www.w3.org/2000/svg" xmlns:xlink="http://www.w3.org/1999/xlink">
    <!-- Generator: Sketch 41.2 (35397) - http://www.bohemiancoding.com/sketch -->
    <title>barchart</title>
    <desc>Created with Sketch.</desc>
    <defs></defs>
    <g id="Page-1" stroke="none" stroke-width="1" fill="none" fill-rule="evenodd">
        <g id="680x680" transform="translate(-611.000000, -288.000000)" fill="#000000">
            <g id="Row-4" transform="translate(50.000000, 288.000000)">
                <path d="M562.225429,22 C561.54894,22 561,21.4722114 561,20.8200544 L561,17.1799456 C561,16.5277886 561.54894,16 562.225429,16 L564.774571,16 C565.451867,16 566,16.5277886 566,17.1799456 L566,20.8200544 C566,21.4722114 565.451867,22 564.774571,22 L562.225429,22 Z M569.225429,22 C568.54894,22 568,21.3404274 568,20.5254327 L568,1.47456729 C568,0.660543977 568.54894,0 569.225429,0 L571.774571,0 C572.45106,0 573,0.660543977 573,1.47456729 L573,20.5254327 C573,21.3404274 572.45106,22 571.774571,22 L569.225429,22 Z M576.225741,22.007 C575.548719,22.007 575,21.336184 575,20.5072964 L575,8.50670362 C575,7.67880399 575.548719,7.007 576.225741,7.007 L578.774259,7.007 C579.451281,7.007 580,7.67880399 580,8.50670362 L580,20.5072964 C580,21.336184 579.451281,22.007 578.774259,22.007 L576.225741,22.007 Z" id="barchart"></path>
            </g>
        </g>
    </g>
</svg>