<?xml version="1.0" encoding="UTF-8" standalone="no"?>
<svg width="20px" height="18px" viewBox="0 0 20 18" version="1.1" xmlns="http://www.w3.org/2000/svg" xmlns:xlink="http://www.w3.org/1999/xlink">
    <!-- Generator: Sketch 41.2 (35397) - http://www.bohemiancoding.com/sketch -->
    <title>bars</title>
    <desc>Created with Sketch.</desc>
    <defs></defs>
    <g id="Page-1" stroke="none" stroke-width="1" fill="none" fill-rule="evenodd">
        <g id="680x680" transform="translate(-450.000000, -611.000000)" fill="#000000">
            <g id="Row-8" transform="translate(50.000000, 609.000000)">
                <path d="M401.413761,6 C400.633365,6 400,5.25527192 400,4.33518313 L400,3.66481687 C400,2.74472808 400.633365,2 401.413761,2 L418.586239,2 C419.367578,2 420,2.74472808 420,3.66481687 L420,4.33518313 C420,5.25527192 419.367578,6 418.586239,6 L401.413761,6 Z M401.413761,13 C400.633365,13 400,12.2552719 400,11.3351831 L400,10.6648169 C400,9.74472808 400.633365,9 401.413761,9 L418.586239,9 C419.367578,9 420,9.74472808 420,10.6648169 L420,11.3351831 C420,12.2552719 419.367578,13 418.586239,13 L401.413761,13 Z M401.413761,20 C400.633365,20 400,19.2552719 400,18.3351831 L400,17.6648169 C400,16.7447281 400.633365,16 401.413761,16 L418.586239,16 C419.367578,16 420,16.7447281 420,17.6648169 L420,18.3351831 C420,19.2552719 419.367578,20 418.586239,20 L401.413761,20 Z" id="bars"></path>
            </g>
        </g>
    </g>
</svg>