<?xml version="1.0" encoding="UTF-8" standalone="no"?>
<svg width="17px" height="19px" viewBox="0 0 17 19" version="1.1" xmlns="http://www.w3.org/2000/svg" xmlns:xlink="http://www.w3.org/1999/xlink">
    <!-- Generator: Sketch 41.2 (35397) - http://www.bohemiancoding.com/sketch -->
    <title>bell</title>
    <desc>Created with Sketch.</desc>
    <defs></defs>
    <g id="Page-1" stroke="none" stroke-width="1" fill="none" fill-rule="evenodd">
        <g id="680x680" transform="translate(-292.000000, -52.000000)" fill="#231F1F">
            <g id="Row-1" transform="translate(53.000000, 49.000000)">
                <path d="M247.371,18.945 C250.191,18.945 252.872,18.585 254.127,18.365 C255.331,18.154 255.742,17.49 255.742,16.995 C255.742,16.266 255.451,15.996 255.005,15.556 C254.56,15.117 253.892,15.037 253.777,12.12 C253.408,5.162 250.151,4.678 249.396,4.367 C248.64,4.056 248.407,3.783 248.275,3.576 C248.143,3.369 248.048,3 247.371,3 C246.693,3 246.598,3.369 246.466,3.576 C246.335,3.783 246.101,4.056 245.346,4.367 C244.59,4.678 241.334,5.162 240.965,12.12 C240.849,15.037 240.181,15.117 239.736,15.556 C239.291,15.996 239,16.266 239,16.995 C239,17.49 239.41,18.154 240.615,18.365 C241.869,18.585 244.55,18.945 247.371,18.945 Z M247.371,21.539 C248.755,21.539 249.507,20.501 249.662,20.285 C249.816,20.069 249.736,19.764 249.417,19.764 C249.099,19.764 248.252,19.818 247.371,19.818 C246.49,19.818 245.642,19.764 245.324,19.764 C245.005,19.764 244.925,20.069 245.08,20.285 C245.234,20.501 245.986,21.539 247.371,21.539 Z" id="bell"></path>
            </g>
        </g>
    </g>
</svg>