<?xml version="1.0" encoding="UTF-8" standalone="no"?>
<svg width="20px" height="22px" viewBox="0 0 20 22" version="1.1" xmlns="http://www.w3.org/2000/svg" xmlns:xlink="http://www.w3.org/1999/xlink">
    <!-- Generator: Sketch 41.2 (35397) - http://www.bohemiancoding.com/sketch -->
    <title>book</title>
    <desc>Created with Sketch.</desc>
    <defs></defs>
    <g id="Page-1" stroke="none" stroke-width="1" fill="none" fill-rule="evenodd">
        <g id="680x680" transform="translate(-130.000000, -130.000000)" fill="#231F1F">
            <g id="Row-2" transform="translate(51.000000, 128.000000)">
                <path d="M88.4959904,6.01357705 L80.5266638,2.59302878 C79.7971345,2.27954094 79,2.84874071 79,3.68328173 L79,18.8066629 C79,19.2431921 79.2492306,19.6347844 79.6306444,19.7984828 L88.4959904,23.6042039 C88.7997087,23.7347346 89.1387431,23.7347346 89.4424615,23.6042039 L98.3088165,19.7984828 C98.6902302,19.6347844 98.9394609,19.2431921 98.9394609,18.8066629 L98.9394609,3.68328173 C98.9394609,2.84874071 98.1423264,2.27954094 97.412797,2.59302878 L89.4424615,6.01357705 C89.1387431,6.14410782 88.7997087,6.14410782 88.4959904,6.01357705 Z M87.3628486,21.3841108 L81.2531661,18.7681456 C80.8727615,18.6044472 80.6225218,18.211785 80.6225218,17.7752558 L80.6225218,5.51285243 C80.6225218,5.17154655 80.9484388,4.93830304 81.247112,5.06669396 L87.4819143,7.73722523 C87.7876507,7.86775601 87.9864298,8.18231377 87.9864298,8.5300392 L87.9864298,20.9390222 C87.9864298,21.2792582 87.6615218,21.5125017 87.3628486,21.3841108 Z M96.6852857,18.7681456 L90.5766123,21.3841108 C90.2779391,21.5125017 89.9520221,21.2792582 89.9520221,20.9390222 L89.9520221,8.5300392 C89.9520221,8.18231377 90.1518102,7.86775601 90.4575466,7.73722523 L96.6923489,5.06669396 C96.9910221,4.93830304 97.3169391,5.17154655 97.3169391,5.51285243 L97.3169391,17.7752558 C97.3169391,18.211785 97.0666994,18.6044472 96.6852857,18.7681456 Z M85.4635701,12.4053895 L82.3151184,10.9436682 C82.1247723,10.8558803 82,10.6411701 82,10.4031909 L82,9.89338648 C82,9.57185009 82.2795993,9.3518515 82.5373406,9.47136996 L85.6857923,10.9383797 C85.8761384,11.0272253 86,11.2408778 86,11.4777993 L86,11.983373 C86,12.3049094 85.7204007,12.524908 85.4635701,12.4053895 Z M85.4635701,17.4053895 L82.3151184,15.9436682 C82.1247723,15.8548226 82,15.6411701 82,15.4031909 L82,14.8933865 C82,14.5718501 82.2795993,14.3518515 82.5373406,14.47137 L85.6857923,15.9383797 C85.8761384,16.0272253 86,16.2408778 86,16.4777993 L86,16.983373 C86,17.3049094 85.7204007,17.524908 85.4635701,17.4053895 Z M91.6705373,12.4053949 L95.606102,10.9439105 C95.8440346,10.8550793 96,10.6414615 96,10.4035208 L96,9.89379904 C96,9.57125726 95.6493625,9.35129434 95.3283242,9.47185094 L91.3927596,10.9386229 C91.1559654,11.0263966 91,11.2410719 91,11.4790126 L91,11.9834468 C91,12.304931 91.3494991,12.524894 91.6705373,12.4053949 Z M91.6705373,17.4054011 L95.606102,15.9441914 C95.8440346,15.855377 96,15.6417993 96,15.4039034 L96,14.8942774 C96,14.5717963 95.6493625,14.3518747 95.3283242,14.4713513 L91.3927596,15.9389049 C91.1559654,16.026662 91,16.2402397 91,16.4781356 L91,16.9835323 C91,17.3049561 91.3494991,17.5248777 91.6705373,17.4054011 Z" id="book"></path>
            </g>
        </g>
    </g>
</svg>