<?xml version="1.0" encoding="UTF-8" standalone="no"?>
<svg width="21px" height="20px" viewBox="0 0 21 20" version="1.1" xmlns="http://www.w3.org/2000/svg" xmlns:xlink="http://www.w3.org/1999/xlink">
    <!-- Generator: Sketch 41.2 (35397) - http://www.bohemiancoding.com/sketch -->
    <title>calendar</title>
    <desc>Created with Sketch.</desc>
    <defs></defs>
    <g id="Page-1" stroke="none" stroke-width="1" fill="none" fill-rule="evenodd">
        <g id="680x680" transform="translate(-610.000000, -130.000000)" fill="#231F1F">
            <g id="Row-2" transform="translate(51.000000, 128.000000)">
                <path d="M574.324762,6.7030788 C573.750476,6.7030788 573.285714,6.2251316 573.285714,5.6355328 L573.285714,3.0685254 C573.285714,2.4779472 573.750476,2 574.324762,2 C574.899048,2 575.36381,2.4779472 575.36381,3.0685254 L575.36381,5.6355328 C575.36381,6.2251316 574.899048,6.7030788 574.324762,6.7030788 Z M564.207619,6.7030788 C563.634286,6.7030788 563.168571,6.2251316 563.168571,5.6355328 L563.168571,3.0685254 C563.168571,2.4779472 563.634286,2 564.207619,2 C564.781905,2 565.246667,2.4779472 565.246667,3.0685254 L565.246667,5.6355328 C565.246667,6.2251316 564.781905,6.7030788 564.207619,6.7030788 Z M576.262857,4.1243186 L576.262857,5.506252 C576.262857,6.4983842 575.602857,7.4190202 574.650476,7.5786624 C573.43619,7.7813982 572.386667,6.8225656 572.386667,5.6130066 L572.386667,4.1243186 C572.386667,3.8001372 572.130476,3.5366786 571.815238,3.5366786 L566.717143,3.5366786 C566.401905,3.5366786 566.145714,3.8001372 566.145714,4.1243186 L566.145714,5.506252 C566.145714,6.4993636 565.485714,7.4190202 564.532381,7.5786624 C563.319048,7.7813982 562.269524,6.8225656 562.269524,5.6130066 L562.269524,4.1243186 C562.269524,3.8001372 562.013333,3.5366786 561.698095,3.5366786 L560.718095,3.5366786 C559.957143,3.5366786 559.340952,4.1713298 559.340952,4.9538704 L559.340952,20.5410214 C559.340952,21.323562 559.957143,21.9582132 560.718095,21.9582132 L577.715238,21.9582132 C578.47619,21.9582132 579.093333,21.323562 579.093333,20.5410214 L579.093333,4.9538704 C579.093333,4.1713298 578.47619,3.5366786 577.715238,3.5366786 L576.834286,3.5366786 C576.519048,3.5366786 576.262857,3.8001372 576.262857,4.1243186 Z M576.673333,20.0826622 L561.732381,20.0826622 C561.415238,20.0826622 561.157143,19.8182242 561.157143,19.4911046 L561.157143,9.1261144 C561.157143,8.7989948 561.415238,8.5335774 561.732381,8.5335774 L576.673333,8.5335774 C576.991429,8.5335774 577.248571,8.7989948 577.248571,9.1261144 L577.248571,19.4911046 C577.248571,19.8182242 576.991429,20.0826622 576.673333,20.0826622 Z M568.038095,13.860534 L566.82,13.860534 C566.373333,13.860534 566.011429,13.488362 566.011429,13.028044 L566.011429,11.7763708 C566.011429,11.3160528 566.373333,10.9438808 566.82,10.9438808 L568.038095,10.9438808 C568.484762,10.9438808 568.847619,11.3160528 568.847619,11.7763708 L568.847619,13.028044 C568.847619,13.488362 568.484762,13.860534 568.038095,13.860534 Z M571.581905,13.860534 L570.36381,13.860534 C569.917143,13.860534 569.554286,13.488362 569.554286,13.028044 L569.554286,11.7763708 C569.554286,11.3160528 569.917143,10.9438808 570.36381,10.9438808 L571.581905,10.9438808 C572.028571,10.9438808 572.391429,11.3160528 572.391429,11.7763708 L572.391429,13.028044 C572.391429,13.488362 572.028571,13.860534 571.581905,13.860534 Z M575.12381,13.860534 L573.905714,13.860534 C573.459048,13.860534 573.09619,13.488362 573.09619,13.028044 L573.09619,11.7763708 C573.09619,11.3160528 573.459048,10.9438808 573.905714,10.9438808 L575.12381,10.9438808 C575.570476,10.9438808 575.932381,11.3160528 575.932381,11.7763708 L575.932381,13.028044 C575.932381,13.488362 575.570476,13.860534 575.12381,13.860534 Z M568.038095,17.5029226 L566.82,17.5029226 C566.373333,17.5029226 566.011429,17.1297712 566.011429,16.6704326 L566.011429,15.41778 C566.011429,14.9584414 566.373333,14.58529 566.82,14.58529 L568.038095,14.58529 C568.484762,14.58529 568.847619,14.9584414 568.847619,15.41778 L568.847619,16.6704326 C568.847619,17.1297712 568.484762,17.5029226 568.038095,17.5029226 Z M564.49619,17.5029226 L563.279048,17.5029226 C562.831429,17.5029226 562.469524,17.1297712 562.469524,16.6704326 L562.469524,15.41778 C562.469524,14.9584414 562.831429,14.58529 563.279048,14.58529 L564.49619,14.58529 C564.94381,14.58529 565.305714,14.9584414 565.305714,15.41778 L565.305714,16.6704326 C565.305714,17.1297712 564.94381,17.5029226 564.49619,17.5029226 Z M571.581905,17.5029226 L570.36381,17.5029226 C569.917143,17.5029226 569.554286,17.1297712 569.554286,16.6704326 L569.554286,15.41778 C569.554286,14.9584414 569.917143,14.58529 570.36381,14.58529 L571.581905,14.58529 C572.028571,14.58529 572.391429,14.9584414 572.391429,15.41778 L572.391429,16.6704326 C572.391429,17.1297712 572.028571,17.5029226 571.581905,17.5029226 Z M575.12381,17.5029226 L573.905714,17.5029226 C573.459048,17.5029226 573.09619,17.1297712 573.09619,16.6704326 L573.09619,15.41778 C573.09619,14.9584414 573.459048,14.58529 573.905714,14.58529 L575.12381,14.58529 C575.570476,14.58529 575.932381,14.9584414 575.932381,15.41778 L575.932381,16.6704326 C575.932381,17.1297712 575.570476,17.5029226 575.12381,17.5029226 Z" id="calendar"></path>
            </g>
        </g>
    </g>
</svg>