<?xml version="1.0" encoding="UTF-8" standalone="no"?>
<svg width="21px" height="21px" viewBox="0 0 21 21" version="1.1" xmlns="http://www.w3.org/2000/svg" xmlns:xlink="http://www.w3.org/1999/xlink">
    <!-- Generator: Sketch 41.2 (35397) - http://www.bohemiancoding.com/sketch -->
    <title>calendarday</title>
    <desc>Created with Sketch.</desc>
    <defs></defs>
    <g id="Page-1" stroke="none" stroke-width="1" fill="none" fill-rule="evenodd">
        <g id="680x680" transform="translate(-49.000000, -209.000000)" fill="#231F1F">
            <g id="Row-3" transform="translate(49.000000, 208.000000)">
                <path d="M16.0004581,6 C15.4480073,6 15,5.49187838 15,4.86401499 L15,2.13598501 C15,1.50812162 15.4480073,1 16.0004581,1 C16.5519927,1 17,1.50812162 17,2.13598501 L17,4.86401499 C17,5.49187838 16.5519927,6 16.0004581,6 Z M5.00091659,6 C4.44821265,6 4,5.49187838 4,4.86401499 L4,2.13598501 C4,1.50812162 4.44821265,1 5.00091659,1 C5.55270394,1 6,1.50812162 6,2.13598501 L6,4.86401499 C6,5.49187838 5.55270394,6 5.00091659,6 Z M17.9908876,5.02666463 C17.9908876,6.04755537 17.2892339,6.99487747 16.2757341,7.15914716 C14.9848127,7.36775958 13.8700641,6.38113368 13.8700641,5.13651368 L13.8700641,3.60467368 C13.8700641,3.27109537 13.5966925,3 13.2615592,3 L7.84171448,3 C7.50658117,3 7.23523456,3.27109537 7.23523456,3.60467368 L7.23523456,5.02666463 C7.23523456,6.04755537 6.53358083,6.99487747 5.520081,7.15914716 C4.22915964,7.36775958 3.11339858,6.38113368 3.11339858,5.13651368 L3.11339858,3.60467368 C3.11339858,3.27109537 2.84205197,3 2.50590618,3 L1.46506919,3 C0.656091799,3 0,3.65203979 0,4.45726358 L0,20.4972408 C0,21.3024646 0.656091799,21.9555122 1.46506919,21.9555122 L19.5349308,21.9555122 C20.3439082,21.9555122 21,21.3024646 21,20.4972408 L21,4.45726358 C21,3.65203979 20.3439082,3 19.5349308,3 L18.5973675,3 C18.2622342,3 17.9908876,3.27109537 17.9908876,3.60467368 L17.9908876,5.02666463 Z M18.4272697,20.0255954 L2.54336821,20.0255954 C2.20620992,20.0255954 1.93182585,19.749227 1.93182585,19.4096303 L1.93182585,8.61596503 C1.93182585,8.27636841 2.20620992,8 2.54336821,8 L18.4272697,8 C18.7644279,8 19.038812,8.27636841 19.038812,8.61596503 L19.038812,19.4096303 C19.038812,19.749227 18.7644279,20.0255954 18.4272697,20.0255954 Z M6.42556436,12.1864773 L6.42556436,17.1149437 C6.42556436,17.5825778 6.74214241,17.9905808 7.16017574,18.0209194 C7.6195427,18.0533504 8,17.6495321 8,17.1452823 L8,12.9648214 L7.9943636,12.9648214 L7.9943636,10.5481886 C7.9943636,10.2458479 7.77360442,10 7.50211761,10 L6.95162877,10 L5.50870924,10.4718188 C5.15079755,10.5889889 4.91970497,10.9990841 5.01364504,11.4008101 C5.11134272,11.8171823 5.49743643,12.0588456 5.86568152,11.9385371 L6.05825867,11.8914598 C6.24144181,11.8307824 6.42556436,12.0065376 6.42556436,12.1864773 Z M13.5005124,10 C11.6324111,10 10,11.5738365 10,14.0100629 C10,16.4472956 11.5524813,18 13.490265,18 L13.5107598,18 C15.4475187,18 17,16.4472956 17,14.0100629 C17,11.5738365 15.3675889,10 13.5005124,10 Z M13.4882155,16.4664151 C12.547504,16.4664151 11.7809984,15.554717 11.7809984,13.9828931 C11.7809984,12.4110692 12.5895184,11.5456604 13.5005124,11.5456604 C14.4104816,11.5456604 15.2190016,12.4110692 15.2190016,13.9828931 C15.2190016,15.554717 14.428927,16.4664151 13.4882155,16.4664151 L13.4882155,16.4664151 Z" id="calendarday"></path>
            </g>
        </g>
    </g>
</svg>