<?xml version="1.0" encoding="UTF-8" standalone="no"?>
<svg width="21px" height="21px" viewBox="0 0 21 21" version="1.1" xmlns="http://www.w3.org/2000/svg" xmlns:xlink="http://www.w3.org/1999/xlink">
    <!-- Generator: Sketch 41.2 (35397) - http://www.bohemiancoding.com/sketch -->
    <title>calendarplus</title>
    <desc>Created with Sketch.</desc>
    <defs></defs>
    <g id="Page-1" stroke="none" stroke-width="1" fill="none" fill-rule="evenodd">
        <g id="Artboard-3" transform="translate(-80.000000, -20.000000)" fill="#000000">
            <path d="M85.25,24.59375 C84.706625,24.59375 84.265625,24.1530781 84.265625,23.609375 L84.265625,20.984375 C84.265625,20.4406719 84.706625,20 85.25,20 C85.7937031,20 86.234375,20.4406719 86.234375,20.984375 L86.234375,23.609375 C86.234375,24.1530781 85.7937031,24.59375 85.25,24.59375 L85.25,24.59375 Z M95.75,24.59375 C95.206625,24.59375 94.765625,24.1530781 94.765625,23.609375 L94.765625,20.984375 C94.765625,20.4406719 95.206625,20 95.75,20 C96.2937031,20 96.734375,20.4406719 96.734375,20.984375 L96.734375,23.609375 C96.734375,24.1530781 96.2937031,24.59375 95.75,24.59375 L95.75,24.59375 Z M88.2444688,30.1715469 C88.2447969,30.1715469 88.2454531,30.171875 88.2457813,30.171875 L88.2434844,30.171875 C88.2438125,30.171875 88.2441406,30.1715469 88.2444688,30.1715469 L88.2444688,30.1715469 Z M88.203125,32.46875 L89.515625,32.46875 L89.515625,31.15625 C89.515625,30.6125469 89.9562969,30.171875 90.5,30.171875 C91.0437031,30.171875 91.484375,30.6125469 91.484375,31.15625 L91.484375,32.46875 L92.796875,32.46875 C93.3405781,32.46875 93.78125,32.9094219 93.78125,33.453125 C93.78125,33.9968281 93.3405781,34.4375 92.796875,34.4375 L91.484375,34.4375 L91.484375,35.75 C91.484375,36.2937031 91.0437031,36.734375 90.5,36.734375 C89.9562969,36.734375 89.515625,36.2937031 89.515625,35.75 L89.515625,34.4375 L88.203125,34.4375 C87.65975,34.4375 87.21875,33.9968281 87.21875,33.453125 C87.21875,32.9094219 87.65975,32.46875 88.203125,32.46875 L88.203125,32.46875 Z M81.96875,39.03125 L99.03125,39.03125 L99.03125,27.875 L81.96875,27.875 L81.96875,39.03125 Z M100.015953,41 L80.984375,41 C80.441,41 80,40.5593281 80,40.015625 L80,23.609375 C80,23.0656719 80.441,22.625 80.984375,22.625 L82.953125,22.625 L82.953125,23.609375 C82.953125,24.8779062 83.9814688,25.90625 85.25,25.90625 C86.5185312,25.90625 87.546875,24.8779062 87.546875,23.609375 L87.546875,22.625 L93.453125,22.625 L93.453125,23.609375 C93.453125,24.8779062 94.4814688,25.90625 95.75,25.90625 C97.0185312,25.90625 98.046875,24.8779062 98.046875,23.609375 L98.046875,22.625 L100.015953,22.625 C100.559328,22.625 101,23.0656719 101,23.609375 L101,40.015625 C101,40.5593281 100.559328,41 100.015953,41 L100.015953,41 Z" id="calendarplus"></path>
        </g>
    </g>
</svg>