<?xml version="1.0" encoding="UTF-8" standalone="no"?>
<svg width="21px" height="21px" viewBox="0 0 21 21" version="1.1" xmlns="http://www.w3.org/2000/svg" xmlns:xlink="http://www.w3.org/1999/xlink">
    <!-- Generator: Sketch 42 (36781) - http://www.bohemiancoding.com/sketch -->
    <title>calendarday1</title>
    <desc>Created with Sketch.</desc>
    <defs></defs>
    <g id="Page-1" stroke="none" stroke-width="1" fill="none" fill-rule="evenodd">
        <g id="Artboard-3" transform="translate(-289.000000, -129.000000)" fill="#231F1F">
            <path d="M305.000458,134 C304.448007,134 304,133.491878 304,132.864015 L304,130.135985 C304,129.508122 304.448007,129 305.000458,129 C305.551993,129 306,129.508122 306,130.135985 L306,132.864015 C306,133.491878 305.551993,134 305.000458,134 Z M294.000917,134 C293.448213,134 293,133.491878 293,132.864015 L293,130.135985 C293,129.508122 293.448213,129 294.000917,129 C294.552704,129 295,129.508122 295,130.135985 L295,132.864015 C295,133.491878 294.552704,134 294.000917,134 Z M306.990888,133.026665 L306.990888,131.604674 C306.990888,131.271095 307.262234,131 307.597368,131 L308.534931,131 C309.343908,131 310,131.65204 310,132.457264 L310,148.497241 C310,149.302465 309.343908,149.955512 308.534931,149.955512 L290.465069,149.955512 C289.656092,149.955512 289,149.302465 289,148.497241 L289,132.457264 C289,131.65204 289.656092,131 290.465069,131 L291.505906,131 C291.842052,131 292.113399,131.271095 292.113399,131.604674 L292.113399,133.136514 C292.113399,134.381134 293.22916,135.36776 294.520081,135.159147 C295.533581,134.994877 296.235235,134.047555 296.235235,133.026665 L296.235235,131.604674 C296.235235,131.271095 296.506581,131 296.841714,131 L302.261559,131 C302.596693,131 302.870064,131.271095 302.870064,131.604674 L302.870064,133.136514 C302.870064,134.381134 303.984813,135.36776 305.275734,135.159147 C306.289234,134.994877 306.990888,134.047555 306.990888,133.026665 Z M307.42727,148.025595 L291.543368,148.025595 C291.20621,148.025595 290.931826,147.749227 290.931826,147.40963 L290.931826,136.615965 C290.931826,136.276368 291.20621,136 291.543368,136 L307.42727,136 C307.764428,136 308.038812,136.276368 308.038812,136.615965 L308.038812,147.40963 C308.038812,147.749227 307.764428,148.025595 307.42727,148.025595 Z M298.932924,140.186477 L298.932924,145.114944 C298.932924,145.582578 299.249502,145.990581 299.667535,146.020919 C300.126902,146.05335 300.507359,145.649532 300.507359,145.145282 L300.507359,140.964821 L300.501723,140.964821 L300.501723,138.548189 C300.501723,138.245848 300.280964,138 300.009477,138 L299.458988,138 L298.016069,138.471819 C297.658157,138.588989 297.427064,138.999084 297.521004,139.40081 C297.618702,139.817182 298.004796,140.058846 298.373041,139.938537 L298.565618,139.89146 C298.748801,139.830782 298.932924,140.006538 298.932924,140.186477 Z" id="calendarday1"></path>
        </g>
    </g>
</svg>