<?xml version="1.0" encoding="UTF-8" standalone="no"?>
<svg width="23px" height="17px" viewBox="0 0 23 17" version="1.1" xmlns="http://www.w3.org/2000/svg" xmlns:xlink="http://www.w3.org/1999/xlink">
    <!-- Generator: Sketch 41.2 (35397) - http://www.bohemiancoding.com/sketch -->
    <title>camera</title>
    <desc>Created with Sketch.</desc>
    <defs></defs>
    <g id="Page-1" stroke="none" stroke-width="1" fill="none" fill-rule="evenodd">
        <g id="680x680" transform="translate(-528.000000, -211.000000)" fill="#231F1F">
            <g id="Row-3" transform="translate(49.000000, 208.000000)">
                <path d="M499.670453,4.80400421 L488.513094,4.80400421 C488.062114,4.80400421 487.718954,4.59009484 487.50435,4.01369863 C487.31048,3.4910432 487.103133,3 486.406446,3 L483.960784,3 C483.408204,3 483.05675,3.44889357 482.879468,4.01369863 C482.71359,4.53951528 482.335181,4.80400421 481.884201,4.80400421 L481.329547,4.80400421 C480.042957,4.80400421 479,5.86406744 479,7.17175975 L479,17.6322445 C479,18.9399368 480.042957,20 481.329547,20 L499.670453,20 C500.957043,20 502,18.9399368 502,17.6322445 L502,7.17175975 C502,5.86406744 500.957043,4.80400421 499.670453,4.80400421 L499.670453,4.80400421 Z M492.5,18 C489.461628,18 487,15.5383721 487,12.5 C487,9.4627907 489.461628,7 492.5,7 C495.537209,7 498,9.4627907 498,12.5 C498,15.5383721 495.537209,18 492.5,18 L492.5,18 Z M499,9 C498.44783,9 498,8.55237656 498,8.00046147 C498,7.44762344 498.44783,7 499,7 C499.553093,7 500,7.44762344 500,8.00046147 C500,8.55237656 499.553093,9 499,9 L499,9 Z M496,12.499415 C496,14.4322246 494.432487,16 492.5,16 C490.567513,16 489,14.4322246 489,12.499415 C489,10.5666054 490.567513,9 492.5,9 C494.432487,9 496,10.5666054 496,12.499415" id="camera"></path>
            </g>
        </g>
    </g>
</svg>