<?xml version="1.0" encoding="UTF-8" standalone="no"?>
<svg width="19px" height="20px" viewBox="0 0 19 20" version="1.1" xmlns="http://www.w3.org/2000/svg" xmlns:xlink="http://www.w3.org/1999/xlink">
    <!-- Generator: Sketch 41.2 (35397) - http://www.bohemiancoding.com/sketch -->
    <title>chatrectlines</title>
    <desc>Created with Sketch.</desc>
    <defs></defs>
    <g id="Page-1" stroke="none" stroke-width="1" fill="none" fill-rule="evenodd">
        <g id="680x680" transform="translate(-612.000000, -531.000000)" fill="#231F1F">
            <g id="Row-7" transform="translate(53.000000, 531.000000)">
                <path d="M573.835,0 L562.367,0 C560.507,0 559,1.507 559,3.366 L559,12.819 C559,14.678 560.507,16.185 562.367,16.185 C563.167,16.185 563.495,16.614 563.485,17.137 L563.45,18.893 C563.442,19.316 563.949,19.539 564.255,19.246 L567.131,16.492 C567.337,16.295 567.61,16.185 567.894,16.185 L573.835,16.185 C575.694,16.185 577.201,14.678 577.201,12.819 L577.201,3.366 C577.201,1.507 575.694,0 573.835,0 L573.835,0 Z M569.959,10.849 L565.112,10.849 C564.627,10.849 564.234,10.456 564.234,9.971 C564.234,9.486 564.627,9.092 565.112,9.092 L569.959,9.092 C570.444,9.092 570.837,9.486 570.837,9.971 C570.837,10.456 570.444,10.849 569.959,10.849 L569.959,10.849 Z M571.881,7.321 L565.112,7.321 C564.627,7.321 564.234,6.928 564.234,6.443 C564.234,5.958 564.627,5.565 565.112,5.565 L571.881,5.565 C572.366,5.565 572.759,5.958 572.759,6.443 C572.759,6.928 572.366,7.321 571.881,7.321 L571.881,7.321 Z" id="chatrectlines"></path>
            </g>
        </g>
    </g>
</svg>