<?xml version="1.0" encoding="UTF-8" standalone="no"?>
<svg width="18px" height="18px" viewBox="0 0 18 18" version="1.1" xmlns="http://www.w3.org/2000/svg" xmlns:xlink="http://www.w3.org/1999/xlink">
    <!-- Generator: Sketch 41.2 (35397) - http://www.bohemiancoding.com/sketch -->
    <title>chat</title>
    <desc>Created with Sketch.</desc>
    <defs></defs>
    <g id="Page-1" stroke="none" stroke-width="1" fill="none" fill-rule="evenodd">
        <g id="680x680" transform="translate(-212.000000, -532.000000)" fill="#231F1F">
            <g id="Row-7" transform="translate(53.000000, 531.000000)">
                <path d="M166.159438,1.1171039 C162.602438,1.6941039 159.732438,4.5531039 159.127438,8.1051039 C158.744438,10.3561039 159.247438,12.4701039 160.331438,14.1811039 C160.553438,14.5321039 160.643438,14.9501039 160.543438,15.3531039 L159.823438,18.2531039 C159.726438,18.6401039 160.126438,18.9641039 160.485438,18.7901039 L163.049438,17.5461039 C163.443438,17.3561039 163.895438,17.3681039 164.298438,17.5371039 C165.769438,18.1521039 167.445438,18.3761039 169.202438,18.0531039 C172.726438,17.4041039 175.539438,14.5261039 176.091438,10.9851039 C177.004438,5.1361039 172.014438,0.167103898 166.159438,1.1171039" id="chat"></path>
            </g>
        </g>
    </g>
</svg>