<?xml version="1.0" encoding="UTF-8" standalone="no"?>
<svg width="19px" height="23px" viewBox="0 0 19 23" version="1.1" xmlns="http://www.w3.org/2000/svg" xmlns:xlink="http://www.w3.org/1999/xlink">
    <!-- Generator: Sketch 41.2 (35397) - http://www.bohemiancoding.com/sketch -->
    <title>checkclipboard</title>
    <desc>Created with Sketch.</desc>
    <defs></defs>
    <g id="Page-1" stroke="none" stroke-width="1" fill="none" fill-rule="evenodd">
        <g id="680x680" transform="translate(-290.000000, -129.000000)" fill="#231F1F">
            <g id="Row-2" transform="translate(51.000000, 128.000000)">
                <path d="M252.06,5.94664456 C251.341,5.76541606 250.841,5.17839331 250.841,4.44756969 L250.841,3.83789337 C250.841,2.59194744 249.816,1.5823865 248.551,1.5823865 L248.505,1.5823865 C247.241,1.5823865 246.216,2.59194744 246.216,3.83789337 L246.216,4.45347931 C246.216,5.17937825 245.72,5.76541606 245.006,5.94959938 C244.077,6.18696931 243.392,7.06947331 243.392,8.0593355 L243.392,8.08691375 C243.392,8.45528038 243.695,8.75371644 244.069,8.75371644 L253.006,8.75371644 C253.38,8.75371644 253.683,8.45528038 253.683,8.08691375 L253.683,8.0593355 C253.683,7.0665185 252.993,6.18204463 252.06,5.94664456 L252.06,5.94664456 Z M248.538,4.55197306 C248.155,4.55197306 247.845,4.24664244 247.845,3.86941138 C247.845,3.49119538 248.155,3.18586475 248.538,3.18586475 C248.921,3.18586475 249.231,3.49119538 249.231,3.86941138 C249.231,4.24664244 248.921,4.55197306 248.538,4.55197306 Z M252.82,13.3208716 C253.249,12.8983334 253.249,12.2128169 252.82,11.7902787 C252.391,11.3677406 251.694,11.3677406 251.265,11.7902787 L247.645,15.3557525 L246.322,14.0526802 C245.893,13.6291571 245.196,13.6291571 244.767,14.0526802 C244.337,14.4752184 244.337,15.1607349 244.767,15.584258 L247.079,17.8614335 C247.392,18.168734 247.898,18.168734 248.21,17.8614335 L252.82,13.3208716 Z M252.579977,3 L252.579977,4.02689731 C252.579977,4.52288172 253.003039,4.92505821 253.52478,4.92505821 L255.338803,4.92505821 C255.687331,4.92505821 255.969722,5.19350853 255.969722,5.52582807 L255.969722,21.4761678 C255.969722,21.8084874 255.687331,22.0769377 255.338803,22.0769377 L241.663296,22.0769377 C241.314769,22.0769377 241.032377,21.8084874 241.032377,21.4761678 L241.032377,5.52582807 C241.032377,5.19350853 241.314769,4.92505821 241.663296,4.92505821 L243.477319,4.92505821 C243.999061,4.92505821 244.422123,4.52288172 244.422123,4.02689731 L244.422123,3 L240.451848,3 C239.649815,3 239,3.61773511 239,4.38017393 L239,22.6198261 C239,23.3822649 239.649815,24 240.451848,24 L256.549202,24 C257.350185,24 258,23.3822649 258,22.6198261 L258,4.38017393 C258,3.61773511 257.350185,3 256.549202,3 L252.579977,3 Z" id="checkclipboard"></path>
            </g>
        </g>
    </g>
</svg>