<?xml version="1.0" encoding="UTF-8" standalone="no"?>
<svg width="19px" height="22px" viewBox="0 0 19 22" version="1.1" xmlns="http://www.w3.org/2000/svg" xmlns:xlink="http://www.w3.org/1999/xlink">
    <!-- Generator: Sketch 41.2 (35397) - http://www.bohemiancoding.com/sketch -->
    <title>clipboard</title>
    <desc>Created with Sketch.</desc>
    <defs></defs>
    <g id="Page-1" stroke="none" stroke-width="1" fill="none" fill-rule="evenodd">
        <g id="680x680" transform="translate(-211.000000, -130.000000)" fill="#231F1F">
            <g id="Row-2" transform="translate(51.000000, 128.000000)">
                <path d="M173.578927,3 L173.578927,4.02689731 C173.578927,4.52288172 174.001989,4.92505821 174.523731,4.92505821 L176.337753,4.92505821 C176.686281,4.92505821 176.968672,5.19350853 176.968672,5.52582807 L176.968672,21.4761678 C176.968672,21.8084874 176.686281,22.0769377 176.337753,22.0769377 L162.663296,22.0769377 C162.314769,22.0769377 162.031328,21.8084874 162.031328,21.4761678 L162.031328,5.52582807 C162.031328,5.19350853 162.314769,4.92505821 162.663296,4.92505821 L164.476269,4.92505821 C164.999061,4.92505821 165.421073,4.52288172 165.421073,4.02689731 L165.421073,3 L161.450798,3 C160.649815,3 160,3.61773511 160,4.38017393 L160,22.6198261 C160,23.3822649 160.649815,24 161.450798,24 L177.548152,24 C178.349135,24 179,23.3822649 179,22.6198261 L179,4.38017393 C179,3.61773511 178.349135,3 177.548152,3 L173.578927,3 Z M172.883894,6.25999176 C172.185225,6.08309298 171.699364,5.51009477 171.699364,4.79673122 L171.699364,4.20162066 C171.699364,2.98544156 170.703348,2 169.474118,2 L169.429419,2 C168.201161,2 167.205145,2.98544156 167.205145,4.20162066 L167.205145,4.80249966 C167.205145,5.51105617 166.723171,6.08309298 166.029361,6.26287598 C165.12663,6.49457492 164.461,7.35599506 164.461,8.32220849 L164.461,8.34912787 C164.461,8.70869386 164.755432,9 165.119828,9 L173.803144,9 C174.166568,9 174.461,8.70869386 174.461,8.34912787 L174.461,8.32220849 C174.461,7.35311084 173.790511,6.48976789 172.883894,6.25999176 Z M169.5,6 C168.948127,6 168.5,5.55299207 168.5,5.00072098 C168.5,4.44700793 168.948127,4 169.5,4 C170.051873,4 170.5,4.44700793 170.5,5.00072098 C170.5,5.55299207 170.051873,6 169.5,6 Z" id="clipboard"></path>
            </g>
        </g>
    </g>
</svg>