<?xml version="1.0" encoding="UTF-8" standalone="no"?>
<svg width="20px" height="20px" viewBox="0 0 20 20" version="1.1" xmlns="http://www.w3.org/2000/svg" xmlns:xlink="http://www.w3.org/1999/xlink">
    <!-- Generator: Sketch 41.2 (35397) - http://www.bohemiancoding.com/sketch -->
    <title>clock</title>
    <desc>Created with Sketch.</desc>
    <defs></defs>
    <g id="Page-1" stroke="none" stroke-width="1" fill="none" fill-rule="evenodd">
        <g id="680x680" transform="translate(-371.000000, -612.000000)" fill="#231F1F">
            <g id="Row-8" transform="translate(53.000000, 609.000000)">
                <path d="M337.496,12.951 C337.496,18.315 333.148,22.662 327.785,22.662 C322.424,22.662 318.076,18.315 318.076,12.951 C318.076,7.588 322.424,3.24 327.785,3.24 C333.148,3.24 337.496,7.588 337.496,12.951 Z M334.978,12.951 C334.978,8.978 331.758,5.76 327.785,5.76 C323.815,5.76 320.594,8.978 320.594,12.951 C320.594,16.924 323.815,20.144 327.785,20.144 C331.758,20.144 334.978,16.924 334.978,12.951 Z M326.963,13.324 L326.963,9.039 C326.978,8.598 327.338,8.246 327.783,8.246 C328.236,8.246 328.603,8.613 328.603,9.066 L328.603,11.709 C328.615,11.932 328.789,12.106 329.008,12.127 L332.84,12.131 C333.266,12.16 333.602,12.514 333.602,12.947 C333.602,13.367 333.283,13.707 332.873,13.752 L327.379,13.752 C327.154,13.734 326.977,13.551 326.963,13.324 Z" id="clock"></path>
            </g>
        </g>
    </g>
</svg>