<?xml version="1.0" encoding="UTF-8" standalone="no"?>
<svg width="26px" height="18px" viewBox="0 0 26 18" version="1.1" xmlns="http://www.w3.org/2000/svg" xmlns:xlink="http://www.w3.org/1999/xlink">
    <!-- Generator: Sketch 41.2 (35397) - http://www.bohemiancoding.com/sketch -->
    <title>cloudupload</title>
    <desc>Created with Sketch.</desc>
    <defs></defs>
    <g id="Page-1" stroke="none" stroke-width="1" fill="none" fill-rule="evenodd">
        <g id="680x680" transform="translate(-287.000000, -212.000000)" fill="#231F1F">
            <g id="Row-3" transform="translate(50.000000, 210.000000)">
                <path d="M259.65,10.6500171 C259.27,10.4672489 259.063,10.0619804 259.122,9.64677875 C259.268,8.62168767 259.149,7.51415225 258.585,6.34999842 C257.719,4.56105556 256.004,3.24492602 254.022,2.98865325 C251.617,2.67874199 249.447,3.79621047 248.25,5.60601274 C247.95,6.05895997 247.316,6.14736414 246.868,5.83844619 C245.883,5.15803205 244.595,4.88487309 243.227,5.29312157 C242.492,5.51363535 241.857,5.95664952 241.357,6.53574651 C240.331,7.72175306 240.227,8.7955161 240.338,9.68849757 C240.394,10.1414448 240.134,10.5685661 239.735,10.7930531 C238.15,11.6840479 237.104,13.4044527 237.223,15.3692106 C237.383,18.0143827 239.754,20 242.422,20 L246.744,20 C247.572,20 248.244,19.3324988 248.244,18.510042 L248.244,16.9068473 C248.244,16.5393243 247.944,16.2413327 247.573,16.2413327 L246.068,16.2413327 C245.649,16.2413327 245.42,15.7556064 245.689,15.4357621 L249.653,10.7125953 C249.92,10.3937443 250.413,10.3937443 250.68,10.7125953 L254.645,15.4357621 C254.913,15.7556064 254.684,16.2413327 254.265,16.2413327 L252.739,16.2413327 C252.369,16.2413327 252.069,16.5393243 252.069,16.9068473 L252.069,18.510042 C252.069,19.3324988 252.74,20 253.569,20 L257.307,20 C259.771,20 262.002,18.2954881 262.391,15.8797696 C262.761,13.5862276 261.534,11.5539249 259.65,10.6500171" id="cloudupload"></path>
            </g>
        </g>
    </g>
</svg>