<?xml version="1.0" encoding="UTF-8" standalone="no"?>
<svg width="21px" height="20px" viewBox="0 0 21 20" version="1.1" xmlns="http://www.w3.org/2000/svg" xmlns:xlink="http://www.w3.org/1999/xlink">
    <!-- Generator: Sketch 42 (36781) - http://www.bohemiancoding.com/sketch -->
    <title>comment</title>
    <desc>Created with Sketch.</desc>
    <defs></defs>
    <g id="Page-1" stroke="none" stroke-width="1" fill="none" fill-rule="evenodd">
        <g id="Artboard-3" transform="translate(-439.000000, -209.000000)" fill="#000000">
            <path d="M441.965886,228.444444 C441.824709,228.444444 441.685866,228.388659 441.582025,228.283331 C441.421791,228.120266 441.382121,227.872939 441.483628,227.667353 C441.492962,227.647848 442.387862,225.826053 443.001185,223.962516 C440.487221,222.378686 439,219.944814 439,217.377527 C439,212.757891 443.710182,209 449.5,209 C455.289818,209 460,212.757891 460,217.377527 C460,221.997162 455.289818,225.755444 449.5,225.755444 C448.995963,225.755444 448.461979,225.722675 447.909716,225.658697 C446.12925,226.528244 442.236184,228.373445 442.195737,228.39256 C442.122231,228.42767 442.04367,228.444444 441.965886,228.444444 L441.965886,228.444444 Z M449.5,210.077083 C444.303671,210.077083 440.075746,213.352023 440.075746,217.377527 C440.075746,219.712701 441.473517,221.854383 443.910086,223.252914 C444.12788,223.377747 444.230554,223.637168 444.157049,223.877473 C443.83658,224.929199 443.414216,225.986386 443.069246,226.785324 C444.431625,226.137357 446.496,225.15234 447.579913,224.621015 C447.673642,224.574983 447.779039,224.557038 447.883658,224.570302 C448.448367,224.641691 448.992073,224.677971 449.5,224.677971 C454.696329,224.677971 458.923865,221.403031 458.923865,217.377527 C458.923865,213.352023 454.696329,210.077083 449.5,210.077083 L449.5,210.077083 Z" id="comment"></path>
        </g>
    </g>
</svg>