<?xml version="1.0" encoding="UTF-8" standalone="no"?>
<svg width="24px" height="24px" viewBox="0 0 24 24" version="1.1" xmlns="http://www.w3.org/2000/svg" xmlns:xlink="http://www.w3.org/1999/xlink">
    <!-- Generator: Sketch 41.2 (35397) - http://www.bohemiancoding.com/sketch -->
    <title>compose</title>
    <desc>Created with Sketch.</desc>
    <defs></defs>
    <g id="Page-1" stroke="none" stroke-width="1" fill="none" fill-rule="evenodd">
        <g id="680x680" transform="translate(-449.000000, -449.000000)" fill="#231F1F">
            <g id="Row-6" transform="translate(59.000000, 449.000000)">
                <path d="M400.324144,16.2773572 L396.617144,17.5503572 C396.251144,17.6753572 395.900144,17.3253572 396.026144,16.9583572 L397.298144,13.2513572 C397.388144,12.9913572 397.720144,12.9143572 397.915144,13.1093572 L400.467144,15.6613572 C400.662144,15.8563572 400.585144,16.1883572 400.324144,16.2773572 Z M410.261144,6.48435724 L401.787144,14.9583572 C401.529144,15.2163572 401.119144,15.2233572 400.870144,14.9743572 L398.488144,12.5923572 C398.239144,12.3433572 398.246144,11.9323572 398.503144,11.6753572 L406.977144,3.20135724 C407.235144,2.94335724 407.645144,2.93635724 407.894144,3.18535724 L410.277144,5.56835724 C410.525144,5.81635724 410.518144,6.22735724 410.261144,6.48435724 Z M413.256144,3.71635724 L411.859144,5.11435724 C411.602144,5.37135724 411.184144,5.37135724 410.927144,5.11435724 L408.462144,2.64935724 C408.204144,2.39135724 408.204144,1.97435724 408.462144,1.71635724 L409.859144,0.319357241 C410.311144,-0.132642759 411.044144,-0.132642759 411.496144,0.319357241 L413.256144,2.08035724 C413.708144,2.53235724 413.708144,3.26435724 413.256144,3.71635724 Z M403.657144,2.96035724 C403.657144,2.43535724 403.231144,1.99135724 402.707144,1.99135724 L391.960144,1.99135724 C391.157144,1.99135724 390.507144,2.64135724 390.507144,3.44435724 L390.507144,21.5803572 C390.507144,22.3833572 391.157144,23.0343572 391.960144,23.0343572 L410.096144,23.0343572 C410.899144,23.0343572 411.550144,22.3833572 411.550144,21.5803572 L411.550144,10.8133572 C411.550144,10.2883572 411.101144,9.86335724 410.576144,9.86335724 C410.051144,9.86335724 409.626144,10.2883572 409.626144,10.8133572 L409.626144,20.3723572 C409.626144,20.8083572 409.273144,21.1613572 408.837144,21.1613572 L393.164144,21.1613572 C392.729144,21.1613572 392.376144,20.8083572 392.376144,20.3723572 L392.376144,4.69935724 C392.376144,4.26435724 392.729144,3.91135724 393.164144,3.91135724 L402.707144,3.91135724 C403.231144,3.91135724 403.657144,3.48535724 403.657144,2.96035724 Z" id="compose"></path>
            </g>
        </g>
    </g>
</svg>