<?xml version="1.0" encoding="UTF-8" standalone="no"?>
<svg width="20px" height="20px" viewBox="0 0 20 20" version="1.1" xmlns="http://www.w3.org/2000/svg" xmlns:xlink="http://www.w3.org/1999/xlink">
    <!-- Generator: Sketch 41.2 (35397) - http://www.bohemiancoding.com/sketch -->
    <title>compass</title>
    <desc>Created with Sketch.</desc>
    <defs></defs>
    <g id="Page-1" stroke="none" stroke-width="1" fill="none" fill-rule="evenodd">
        <g id="680x680" transform="translate(-290.000000, -612.000000)" fill="#231F1F">
            <g id="Row-8" transform="translate(53.000000, 609.000000)">
                <path d="M253.96,6.096 C250.923,3.064 246.116,2.3 242.228,4.556 C236.8,7.706 235.661,15.216 240.232,19.804 C244.845,24.4 252.349,23.233 255.49,17.818 C257.746,13.93 256.992,9.133 253.96,6.096 L253.96,6.096 Z M253.088,16.949 C252.833,17.324 252.307,17.425 251.908,17.21 C251.473,16.975 251.102,17.324 251.352,17.779 C251.568,18.172 251.465,18.686 251.092,18.935 C248.333,20.777 244.545,20.573 241.998,18.038 C239.503,15.532 239.247,11.746 241.111,8.954 C241.36,8.581 241.874,8.478 242.267,8.694 C242.722,8.944 243.071,8.573 242.836,8.138 C242.621,7.739 242.719,7.218 243.094,6.964 C246.297,4.969 249.929,5.603 252.184,7.852 C254.433,10.108 255.109,13.681 253.088,16.949 L253.088,16.949 Z M250.712,8.712 L246.13,11.37 C245.883,11.514 245.677,11.72 245.533,11.968 L242.851,16.59 C242.619,16.989 243.067,17.437 243.466,17.205 L248.047,14.547 C248.295,14.404 248.501,14.197 248.645,13.95 L251.327,9.327 C251.559,8.928 251.111,8.48 250.712,8.712 L250.712,8.712 Z M247.133,13.68 C246.729,13.697 246.389,13.383 246.373,12.98 C246.356,12.577 246.669,12.237 247.072,12.221 C247.475,12.204 247.816,12.517 247.832,12.92 C247.849,13.323 247.536,13.664 247.133,13.68 L247.133,13.68 Z" id="compass"></path>
            </g>
        </g>
    </g>
</svg>