<?xml version="1.0" encoding="UTF-8" standalone="no"?>
<svg viewBox="0 0 12 12" version="1.1" xmlns="http://www.w3.org/2000/svg" xmlns:xlink="http://www.w3.org/1999/xlink">
    <title>Create Round</title>
    <desc></desc>
    <defs></defs>
    <g id="Page-1" stroke="none" stroke-width="1" fill="none" fill-rule="evenodd">
        <g id="New-Audience-Filter" transform="translate(-1029.000000, -96.000000)" stroke="#E96300" fill="#E96300">
            <g id="Group-23" transform="translate(0.000000, 77.000000)">
                <g id="Group-15" transform="translate(959.000000, 3.000000)">
                    <g id="Group-10">
                        <g id="Group-6" transform="translate(54.000000, 0.000000)">
                            <path d="M22.6944444,21.3055556 L22.6944444,17.6873405 C22.6944444,17.3102458 22.3835311,17 22,17 C21.613795,17 21.3055556,17.3077328 21.3055556,17.6873405 L21.3055556,21.3055556 L17.6873405,21.3055556 C17.3102458,21.3055556 17,21.6164689 17,22 C17,22.386205 17.3077328,22.6944444 17.6873405,22.6944444 L21.3055556,22.6944444 L21.3055556,26.3126595 C21.3055556,26.6897542 21.6164689,27 22,27 C22.386205,27 22.6944444,26.6922672 22.6944444,26.3126595 L22.6944444,22.6944444 L26.3126595,22.6944444 C26.6897542,22.6944444 27,22.3835311 27,22 C27,21.613795 26.6922672,21.3055556 26.3126595,21.3055556 L22.6944444,21.3055556 Z" id="bars"></path>
                        </g>
                    </g>
                </g>
            </g>
        </g>
    </g>
</svg>