<?xml version="1.0" encoding="UTF-8" standalone="no"?>
<svg width="21px" height="21px" viewBox="0 0 21 21" version="1.1" xmlns="http://www.w3.org/2000/svg" xmlns:xlink="http://www.w3.org/1999/xlink">
    <!-- Generator: Sketch 41.2 (35397) - http://www.bohemiancoding.com/sketch -->
    <title>dd-circle</title>
    <desc>Created with Sketch.</desc>
    <defs></defs>
    <g id="Page-1" stroke="none" stroke-width="1" fill="none" fill-rule="evenodd">
        <g id="Artboard-3" transform="translate(-80.000000, -99.000000)" fill="#1B1C1A">
            <path d="M94.7083125,113.14649 C94.7083125,114.873667 93.3086042,116.273958 91.5790208,116.273958 C89.8519167,116.273958 88.4515521,114.873667 88.4515521,113.14649 C88.4515521,112.996135 88.4620521,112.849135 88.481375,112.706583 C88.3358333,112.726125 88.1888333,112.738229 88.0366562,112.738229 C86.3084583,112.738229 84.9073646,111.337427 84.9073646,109.608937 C84.9073646,107.881177 86.3084583,106.479792 88.0366562,106.479792 C88.7411042,106.479792 89.3908646,106.71349 89.9132396,107.106073 L89.9132396,103.975177 C89.9147708,103.284437 90.4743333,102.725312 91.1644896,102.725312 L91.1644896,109.608937 C91.1644896,109.758344 91.1534792,109.904031 91.1344479,110.048771 C91.2789688,110.0285 91.4269167,110.016906 91.5790208,110.016906 C92.2846354,110.016906 92.9341042,110.250823 93.456625,110.641875 L93.456625,107.512365 C93.4580833,106.82126 94.0182292,106.262354 94.7083125,106.262354 L94.7083125,113.14649 Z M90.4997083,99 C84.7011562,99 80,103.701448 80,109.499635 C80,115.298552 84.7011562,120 90.4997083,120 C96.2987708,120 101,115.298552 101,109.499635 C101,103.701448 96.2987708,99 90.4997083,99 Z M91.5790208,111.268083 C91.0616042,111.268083 90.5931146,111.47801 90.2530312,111.816708 C90.2530312,111.817948 90.2510625,111.819187 90.2498229,111.82174 C89.9118542,112.16 89.7025104,112.628271 89.7025104,113.14649 C89.7025104,114.182562 90.5431667,115.023292 91.5790208,115.023292 C92.6164062,115.023292 93.456625,114.182562 93.456625,113.14649 C93.456625,112.108812 92.6164062,111.268083 91.5790208,111.268083 Z M88.0366562,107.731479 C86.9993437,107.731479 86.1589792,108.57199 86.1589792,109.608937 C86.1589792,110.645812 86.9993437,111.487417 88.0366562,111.487417 C88.5544375,111.487417 89.0224167,111.276687 89.3631562,110.938427 C89.3634479,110.936385 89.3654896,110.934125 89.3673125,110.932302 C89.7052812,110.593094 89.9132396,110.125844 89.9132396,109.608937 C89.9132396,108.57199 89.0733854,107.731479 88.0366562,107.731479 Z" id="dd-circle"></path>
        </g>
    </g>
</svg>