<?xml version="1.0" encoding="UTF-8" standalone="no"?>
<svg width="16px" height="20px" viewBox="0 0 16 20" version="1.1" xmlns="http://www.w3.org/2000/svg" xmlns:xlink="http://www.w3.org/1999/xlink">
    <!-- Generator: Sketch 41.2 (35397) - http://www.bohemiancoding.com/sketch -->
    <title>document</title>
    <desc>Created with Sketch.</desc>
    <defs></defs>
    <g id="Page-1" stroke="none" stroke-width="1" fill="none" fill-rule="evenodd">
        <g id="680x680" transform="translate(-52.000000, -50.000000)" fill="#231F1F">
            <g id="Row-1" transform="translate(52.000000, 48.000000)">
                <path d="M8.65027756,2 L1.31853027,2 C0.59000793,2 0,2.56834386 0,3.27011611 L0,20.7288653 C0,21.4306376 0.59000793,22 1.31853027,22 L14.6804124,22 C15.4089347,22 16,21.4306376 16,20.7288653 L16,9.01161133 C16,8.73864331 15.8868623,8.4768792 15.6859635,8.2833571 L9.5257732,2.34935832 C9.29315358,2.1252801 8.9791171,2 8.65027756,2 L8.65027756,2 Z M2.4074357,20 C2.18232748,20 2,19.8240894 2,19.6069038 L2,4.39309625 C2,4.17591057 2.18232748,4 2.4074357,4 L8.15329768,4 C8.71555895,4 9.17188694,4.4402678 9.17188694,4.98372336 L9.16883117,8.24642221 C9.16883117,8.51765862 9.39801375,8.73877526 9.68016297,8.73779252 L13.1820728,8.72305141 C13.6333079,8.72108593 14,9.07388981 14,9.5092439 L14,19.6069038 C14,19.8240894 13.8176725,20 13.5925643,20 L2.4074357,20 Z" id="document"></path>
            </g>
        </g>
    </g>
</svg>