<?xml version="1.0" encoding="UTF-8" standalone="no"?>
<svg width="21px" height="17px" viewBox="0 0 21 17" version="1.1" xmlns="http://www.w3.org/2000/svg" xmlns:xlink="http://www.w3.org/1999/xlink">
    <!-- Generator: Sketch 41.2 (35397) - http://www.bohemiancoding.com/sketch -->
    <title>download</title>
    <desc>Created with Sketch.</desc>
    <defs></defs>
    <g id="Page-1" stroke="none" stroke-width="1" fill="none" fill-rule="evenodd">
        <g id="680x680" transform="translate(-371.000000, -452.000000)" fill="#231F1F">
            <g id="Row-6" transform="translate(59.000000, 449.000000)">
                <path d="M327.09762,3 L325.16962,3 C324.43262,3 323.83462,3.598 323.83462,4.335 L323.83462,5.934 C323.83462,6.278 324.11362,6.557 324.45862,6.557 L325.85662,6.557 C326.24562,6.557 326.45862,7.011 326.20962,7.31 L322.52562,11.729 C322.27762,12.027 321.81962,12.027 321.57062,11.729 L317.88762,7.31 C317.63762,7.011 317.85062,6.557 318.23962,6.557 L319.65762,6.557 C320.00162,6.557 320.28062,6.278 320.28062,5.934 L320.28062,4.335 C320.28062,3.598 319.68362,3 318.94562,3 L317.00162,3 C316.12862,3 315.35262,3.557 315.07362,4.384 L312.19462,12.92 C312.01062,13.463 311.95662,14.041 312.03462,14.608 L312.58862,18.636 C312.67662,19.277 313.22362,19.754 313.87062,19.754 L330.22962,19.754 C330.87462,19.754 331.42162,19.278 331.51062,18.639 L332.07462,14.616 C332.15562,14.043 332.10062,13.46 331.91462,12.913 L329.02362,4.382 C328.74462,3.556 327.96962,3 327.09762,3 L327.09762,3 Z M329.36462,18.073 L314.75062,18.073 C314.37862,18.073 314.06862,17.787 314.03962,17.416 L313.87762,15.349 C313.83262,14.779 314.28362,14.292 314.85562,14.292 L329.26062,14.292 C329.83262,14.292 330.28262,14.779 330.23862,15.349 L330.07562,17.416 C330.04662,17.787 329.73762,18.073 329.36462,18.073 L329.36462,18.073 Z" id="download"></path>
            </g>
        </g>
    </g>
</svg>