<?xml version="1.0" encoding="UTF-8" standalone="no"?>
<svg width="12px" height="24px" viewBox="0 0 12 24" version="1.1" xmlns="http://www.w3.org/2000/svg" xmlns:xlink="http://www.w3.org/1999/xlink">
    <!-- Generator: Sketch 41.2 (35397) - http://www.bohemiancoding.com/sketch -->
    <title>draghandle</title>
    <desc>Created with Sketch.</desc>
    <defs></defs>
    <g id="Page-1" stroke="none" stroke-width="1" fill="none" fill-rule="evenodd">
        <g id="Artboard-3" transform="translate(-127.000000, -19.000000)" fill="#000000">
            <path d="M132,39.8484307 L132,21.5606602 L128.28033,25.2803301 C127.987437,25.5732233 127.512563,25.5732233 127.21967,25.2803301 C126.926777,24.9874369 126.926777,24.5125631 127.21967,24.2196699 L132.21967,19.2196699 C132.512563,18.9267767 132.987437,18.9267767 133.28033,19.2196699 L138.28033,24.2196699 C138.573223,24.5125631 138.573223,24.9874369 138.28033,25.2803301 C137.987437,25.5732233 137.512563,25.5732233 137.21967,25.2803301 L133.5,21.5606602 L133.5,39.8484307 L137.21967,36.1287608 C137.512563,35.8358676 137.987437,35.8358676 138.28033,36.1287608 C138.573223,36.421654 138.573223,36.8965278 138.28033,37.189421 L133.28033,42.189421 C132.987437,42.4823142 132.512563,42.4823142 132.21967,42.189421 L127.21967,37.189421 C126.926777,36.8965278 126.926777,36.421654 127.21967,36.1287608 C127.512563,35.8358676 127.987437,35.8358676 128.28033,36.1287608 L132,39.8484307 Z" id="draghandle"></path>
        </g>
    </g>
</svg>