<?xml version="1.0" encoding="UTF-8" standalone="no"?>
<svg width="12px" height="23px" viewBox="0 0 12 23" version="1.1" xmlns="http://www.w3.org/2000/svg" xmlns:xlink="http://www.w3.org/1999/xlink">
    <!-- Generator: Sketch 41.2 (35397) - http://www.bohemiancoding.com/sketch -->
    <title>draghandle</title>
    <desc>Created with Sketch.</desc>
    <defs></defs>
    <g id="Page-1" stroke="none" stroke-width="1" fill="none" fill-rule="evenodd">
        <g id="Artboard-3" transform="translate(-130.000000, -19.000000)" fill="#000000">
            <path d="M135.5,39.7928932 L135.5,21.2071068 L131.353553,25.3535534 C131.158291,25.5488155 130.841709,25.5488155 130.646447,25.3535534 C130.451184,25.1582912 130.451184,24.8417088 130.646447,24.6464466 L135.646447,19.6464466 C135.841709,19.4511845 136.158291,19.4511845 136.353553,19.6464466 L141.353553,24.6464466 C141.548816,24.8417088 141.548816,25.1582912 141.353553,25.3535534 C141.158291,25.5488155 140.841709,25.5488155 140.646447,25.3535534 L136.5,21.2071068 L136.5,39.7928932 L140.646447,35.6464466 C140.841709,35.4511845 141.158291,35.4511845 141.353553,35.6464466 C141.548816,35.8417088 141.548816,36.1582912 141.353553,36.3535534 L136.353553,41.3535534 C136.158291,41.5488155 135.841709,41.5488155 135.646447,41.3535534 L130.646447,36.3535534 C130.451184,36.1582912 130.451184,35.8417088 130.646447,35.6464466 C130.841709,35.4511845 131.158291,35.4511845 131.353553,35.6464466 L135.5,39.7928932 Z" id="draghandle"></path>
        </g>
    </g>
</svg>