<?xml version="1.0" encoding="UTF-8" standalone="no"?>
<svg width="22px" height="21px" viewBox="0 0 22 21" version="1.1" xmlns="http://www.w3.org/2000/svg" xmlns:xlink="http://www.w3.org/1999/xlink">
    <!-- Generator: Sketch 41.2 (35397) - http://www.bohemiancoding.com/sketch -->
    <title>earth</title>
    <desc>Created with Sketch.</desc>
    <defs></defs>
    <g id="Page-1" stroke="none" stroke-width="1" fill="none" fill-rule="evenodd">
        <g id="680x680" transform="translate(-369.000000, -49.000000)" fill="#000000">
            <g id="Row-1" transform="translate(51.000000, 47.000000)">
                <path d="M329.014,2.638 C323.392,2.638 318.835,7.196 318.835,12.817 C318.835,18.439 323.392,22.997 329.014,22.997 C334.636,22.997 339.193,18.439 339.193,12.817 C339.193,7.196 334.636,2.638 329.014,2.638 L329.014,2.638 Z M325.776,5.177 C325.92,5.116 326.095,5.177 326.156,5.322 C326.281,5.62 326.022,5.98 324.929,6.831 C323.547,7.906 323.309,8.812 323.577,10.586 C323.844,12.359 324.891,12.412 325.547,13.753 C326.203,15.094 325.606,16.234 326.608,18.539 C327.047,19.459 327.612,20.034 327.844,20.496 C327.969,20.744 327.756,21.023 327.484,20.972 C323.63,20.253 320.71,16.88 320.71,12.817 C320.71,9.381 322.8,6.44 325.776,5.177 L325.776,5.177 Z M329.78,20.122 C329.719,19.422 330.263,17.997 331.327,16.889 C333.25,14.906 331.783,13.879 329.923,13.627 C328.063,13.375 326.773,14.118 326.316,12.879 C325.859,11.641 326.681,11.109 326.957,11.02 C327.233,10.931 327.764,10.64 328.624,11.672 C328.984,12.031 329.476,12.091 329.464,11.639 C329.453,11.188 328.892,10.277 329.501,9.56 C330.109,8.844 331.5,8.485 331.438,7.422 C331.375,6.359 330.473,5.914 329.4,6.194 C328.328,6.473 327.749,6.682 327.445,5.763 C327.377,5.558 327.32,5.357 327.272,5.168 C327.211,4.926 327.367,4.68 327.614,4.637 C328.069,4.557 328.536,4.513 329.014,4.513 C332.391,4.513 335.297,6.529 336.595,9.423 C337.032,10.399 336.477,11.545 335.435,11.785 C335.429,11.787 335.422,11.788 335.414,11.79 C334.141,12.078 333.533,12.587 334.976,13.811 C335.321,14.04 335.693,14.264 336.04,14.527 C336.619,14.966 336.812,15.756 336.497,16.411 C335.417,18.655 333.357,20.335 330.871,20.903 C330.353,21.021 329.832,20.651 329.78,20.122 L329.78,20.122 Z" id="earth"></path>
            </g>
        </g>
    </g>
</svg>