<?xml version="1.0" encoding="UTF-8" standalone="no"?>
<svg width="23px" height="15px" viewBox="0 0 23 15" version="1.1" xmlns="http://www.w3.org/2000/svg" xmlns:xlink="http://www.w3.org/1999/xlink">
    <!-- Generator: Sketch 41.2 (35397) - http://www.bohemiancoding.com/sketch -->
    <title>envelope</title>
    <desc>Created with Sketch.</desc>
    <defs></defs>
    <g id="Page-1" stroke="none" stroke-width="1" fill="none" fill-rule="evenodd">
        <g id="680x680" transform="translate(-49.000000, -216.000000)" fill="#231F1F">
            <g id="Row-3" transform="translate(49.000000, 213.000000)">
                <path d="M12.317,12.917 L21.71,5.492 C22.141,5.151 22.776,5.459 22.776,6.008 L22.776,16.429 C22.776,17.174 22.172,17.778 21.427,17.778 L1.349,17.778 C0.604,17.778 0,17.174 0,16.429 L0,6.01 C0,5.46 0.635,5.153 1.066,5.494 L10.44,12.916 C10.99,13.351 11.767,13.351 12.317,12.917 L12.317,12.917 Z M1.904,3 C1.287,3 1.021,3.784 1.511,4.16 L10.727,11.232 C11.11,11.526 11.642,11.526 12.025,11.233 L21.261,4.16 C21.752,3.784 21.486,3 20.868,3 L1.904,3 L1.904,3 Z" id="envelope"></path>
            </g>
        </g>
    </g>
</svg>