<?xml version="1.0" encoding="UTF-8" standalone="no"?>
<svg width="20px" height="21px" viewBox="0 0 20 21" version="1.1" xmlns="http://www.w3.org/2000/svg" xmlns:xlink="http://www.w3.org/1999/xlink">
    <!-- Generator: Sketch 42 (36781) - http://www.bohemiancoding.com/sketch -->
    <title>exhibitor</title>
    <desc>Created with Sketch.</desc>
    <defs></defs>
    <g id="Page-1" stroke="none" stroke-width="1" fill="none" fill-rule="evenodd">
        <g id="Artboard-3" transform="translate(-367.000000, -209.000000)" fill="#221F20">
            <path d="M382.421899,213.374806 C381.69721,213.374806 381.109191,212.786787 381.109191,212.062097 C381.109191,211.337408 381.69721,210.749389 382.421899,210.749389 C383.146589,210.749389 383.734608,211.337408 383.734608,212.062097 C383.734608,212.786787 383.146589,213.374806 382.421899,213.374806 L382.421899,213.374806 Z M383.229258,226.713896 C383.229258,226.915235 383.113921,227.083241 382.949249,227.176577 L371.392882,227.176577 C371.22821,227.083241 371.114874,226.915235 371.114874,226.713896 L371.114874,225.160513 C371.132874,225.143846 374.588984,223.349789 374.588984,223.349789 C374.588984,223.349789 375.615016,222.888441 375.615016,221.810407 L375.421677,221.425061 L375.021664,220.22169 C375.021664,220.22169 374.524982,219.885679 374.524982,219.115654 C374.524982,218.634306 374.716321,218.425633 374.716321,218.425633 C374.716321,218.425633 374.524982,217.704276 374.524982,217.19026 C374.524982,216.677577 375.021664,215.008857 377.155732,215.008857 C379.146462,215.008857 379.787149,216.677577 379.787149,217.19026 C379.787149,217.704276 379.595143,218.425633 379.595143,218.425633 C379.595143,218.425633 379.787149,218.618305 379.787149,219.115654 C379.787149,219.885679 379.290466,220.207022 379.290466,220.207022 L378.936455,221.345059 L378.695781,221.810407 C378.695781,222.814439 379.721813,223.349789 379.721813,223.349789 C379.721813,223.349789 383.225258,225.154513 383.229258,225.160513 L383.229258,226.713896 Z M370.608857,212.062097 C370.608857,211.337408 371.196876,210.749389 371.921566,210.749389 C372.646256,210.749389 373.234274,211.337408 373.234274,212.062097 C373.234274,212.786787 372.646256,213.374806 371.921566,213.374806 C371.196876,213.374806 370.608857,212.786787 370.608857,212.062097 L370.608857,212.062097 Z M384.274625,209.002 L370.06884,209 C368.916804,209 367.984107,209.895362 367.984107,211.000063 L367.984107,227.999937 C367.984107,229.104638 368.916804,230 370.06884,230 L384.274625,230 C385.425995,230 386.359358,229.27131 386.359358,228.167275 L386.359358,211.00273 C386.359358,209.898029 385.425995,209.002 384.274625,209.002 L384.274625,209.002 Z" id="exhibitor"></path>
        </g>
    </g>
</svg>