<?xml version="1.0" encoding="UTF-8" standalone="no"?>
<svg width="25px" height="16px" viewBox="0 0 25 16" version="1.1" xmlns="http://www.w3.org/2000/svg" xmlns:xlink="http://www.w3.org/1999/xlink">
    <!-- Generator: Sketch 41.2 (35397) - http://www.bohemiancoding.com/sketch -->
    <title>eye</title>
    <desc>Created with Sketch.</desc>
    <defs></defs>
    <g id="Page-1" stroke="none" stroke-width="1" fill="none" fill-rule="evenodd">
        <g id="680x680" transform="translate(-286.000000, -612.000000)" fill="#000000">
            <g id="Row-8" transform="translate(53.000000, 606.000000)">
                <path d="M256.794,12.902 C255.31,10.893 251.505,6.815 245.065,6.815 C238.649,6.815 234.814,10.903 233.319,12.909 C232.838,13.555 232.83,14.441 233.302,15.093 C234.758,17.105 238.512,21.172 245.065,21.172 C251.536,21.172 255.323,17.099 256.798,15.089 C257.275,14.439 257.273,13.55 256.794,12.902 L256.794,12.902 Z M245.055,18.923 C242.332,18.923 240.125,16.716 240.125,13.994 C240.125,11.271 242.332,9.064 245.055,9.064 C247.777,9.064 249.984,11.271 249.984,13.994 C249.984,16.716 247.777,18.923 245.055,18.923 L245.055,18.923 Z M247.716,13.994 C247.716,15.463 246.524,16.655 245.055,16.655 C243.585,16.655 242.394,15.463 242.394,13.994 C242.394,12.524 243.585,11.333 245.055,11.333 C246.524,11.333 247.716,12.524 247.716,13.994 L247.716,13.994 Z" id="eye"></path>
            </g>
        </g>
    </g>
</svg>