<?xml version="1.0" encoding="UTF-8" standalone="no"?>
<svg width="20px" height="23px" viewBox="0 0 20 23" version="1.1" xmlns="http://www.w3.org/2000/svg" xmlns:xlink="http://www.w3.org/1999/xlink">
    <!-- Generator: Sketch 41.2 (35397) - http://www.bohemiancoding.com/sketch -->
    <title>film</title>
    <desc>Created with Sketch.</desc>
    <defs></defs>
    <g id="Page-1" stroke="none" stroke-width="1" fill="none" fill-rule="evenodd">
        <g id="680x680" transform="translate(-370.000000, -529.000000)" fill="#231F1F">
            <g id="Row-7" transform="translate(49.000000, 528.000000)">
                <path d="M340.155951,1 L321.844049,1 C321.37734,1 321,1.38736628 321,1.86420299 L321,23.135797 C321,23.6126337 321.37734,24 321.844049,24 L340.155951,24 C340.621667,24 341,23.6126337 341,23.135797 L341,1.86420299 C341,1.38736628 340.621667,1 340.155951,1 L340.155951,1 Z M324.27094,21.1613474 C324.27094,21.5812483 323.938285,21.921846 323.528176,21.921846 L323.08232,21.921846 C322.672211,21.921846 322.340549,21.5812483 322.340549,21.1613474 L322.340549,20.7058616 C322.340549,20.2859606 322.672211,19.9453629 323.08232,19.9453629 L323.528176,19.9453629 C323.938285,19.9453629 324.27094,20.2859606 324.27094,20.7058616 L324.27094,21.1613474 L324.27094,21.1613474 Z M324.27094,16.9277694 C324.27094,17.3476704 323.938285,17.6882681 323.528176,17.6882681 L323.08232,17.6882681 C322.672211,17.6882681 322.340549,17.3476704 322.340549,16.9277694 L322.340549,16.4712669 C322.340549,16.0513659 322.672211,15.7107683 323.08232,15.7107683 L323.528176,15.7107683 C323.938285,15.7107683 324.27094,16.0513659 324.27094,16.4712669 L324.27094,16.9277694 L324.27094,16.9277694 Z M324.27094,12.6931748 C324.27094,13.1130758 323.938285,13.4536734 323.528176,13.4536734 L323.08232,13.4536734 C322.672211,13.4536734 322.340549,13.1130758 322.340549,12.6931748 L322.340549,12.237689 C322.340549,11.817788 322.672211,11.4771903 323.08232,11.4771903 L323.528176,11.4771903 C323.938285,11.4771903 324.27094,11.817788 324.27094,12.237689 L324.27094,12.6931748 L324.27094,12.6931748 Z M324.27094,8.45858014 C324.27094,8.87848112 323.938285,9.21907877 323.528176,9.21907877 L323.08232,9.21907877 C322.672211,9.21907877 322.340549,8.87848112 322.340549,8.45858014 L322.340549,8.00309433 C322.340549,7.58319335 322.672211,7.2425957 323.08232,7.2425957 L323.528176,7.2425957 C323.938285,7.2425957 324.27094,7.58319335 324.27094,8.00309433 L324.27094,8.45858014 L324.27094,8.45858014 Z M324.27094,4.22500221 C324.27094,4.64490319 323.938285,4.98550084 323.528176,4.98550084 L323.08232,4.98550084 C322.672211,4.98550084 322.340549,4.64490319 322.340549,4.22500221 L322.340549,3.76849969 C322.340549,3.34859871 322.672211,3.00901777 323.08232,3.00901777 L323.528176,3.00901777 C323.938285,3.00901777 324.27094,3.34859871 324.27094,3.76849969 L324.27094,4.22500221 L324.27094,4.22500221 Z M336.402413,21.1918486 C336.402413,21.7540889 335.956556,22.2105915 335.406435,22.2105915 L326.572712,22.2105915 C326.023584,22.2105915 325.577727,21.7540889 325.577727,21.1918486 L325.577727,14.4612324 C325.577727,13.8979754 326.023584,13.4414729 326.572712,13.4414729 L335.406435,13.4414729 C335.956556,13.4414729 336.402413,13.8979754 336.402413,14.4612324 L336.402413,21.1918486 L336.402413,21.1918486 Z M336.402413,10.4320131 C336.402413,10.9942534 335.956556,11.4507559 335.406435,11.4507559 L326.572712,11.4507559 C326.023584,11.4507559 325.577727,10.9942534 325.577727,10.4320131 L325.577727,3.70038016 C325.577727,3.13813986 326.023584,2.68163734 326.572712,2.68163734 L335.406435,2.68163734 C335.956556,2.68163734 336.402413,3.13813986 336.402413,3.70038016 L336.402413,10.4320131 L336.402413,10.4320131 Z M339.689241,21.1613474 C339.689241,21.5812483 339.357579,21.921846 338.946477,21.921846 L338.502607,21.921846 C338.092498,21.921846 337.759843,21.5812483 337.759843,21.1613474 L337.759843,20.7058616 C337.759843,20.2859606 338.092498,19.9453629 338.502607,19.9453629 L338.946477,19.9453629 C339.357579,19.9453629 339.689241,20.2859606 339.689241,20.7058616 L339.689241,21.1613474 L339.689241,21.1613474 Z M339.689241,16.9277694 C339.689241,17.3476704 339.357579,17.6882681 338.946477,17.6882681 L338.502607,17.6882681 C338.092498,17.6882681 337.759843,17.3476704 337.759843,16.9277694 L337.759843,16.4712669 C337.759843,16.0513659 338.092498,15.7107683 338.502607,15.7107683 L338.946477,15.7107683 C339.357579,15.7107683 339.689241,16.0513659 339.689241,16.4712669 L339.689241,16.9277694 L339.689241,16.9277694 Z M339.689241,12.6931748 C339.689241,13.1130758 339.357579,13.4536734 338.946477,13.4536734 L338.502607,13.4536734 C338.092498,13.4536734 337.759843,13.1130758 337.759843,12.6931748 L337.759843,12.237689 C337.759843,11.817788 338.092498,11.4771903 338.502607,11.4771903 L338.946477,11.4771903 C339.357579,11.4771903 339.689241,11.817788 339.689241,12.237689 L339.689241,12.6931748 L339.689241,12.6931748 Z M339.689241,8.45858014 C339.689241,8.87848112 339.357579,9.21907877 338.946477,9.21907877 L338.502607,9.21907877 C338.092498,9.21907877 337.759843,8.87848112 337.759843,8.45858014 L337.759843,8.00309433 C337.759843,7.58319335 338.092498,7.2425957 338.502607,7.2425957 L338.946477,7.2425957 C339.357579,7.2425957 339.689241,7.58319335 339.689241,8.00309433 L339.689241,8.45858014 L339.689241,8.45858014 Z M339.689241,4.22500221 C339.689241,4.64490319 339.357579,4.98550084 338.946477,4.98550084 L338.502607,4.98550084 C338.092498,4.98550084 337.759843,4.64490319 337.759843,4.22500221 L337.759843,3.76849969 C337.759843,3.34859871 338.092498,3.00901777 338.502607,3.00901777 L338.946477,3.00901777 C339.357579,3.00901777 339.689241,3.34859871 339.689241,3.76849969 L339.689241,4.22500221 L339.689241,4.22500221 Z" id="film"></path>
            </g>
        </g>
    </g>
</svg>