<?xml version="1.0" encoding="UTF-8" standalone="no"?>
<svg width="22px" height="19px" viewBox="0 0 22 19" version="1.1" xmlns="http://www.w3.org/2000/svg" xmlns:xlink="http://www.w3.org/1999/xlink">
    <!-- Generator: Sketch 41.2 (35397) - http://www.bohemiancoding.com/sketch -->
    <title>firstaid</title>
    <desc>Created with Sketch.</desc>
    <defs></defs>
    <g id="Page-1" stroke="none" stroke-width="1" fill="none" fill-rule="evenodd">
        <g id="680x680" transform="translate(-371.000000, -611.000000)" fill="#231F1F">
            <g id="Row-8" transform="translate(49.000000, 609.000000)">
                <path d="M324.936,6.264 L324.936,20.183 C324.936,20.515 324.667,20.783 324.336,20.783 L323.486,20.783 C322.665,20.783 322,20.118 322,19.297 L322,7.15 C322,6.329 322.665,5.664 323.486,5.664 L324.336,5.664 C324.667,5.664 324.936,5.933 324.936,6.264 L324.936,6.264 Z M340.231,6.264 L340.231,20.183 C340.231,20.515 340.499,20.783 340.831,20.783 L341.68,20.783 C342.501,20.783 343.166,20.118 343.166,19.297 L343.166,7.15 C343.166,6.329 342.501,5.664 341.68,5.664 L340.831,5.664 C340.499,5.664 340.231,5.933 340.231,6.264 L340.231,6.264 Z M338.951,6.268 L338.951,20.183 C338.951,20.515 338.683,20.783 338.351,20.783 L326.815,20.783 C326.484,20.783 326.215,20.515 326.215,20.183 L326.215,6.268 C326.215,5.935 326.485,5.664 326.819,5.664 L327.49,5.664 C327.654,5.664 327.787,5.531 327.787,5.367 L327.787,4.577 C327.787,3.154 328.941,2 330.364,2 L334.794,2 C336.217,2 337.371,3.154 337.371,4.577 L337.371,5.367 C337.371,5.531 337.504,5.664 337.668,5.664 L338.347,5.664 C338.681,5.664 338.951,5.935 338.951,6.268 L338.951,6.268 Z M329.496,5.367 C329.496,5.531 329.629,5.664 329.793,5.664 L335.407,5.664 C335.571,5.664 335.704,5.531 335.704,5.367 L335.704,4.528 C335.704,4.045 335.312,3.653 334.829,3.653 L330.371,3.653 C329.887,3.653 329.496,4.045 329.496,4.528 L329.496,5.367 L329.496,5.367 Z M336.101,12.898 C336.101,12.607 335.865,12.372 335.575,12.372 L333.95,12.372 C333.66,12.372 333.424,12.136 333.424,11.846 L333.424,10.221 C333.424,9.93 333.188,9.695 332.898,9.695 L332.263,9.695 C331.972,9.695 331.736,9.93 331.736,10.221 L331.736,11.846 C331.736,12.136 331.501,12.372 331.21,12.372 L329.585,12.372 C329.295,12.372 329.059,12.607 329.059,12.898 L329.059,13.533 C329.059,13.824 329.295,14.059 329.585,14.059 L331.21,14.059 C331.501,14.059 331.736,14.295 331.736,14.585 L331.736,16.21 C331.736,16.501 331.972,16.737 332.263,16.737 L332.898,16.737 C333.188,16.737 333.424,16.501 333.424,16.21 L333.424,14.585 C333.424,14.295 333.66,14.059 333.95,14.059 L335.575,14.059 C335.865,14.059 336.101,13.824 336.101,13.533 L336.101,12.898 L336.101,12.898 Z" id="firstaid"></path>
            </g>
        </g>
    </g>
</svg>