<svg width="98" height="100" viewBox="0 0 98 100" xmlns="http://www.w3.org/2000/svg"><title>EF6D63CA-1108-45A1-84B6-BEF8F23ADF33</title><path d="M3.273 3.961a4.613 4.613 0 0 1 5.752 3.076l26.772 86.186a4.615 4.615 0 0 1-3.077 5.752 4.617 4.617 0 0 1-5.752-3.076L.201 9.714A4.606 4.606 0 0 1 3.273 3.96zm18.51-2.51C28.391-.957 38.186-.01 50.34 6.352c17.709 10.034 25.676 6.72 29.223 5.782 3.543-.939 5.348.057 6.1 2.671.753 2.614 10.22 33.205 11.281 36.662 1.062 3.457.072 6.757-2.085 8.28-2.158 1.525-12.724 6.515-29.843-3.356-17.12-9.867-28.538-4.024-31.515-2.629-2.976 1.395-5.633.195-6.666-3-1.038-3.195-10.738-34.91-12.01-39.033-1.266-4.129-.01-7.738 6.957-10.276z" fill="#DEDEDE" fill-rule="evenodd"/></svg>