<?xml version="1.0" encoding="UTF-8" standalone="no"?>
<svg width="23px" height="19px" viewBox="0 0 23 19" version="1.1" xmlns="http://www.w3.org/2000/svg" xmlns:xlink="http://www.w3.org/1999/xlink">
    <!-- Generator: Sketch 41.2 (35397) - http://www.bohemiancoding.com/sketch -->
    <title>folder</title>
    <desc>Created with Sketch.</desc>
    <defs></defs>
    <g id="Page-1" stroke="none" stroke-width="1" fill="none" fill-rule="evenodd">
        <g id="680x680" transform="translate(-209.000000, -131.000000)" fill="#231F1F">
            <g id="Row-2" transform="translate(51.000000, 129.000000)">
                <path d="M170.343,5.199 L177.051,5.199 C177.798,5.199 178.404,5.805 178.404,6.552 L178.404,7.213 C178.404,7.571 178.114,7.86 177.756,7.86 L161.958,7.86 C161.184,7.86 160.557,8.488 160.557,9.261 L160.557,17.908 C160.557,18.607 159.99,19.174 159.291,19.174 L159.265,19.174 C158.566,19.174 158,18.607 158,17.908 L158,3.266 C158,2.567 158.566,2 159.265,2 L167.093,2 C167.642,2 168.14,2.322 168.367,2.822 L169.069,4.377 C169.295,4.878 169.794,5.199 170.343,5.199 L170.343,5.199 Z M161.838,20.454 L178.416,20.454 C179.823,20.454 180.964,19.314 180.964,17.907 L180.964,9.816 C180.964,9.458 180.673,9.168 180.315,9.168 L162.486,9.168 C162.128,9.168 161.838,9.458 161.838,9.816 L161.838,17.802 C161.833,18.696 161.47,19.372 160.906,19.874 C160.677,20.077 160.82,20.454 161.126,20.454 L161.838,20.454 L161.838,20.454 Z" id="folder"></path>
            </g>
        </g>
    </g>
</svg>