<?xml version="1.0" encoding="UTF-8" standalone="no"?>
<svg viewBox="0 0 15 11" version="1.1" xmlns="http://www.w3.org/2000/svg" xmlns:xlink="http://www.w3.org/1999/xlink">
    <title>forward</title>
    <desc></desc>
    <defs></defs>
    <g id="Page-1" stroke="none" stroke-width="1" fill="none" fill-rule="evenodd">
        <g id="New-Audience-Filter" transform="translate(-974.000000, -97.000000)" fill="#E96300">
            <g id="Group-23" transform="translate(0.000000, 77.000000)">
                <g id="Group-15" transform="translate(959.000000, 3.000000)">
                    <g id="Group-10">
                        <g id="Group-6-Copy-5">
                            <path d="M21.1109862,18.8846285 L21.1109862,17.4598241 C21.1109862,17.0626783 20.6263402,16.8532103 20.3220782,17.1182084 L15.3249363,21.4748625 C14.8960718,21.8481093 14.8910007,22.4983037 15.3140698,22.8785796 L20.3162827,27.3765191 C20.6190959,27.6492493 21.1109862,27.4404842 21.1109862,27.0405268 L21.1109862,25.2319319 C21.1109862,24.6871744 21.5710014,24.2436364 22.1331618,24.2415277 C26.141452,24.2267665 28.1314706,25.3085494 29.2688311,26.3179323 C29.6071415,26.6180761 30.1388757,26.2729459 29.9664605,25.8610389 C28.3763291,22.0547657 25.1076855,20.1927494 22.1027356,19.9193163 C21.5572372,19.8701124 21.1109862,19.4153278 21.1109862,18.8846285" id="forward" transform="translate(-15.500000, -22.250000) scale(-1, 1) translate(0, 22.250000)"></path>
                        </g>
                    </g>
                </g>
            </g>
        </g>
    </g>
</svg>