<?xml version="1.0" encoding="UTF-8" standalone="no"?>
<svg width="22px" height="22px" viewBox="0 0 22 22" version="1.1" xmlns="http://www.w3.org/2000/svg" xmlns:xlink="http://www.w3.org/1999/xlink">
    <!-- Generator: Sketch 41.2 (35397) - http://www.bohemiancoding.com/sketch -->
    <title>fullscreen</title>
    <desc>Created with Sketch.</desc>
    <defs></defs>
    <g id="Page-1" stroke="none" stroke-width="1" fill="none" fill-rule="evenodd">
        <g id="680x680" transform="translate(-289.000000, -367.000000)" fill="#231F1F">
            <g id="Row-5" transform="translate(50.000000, 366.000000)">
                <path d="M256.1,19.465 L244.364,19.465 C243.611,19.465 243,18.854 243,18.101 L243,6.365 C243,5.611 243.611,5 244.364,5 L256.1,5 C256.854,5 257.465,5.611 257.465,6.365 L257.465,18.101 C257.465,18.854 256.854,19.465 256.1,19.465 Z M246.285,2.462 C246.285,1.939 245.861,1.515 245.337,1.515 L243.06,1.515 C241.109,1.515 239.527,3.097 239.527,5.048 L239.527,7.326 C239.527,7.85 239.951,8.274 240.475,8.274 C240.998,8.274 241.441,7.85 241.441,7.326 L241.441,5.01 C241.441,4.147 242.141,3.448 243.004,3.448 L245.337,3.448 C245.861,3.448 246.285,2.986 246.285,2.462 Z M240.462,16.18 C239.939,16.18 239.514,16.604 239.514,17.128 L239.514,19.405 C239.514,21.356 241.096,22.938 243.047,22.938 L245.326,22.938 C245.849,22.938 246.273,22.514 246.273,21.99 C246.273,21.467 245.849,21.024 245.326,21.024 L243.01,21.024 C242.147,21.024 241.447,20.324 241.447,19.461 L241.447,17.128 C241.447,16.604 240.985,16.18 240.462,16.18 Z M254.18,22.003 C254.18,22.526 254.604,22.951 255.127,22.951 L257.405,22.951 C259.356,22.951 260.937,21.369 260.937,19.418 L260.937,17.139 C260.937,16.616 260.513,16.192 259.99,16.192 C259.467,16.192 259.023,16.616 259.023,17.139 L259.023,19.456 C259.023,20.318 258.324,21.018 257.461,21.018 L255.127,21.018 C254.604,21.018 254.18,21.48 254.18,22.003 Z M260.003,8.286 C260.526,8.286 260.95,7.861 260.95,7.338 L260.95,5.061 C260.95,3.109 259.368,1.528 257.417,1.528 L255.139,1.528 C254.615,1.528 254.191,1.952 254.191,2.475 C254.191,2.998 254.615,3.442 255.139,3.442 L257.455,3.442 C258.318,3.442 259.017,4.141 259.017,5.004 L259.017,7.338 C259.017,7.861 259.479,8.286 260.003,8.286 Z" id="fullscreen"></path>
            </g>
        </g>
    </g>
</svg>