<?xml version="1.0" encoding="UTF-8" standalone="no"?>
<svg width="23px" height="14px" viewBox="0 0 23 14" version="1.1" xmlns="http://www.w3.org/2000/svg" xmlns:xlink="http://www.w3.org/1999/xlink">
    <!-- Generator: Sketch 41.2 (35397) - http://www.bohemiancoding.com/sketch -->
    <title>gamepad</title>
    <desc>Created with Sketch.</desc>
    <defs></defs>
    <g id="Page-1" stroke="none" stroke-width="1" fill="none" fill-rule="evenodd">
        <g id="680x680" transform="translate(-448.000000, -613.000000)" fill="#231F1F">
            <g id="Row-8" transform="translate(52.000000, 605.000000)">
                <path d="M413.112361,8 C411.880637,8 410.002505,9.06104081 407.981493,9.06104081 C405.96048,9.06104081 404.082348,8 402.850625,8 C398.909109,8 397.154149,14.8215278 396.962,19.1322473 C396.962,22.2806447 398.999764,22.7089194 400.426592,21.0401916 C403.52758,17.4133611 404.298146,17.2715675 407.981493,17.2715675 C411.664839,17.2715675 412.435405,17.4133611 415.536393,21.0401916 C416.963222,22.7089194 419,22.2806447 419,19.1322473 C418.808836,14.8215278 417.053877,8 413.112361,8 L413.112361,8 Z M405.194841,14.1646471 L404.609526,14.1646471 C404.506061,14.1646471 404.421319,14.2466366 404.421319,14.3488824 L404.421319,14.9218444 C404.421319,15.2256879 404.15231,15.4687627 403.835018,15.4359669 C403.556156,15.4070294 403.353168,15.1610609 403.353168,14.8861549 L403.353168,14.3488824 C403.353168,14.2466366 403.269411,14.1646471 403.16496,14.1646471 L402.580631,14.1646471 C402.269251,14.1646471 402.020935,13.9013161 402.054438,13.5897559 C402.084,13.316779 402.336257,13.1190396 402.616104,13.1190396 L403.16496,13.1190396 C403.269411,13.1190396 403.353168,13.0360855 403.353168,12.9348043 L403.353168,12.3618423 C403.353168,12.0579988 403.622176,11.8139594 403.940454,11.8477198 C404.219316,11.8766573 404.421319,12.1235904 404.421319,12.3975319 L404.421319,12.9348043 C404.421319,13.0360855 404.506061,13.1190396 404.609526,13.1190396 L405.170207,13.1190396 C405.443157,13.1190396 405.689501,13.3109915 405.720048,13.5762517 C405.755522,13.8878119 405.507206,14.1646471 405.194841,14.1646471 L405.194841,14.1646471 Z M411.96538,15.1089734 C411.137661,15.1089734 410.466618,14.4520927 410.466618,13.6418434 C410.466618,12.831594 411.137661,12.1747133 411.96538,12.1747133 C412.793098,12.1747133 413.463156,12.831594 413.463156,13.6418434 C413.463156,14.4520927 412.793098,15.1089734 411.96538,15.1089734 L411.96538,15.1089734 Z" id="gamepad"></path>
            </g>
        </g>
    </g>
</svg>