<?xml version="1.0" encoding="UTF-8" standalone="no"?>
<svg width="18px" height="23px" viewBox="0 0 18 23" version="1.1" xmlns="http://www.w3.org/2000/svg" xmlns:xlink="http://www.w3.org/1999/xlink">
    <!-- Generator: Sketch 41.2 (35397) - http://www.bohemiancoding.com/sketch -->
    <title>group</title>
    <desc>Created with Sketch.</desc>
    <defs></defs>
    <g id="Page-1" stroke="none" stroke-width="1" fill="none" fill-rule="evenodd">
        <g id="680x680" transform="translate(-531.000000, -449.000000)" fill="#231F1F">
            <g id="Row-6" transform="translate(48.000000, 449.000000)">
                <path d="M494.958,3.016 C494.958,4.682 493.607,6.033 491.942,6.033 C490.276,6.033 488.925,4.682 488.925,3.016 C488.925,1.35 490.276,0 491.942,0 C493.607,0 494.958,1.35 494.958,3.016 L494.958,3.016 Z M487.134,8.569 L487.649,14.293 C487.689,14.734 488.05,15.077 488.492,15.095 L488.873,15.11 C489.178,15.123 489.424,15.363 489.443,15.668 L489.904,21.678 C489.939,22.131 490.317,22.481 490.772,22.481 L493.133,22.481 C493.588,22.481 493.967,22.131 494.001,21.677 L494.459,15.663 C494.48,15.36 494.725,15.122 495.028,15.11 L495.407,15.094 C495.842,15.076 496.197,14.738 496.236,14.304 L496.748,8.569 C496.748,7.806 496.129,7.186 495.365,7.186 L488.518,7.186 C487.754,7.186 487.134,7.806 487.134,8.569 L487.134,8.569 Z M497.948,8.569 L497.431,14.41 C497.354,15.266 496.757,15.968 495.965,16.207 C495.773,16.265 495.598,16.466 495.581,16.666 L495.294,19.868 C495.26,20.247 495.559,20.573 495.939,20.573 L497.706,20.573 C498.105,20.573 498.437,20.266 498.467,19.867 L498.869,14.59 C498.888,14.324 499.103,14.116 499.369,14.105 L499.701,14.091 C500.083,14.075 500.394,13.778 500.428,13.397 L500.878,8.365 C500.878,7.695 500.334,7.152 499.664,7.152 L498.25,7.152 C497.936,7.152 497.716,7.459 497.815,7.757 C497.901,8.012 497.948,8.285 497.948,8.569 L497.948,8.569 Z M496.301,0.873 C495.978,0.92 495.783,1.256 495.899,1.561 C496.381,2.822 496.216,4.145 495.523,5.235 C495.347,5.512 495.485,5.878 495.794,5.988 C497.602,6.628 499.503,5.181 499.311,3.226 C499.168,1.764 497.816,0.653 496.301,0.873 L496.301,0.873 Z M486.062,7.757 C486.162,7.459 485.941,7.152 485.627,7.152 L484.214,7.152 C483.543,7.152 483,7.695 483,8.365 L483.449,13.397 C483.483,13.778 483.794,14.075 484.177,14.091 L484.509,14.105 C484.775,14.116 484.99,14.324 485.008,14.59 L485.41,19.867 C485.44,20.266 485.772,20.573 486.172,20.573 L487.938,20.573 C488.319,20.573 488.617,20.247 488.583,19.868 L488.297,16.666 C488.279,16.466 488.104,16.265 487.912,16.207 C487.12,15.968 486.523,15.266 486.446,14.41 L485.929,8.569 C485.929,8.285 485.976,8.012 486.062,7.757 L486.062,7.757 Z M484.566,3.226 C484.375,5.181 486.276,6.628 488.083,5.988 C488.393,5.878 488.53,5.512 488.354,5.235 C487.661,4.145 487.496,2.822 487.978,1.561 C488.095,1.256 487.899,0.92 487.577,0.873 C486.062,0.653 484.709,1.764 484.566,3.226 L484.566,3.226 Z" id="group"></path>
            </g>
        </g>
    </g>
</svg>