<?xml version="1.0" encoding="UTF-8" standalone="no"?>
<svg width="24px" height="19px" viewBox="0 0 24 19" version="1.1" xmlns="http://www.w3.org/2000/svg" xmlns:xlink="http://www.w3.org/1999/xlink">
    <!-- Generator: Sketch 41.2 (35397) - http://www.bohemiancoding.com/sketch -->
    <title>heart</title>
    <desc>Created with Sketch.</desc>
    <defs></defs>
    <g id="Page-1" stroke="none" stroke-width="1" fill="none" fill-rule="evenodd">
        <g id="680x680" transform="translate(-609.000000, -130.000000)" fill="#000000">
            <g id="Row-2" transform="translate(52.000000, 127.000000)">
                <path d="M570.281,21.552 C569.579,22.191 568.509,22.187 567.809,21.546 C564.491,18.501 561.912,15.889 559.509,13.085 C557.028,10.604 557.28,6.425 560.265,4.289 C561.978,3.063 564.297,2.928 566.182,3.87 C567.269,4.413 568.031,5.19 568.54,6.075 C568.763,6.464 569.324,6.459 569.548,6.07 C570.093,5.123 570.929,4.3 572.144,3.755 C573.72,3.049 575.58,3.081 577.116,3.871 C580.781,5.755 581.168,10.555 578.506,13.217 C575.715,16.411 572.918,19.151 570.281,21.552" id="heart"></path>
            </g>
        </g>
    </g>
</svg>