<?xml version="1.0" encoding="UTF-8" standalone="no"?>
<svg width="18px" height="19px" viewBox="0 0 18 19" version="1.1" xmlns="http://www.w3.org/2000/svg" xmlns:xlink="http://www.w3.org/1999/xlink">
    <!-- Generator: Sketch 41.2 (35397) - http://www.bohemiancoding.com/sketch -->
    <title>home</title>
    <desc>Created with Sketch.</desc>
    <defs></defs>
    <g id="Page-1" stroke="none" stroke-width="1" fill="none" fill-rule="evenodd">
        <g id="680x680" transform="translate(-371.000000, -129.000000)" fill="#000000">
            <g id="Row-2" transform="translate(52.000000, 127.000000)">
                <path d="M328.951,3.145 L336.458,9.002 C336.772,9.247 336.956,9.624 336.956,10.023 L336.956,19.53 C336.956,20.245 336.376,20.825 335.661,20.825 L332.061,20.825 C331.346,20.825 330.766,20.245 330.766,19.53 L330.766,15.139 C330.766,14.424 330.186,13.844 329.47,13.844 L326.514,13.844 C325.799,13.844 325.219,14.424 325.219,15.139 L325.219,19.53 C325.219,20.245 324.639,20.825 323.923,20.825 L320.347,20.825 C319.632,20.825 319.052,20.245 319.052,19.53 L319.052,10.023 C319.052,9.624 319.236,9.247 319.55,9.002 L327.057,3.145 C327.614,2.711 328.394,2.711 328.951,3.145" id="home"></path>
            </g>
        </g>
    </g>
</svg>