<?xml version="1.0" encoding="UTF-8" standalone="no"?>
<svg width="25px" height="22px" viewBox="0 0 25 22" version="1.1" xmlns="http://www.w3.org/2000/svg" xmlns:xlink="http://www.w3.org/1999/xlink">
    <!-- Generator: Sketch 41.2 (35397) - http://www.bohemiancoding.com/sketch -->
    <title>inbox</title>
    <desc>Created with Sketch.</desc>
    <defs></defs>
    <g id="Page-1" stroke="none" stroke-width="1" fill="none" fill-rule="evenodd">
        <g id="680x680" transform="translate(-288.000000, -449.000000)" fill="#231F1F">
            <g id="Row-6" transform="translate(59.000000, 449.000000)">
                <path d="M253.003243,14.6 L249.402243,10.355 C249.210243,10.13 248.930243,10 248.634243,10 L247.405243,10 C247.239243,10 247.083243,10.078 246.983243,10.21 L246.588243,10.731 C246.439243,10.928 246.579243,11.211 246.826243,11.211 L247.545243,11.211 C247.794243,11.211 248.028243,11.332 248.171243,11.536 L250.506243,14.861 C250.704243,15.143 250.503243,15.529 250.159243,15.529 L247.066243,15.529 C246.438243,15.529 245.891243,15.958 245.742243,16.568 L245.314243,18.32 C245.201243,18.782 244.787243,19.106 244.311243,19.106 L238.363243,19.106 C237.886243,19.106 237.471243,18.779 237.360243,18.314 L236.945243,16.576 C236.798243,15.962 236.250243,15.529 235.619243,15.529 L232.519243,15.529 C232.176243,15.529 231.974243,15.143 232.171243,14.862 L234.496243,11.537 C234.639243,11.333 234.873243,11.211 235.123243,11.211 L235.866243,11.211 C236.121243,11.211 236.259243,10.911 236.092243,10.717 L235.634243,10.184 C235.533243,10.067 235.387243,10 235.232243,10 L234.086243,10 C233.791243,10 233.511243,10.129 233.320243,10.353 L229.688243,14.612 C229.131243,15.265 228.895243,16.133 229.043243,16.979 L229.617243,20.252 C229.764243,21.089 230.491243,21.699 231.340243,21.699 L251.312243,21.699 C252.155243,21.699 252.878243,21.098 253.032243,20.269 L253.639243,16.988 C253.797243,16.137 253.563243,15.26 253.003243,14.6 Z M246.742243,7.164 L244.759243,7.164 C244.272243,7.164 243.876243,6.769 243.876243,6.281 L243.876243,1.466 C243.876243,0.943 243.452243,0.52 242.930243,0.52 L239.784243,0.52 C239.261243,0.52 238.838243,0.943 238.838243,1.466 L238.838243,6.281 C238.838243,6.769 238.442243,7.164 237.954243,7.164 L235.944243,7.164 C235.393243,7.164 235.091243,7.808 235.445243,8.232 L240.667243,14.496 C241.019243,14.918 241.668243,14.918 242.020243,14.496 L247.242243,8.232 C247.595243,7.808 247.294243,7.164 246.742243,7.164 Z" id="inbox"></path>
            </g>
        </g>
    </g>
</svg>