<?xml version="1.0" encoding="UTF-8" standalone="no"?>
<svg width="10px" height="22px" viewBox="0 0 10 22" version="1.1" xmlns="http://www.w3.org/2000/svg" xmlns:xlink="http://www.w3.org/1999/xlink">
    <!-- Generator: Sketch 41.2 (35397) - http://www.bohemiancoding.com/sketch -->
    <title>info</title>
    <desc>Created with Sketch.</desc>
    <defs></defs>
    <g id="Page-1" stroke="none" stroke-width="1" fill="none" fill-rule="evenodd">
        <g id="680x680" transform="translate(-58.000000, -450.000000)" fill="#231F1F">
            <g id="Row-6" transform="translate(59.000000, 449.000000)">
                <path d="M6.833,1 C5.068,1 4,2.461 4,3.753 C4,5.045 4.892,5.787 6.115,5.787 C7.339,5.787 8.983,4.795 8.983,3.097 C8.983,1.399 7.451,1 6.833,1 Z M8.681,18.376 C8.857,18.618 8.829,18.963 8.606,19.162 C6.792,20.779 4.666,21.942 3.431,22.254 C2.108,22.588 1.046,22.482 0.942,20.96 C0.838,19.437 2.614,12.922 2.728,12.233 C2.824,11.652 1.55,12.254 0.495,12.814 C0.188,12.977 -0.196,12.84 -0.345,12.527 C-0.47,12.266 -0.394,11.953 -0.162,11.779 C1.66,10.411 3.935,9.117 5.863,8.604 C6.971,8.309 7.609,8.67 7.647,10.024 C7.685,11.378 5.856,17.569 5.714,18.403 C5.506,19.628 6.893,18.864 7.898,18.229 C8.158,18.065 8.499,18.128 8.681,18.376 Z" id="info"></path>
            </g>
        </g>
    </g>
</svg>