<?xml version="1.0" encoding="UTF-8" standalone="no"?>
<svg width="24px" height="24px" viewBox="0 0 24 24" version="1.1" xmlns="http://www.w3.org/2000/svg" xmlns:xlink="http://www.w3.org/1999/xlink">
    <!-- Generator: Sketch 41.2 (35397) - http://www.bohemiancoding.com/sketch -->
    <title>infocircle</title>
    <desc>Created with Sketch.</desc>
    <defs></defs>
    <g id="Page-1" stroke="none" stroke-width="1" fill="none" fill-rule="evenodd">
        <g id="680x680" transform="translate(-131.000000, -449.000000)" fill="#231F1F">
            <g id="Row-6" transform="translate(59.000000, 449.000000)">
                <path d="M83.535,0 C77.165,0 72,5.164 72,11.535 C72,17.905 77.165,23.07 83.535,23.07 C89.906,23.07 95.071,17.905 95.071,11.535 C95.071,5.164 89.906,0 83.535,0 L83.535,0 Z M86.127,16.342 C84.938,17.402 83.544,18.164 82.735,18.368 C81.868,18.587 81.172,18.518 81.104,17.52 C81.036,16.522 82.2,12.252 82.274,11.801 C82.337,11.42 81.502,11.815 80.811,12.182 C80.61,12.288 80.358,12.199 80.26,11.994 C80.179,11.823 80.228,11.617 80.38,11.503 C81.575,10.607 83.065,9.759 84.329,9.423 C85.055,9.229 85.473,9.466 85.498,10.353 C85.523,11.241 84.324,15.298 84.231,15.845 C84.095,16.647 85.004,16.147 85.663,15.731 C85.833,15.623 86.057,15.664 86.176,15.827 C86.291,15.985 86.273,16.212 86.127,16.342 L86.127,16.342 Z M84.494,7.576 C83.692,7.576 83.108,7.09 83.108,6.243 C83.108,5.397 83.808,4.439 84.964,4.439 C85.37,4.439 86.374,4.701 86.374,5.814 C86.374,6.927 85.296,7.576 84.494,7.576 L84.494,7.576 Z" id="infocircle"></path>
            </g>
        </g>
    </g>
</svg>