<?xml version="1.0" encoding="UTF-8" standalone="no"?>
<svg width="19px" height="19px" viewBox="0 0 19 19" version="1.1" xmlns="http://www.w3.org/2000/svg" xmlns:xlink="http://www.w3.org/1999/xlink">
    <!-- Generator: Sketch 41.2 (35397) - http://www.bohemiancoding.com/sketch -->
    <title>key</title>
    <desc>Created with Sketch.</desc>
    <defs></defs>
    <g id="Page-1" stroke="none" stroke-width="1" fill="none" fill-rule="evenodd">
        <g id="680x680" transform="translate(-372.000000, -51.000000)" fill="#231F1F">
            <g id="Row-1" transform="translate(52.000000, 48.000000)">
                <path d="M328.225193,16.4342827 C329.276193,15.3832827 330.311193,15.0122827 331.515193,15.2472827 C333.545193,15.6442827 335.735193,15.0432827 337.265193,13.4042827 C339.500193,11.0102827 339.462193,7.2322827 337.182193,4.8802827 C334.772193,2.3962827 330.803193,2.3732827 328.365193,4.8122827 C326.834193,6.3422827 326.275193,8.4752827 326.685193,10.4472827 C326.908193,11.5182827 326.574193,12.6292827 325.801193,13.4022827 L320.586193,18.6162827 C319.847193,19.3562827 319.792193,20.5612827 320.505193,21.3272827 C321.253193,22.1302827 322.512193,22.1472827 323.282193,21.3772827 L323.784193,20.8752827 C323.924193,20.7352827 324.002193,20.5462827 324.002193,20.3482827 L324.009193,19.9892827 C324.012193,19.8132827 324.083193,19.6452827 324.208193,19.5202827 L325.077193,18.6512827 C325.204193,18.5242827 325.375193,18.4532827 325.554193,18.4522827 L325.901193,18.4492827 C326.099193,18.4492827 326.288193,18.3712827 326.428193,18.2312827 C326.568193,18.0912827 326.738193,17.8102827 326.738193,17.6122827 L326.738193,17.2222827 C326.738193,16.9072827 326.993193,16.6522827 327.308193,16.6522827 L327.698193,16.6522827 C327.896193,16.6522827 328.086193,16.5732827 328.225193,16.4342827 L328.225193,16.4342827 Z M332.266193,9.6592827 C331.510193,8.9022827 331.510193,7.6752827 332.266193,6.9192827 C333.023193,6.1622827 334.250193,6.1622827 335.007193,6.9192827 C335.763193,7.6752827 335.763193,8.9022827 335.007193,9.6592827 C334.250193,10.4152827 333.023193,10.4152827 332.266193,9.6592827 L332.266193,9.6592827 Z" id="key"></path>
            </g>
        </g>
    </g>
</svg>