<?xml version="1.0" encoding="UTF-8" standalone="no"?>
<svg width="21px" height="21px" viewBox="0 0 21 21" version="1.1" xmlns="http://www.w3.org/2000/svg" xmlns:xlink="http://www.w3.org/1999/xlink">
    <!-- Generator: Sketch 41.2 (35397) - http://www.bohemiancoding.com/sketch -->
    <title>leadscanning</title>
    <desc>Created with Sketch.</desc>
    <defs></defs>
    <g id="Page-1" stroke="none" stroke-width="1" fill="none" fill-rule="evenodd">
        <g id="Artboard-3" transform="translate(-28.000000, -67.000000)" fill="#231F1F">
            <path d="M34.6332805,67.9277384 C34.6332805,67.415376 34.2179045,67 33.7045624,67 L31.4738757,67 C29.5625583,67 28.0127356,68.5498227 28.0127356,70.4611401 L28.0127356,72.6928065 C28.0127356,73.2061485 28.4281116,73.6215245 28.9414536,73.6215245 C29.453816,73.6215245 29.8878056,73.2061485 29.8878056,72.6928065 L29.8878056,70.423913 C29.8878056,69.5784661 30.5735678,68.8936835 31.4190147,68.8936835 L33.7045624,68.8936835 C34.2179045,68.8936835 34.6332805,68.4410804 34.6332805,67.9277384 Z M28.928718,81.3667195 C28.4163557,81.3667195 28,81.7820955 28,82.2954376 L28,84.5261243 C28,86.4374417 29.5498227,87.9872644 31.4611401,87.9872644 L33.6937862,87.9872644 C34.2061485,87.9872644 34.6215245,87.5718884 34.6215245,87.0585464 C34.6215245,86.546184 34.2061485,86.1121944 33.6937862,86.1121944 L31.4248927,86.1121944 C30.5794458,86.1121944 29.8936835,85.4264322 29.8936835,84.5809853 L29.8936835,82.2954376 C29.8936835,81.7820955 29.4410804,81.3667195 28.928718,81.3667195 Z M42.3676992,87.071282 C42.3676992,87.5836443 42.7830752,88 43.2954376,88 L45.5271039,88 C47.4384213,88 48.9872644,86.4501773 48.9872644,84.5388599 L48.9872644,82.3062138 C48.9872644,81.7938515 48.5718884,81.3784755 48.059526,81.3784755 C47.5471636,81.3784755 47.1121944,81.7938515 47.1121944,82.3062138 L47.1121944,84.576087 C47.1121944,85.4205542 46.4274118,86.1063165 45.5819649,86.1063165 L43.2954376,86.1063165 C42.7830752,86.1063165 42.3676992,86.5589196 42.3676992,87.071282 Z M48.0722616,73.6332805 C48.584624,73.6332805 49,73.2169248 49,72.7045624 L49,70.4738757 C49,68.5615787 47.4501773,67.0127356 45.5388599,67.0127356 L43.3071935,67.0127356 C42.7938515,67.0127356 42.3784755,67.4281116 42.3784755,67.940474 C42.3784755,68.4528364 42.7938515,68.8878056 43.3071935,68.8878056 L45.576087,68.8878056 C46.4215339,68.8878056 47.1063165,69.5725882 47.1063165,70.4180351 L47.1063165,72.7045624 C47.1063165,73.2169248 47.5589196,73.6332805 48.0722616,73.6332805 Z M42.0417988,81.3283766 C42.0417988,82.0723235 41.4976701,82.6745662 40.8239869,82.6745662 L34.1145897,82.6745662 C33.4439548,82.6745662 32.8983019,82.0723235 32.8983019,81.3283766 C32.8983019,80.5844297 33.4439548,79.9805001 34.1145897,79.9805001 L40.8239869,79.9805001 C41.4976701,79.9805001 42.0417988,80.5844297 42.0417988,81.3283766 Z M44.6542265,73.2461784 C44.6542265,73.9901253 44.1896476,74.592368 43.6173589,74.592368 L33.9338718,74.592368 C33.3628809,74.592368 32.8983019,73.9901253 32.8983019,73.2461784 C32.8983019,72.5022316 33.3628809,71.8983019 33.9338718,71.8983019 L43.6173589,71.8983019 C44.1896476,71.8983019 44.6542265,72.5022316 44.6542265,73.2461784 Z M43.6173589,78.6334671 L33.9338718,78.6334671 C33.3628809,78.6334671 32.8983019,78.0299153 32.8983019,77.286434 C32.8983019,76.5429527 33.3628809,75.939401 33.9338718,75.939401 L43.6173589,75.939401 C44.1896476,75.939401 44.6542265,76.5429527 44.6542265,77.286434 C44.6542265,78.0299153 44.1896476,78.6334671 43.6173589,78.6334671 Z" id="leadscanning"></path>
        </g>
    </g>
</svg>