<?xml version="1.0" encoding="UTF-8" standalone="no"?>
<svg width="14px" height="24px" viewBox="0 0 14 24" version="1.1" xmlns="http://www.w3.org/2000/svg" xmlns:xlink="http://www.w3.org/1999/xlink">
    <!-- Generator: Sketch 41.2 (35397) - http://www.bohemiancoding.com/sketch -->
    <title>lightbulb</title>
    <desc>Created with Sketch.</desc>
    <defs></defs>
    <g id="Page-1" stroke="none" stroke-width="1" fill="none" fill-rule="evenodd">
        <g id="680x680" transform="translate(-613.000000, -50.000000)" fill="#231F1F">
            <g id="Row-1" transform="translate(53.000000, 49.000000)">
                <path d="M566.723,18.0666385 L569.062,18.0666385 C569.58,18.0666385 569.981,17.7718712 570.122,17.0484392 C570.575,12.5122987 573.412,10.888189 573.412,7.37602754 C573.412,3.86386613 570.356,1 566.706,1 C563.057,1 560,3.86386613 560,7.37602754 C560,10.888189 562.838,12.5122987 563.291,17.0484392 C563.432,17.7718712 563.833,18.0666385 564.351,18.0666385 L566.723,18.0666385 Z M564.281,23.2298818 C564.174,23.1980932 564.075,23.141259 563.993,23.0574526 C563.744,22.8021803 563.77,22.3956712 564.027,22.1481053 C564.177,22.0036115 564.157,21.7406329 564.007,21.5961391 C563.748,21.3466466 563.748,20.9420641 564.007,20.6925715 C564.163,20.542298 564.163,20.2850992 564.007,20.1348257 C563.746,19.8834065 563.748,19.4730443 564.014,19.224515 C564.135,19.1108466 564.293,19.0530491 564.453,19.0482327 L564.453,19.0472694 L568.945,19.0472694 L568.945,19.0482327 C569.11,19.0501593 569.273,19.1079568 569.398,19.224515 C569.664,19.4730443 569.666,19.8834065 569.405,20.1348257 C569.249,20.2850992 569.249,20.542298 569.405,20.6925715 C569.664,20.9420641 569.664,21.3466466 569.405,21.5961391 C569.255,21.7406329 569.235,22.0036115 569.385,22.1481053 C569.642,22.3956712 569.668,22.8021803 569.419,23.0574526 C569.338,23.1402957 569.239,23.1980932 569.134,23.2289185 L569.135,23.2298818 L568.166,23.4427693 C567.91,23.4870807 567.674,23.6681795 567.518,23.9061125 C567.361,24.1440456 567.045,24.3684925 566.709,24.3684925 C566.373,24.3684925 566.054,24.1440456 565.898,23.9061125 C565.741,23.6681795 565.506,23.4870807 565.249,23.4427693 L564.281,23.2298818 Z" id="lightbulb"></path>
            </g>
        </g>
    </g>
</svg>