<svg width="13" height="12" viewBox="0 0 13 12" xmlns="http://www.w3.org/2000/svg"><title>694267D7-A628-40AB-B38A-452C26C95F47</title><path d="M.7 6c0-3.308 2.691-6 6-6 3.308 0 6 2.692 6 6s-2.692 6-6 6c-3.309 0-6-2.692-6-6zm6-5.32A5.327 5.327 0 0 0 1.378 6a5.327 5.327 0 0 0 5.32 5.32A5.327 5.327 0 0 0 12.02 6 5.327 5.327 0 0 0 6.7.68zm0 9.205c-1.518 0-2.967-1.057-3.3-2.405a.34.34 0 0 1 .33-.421H9.67a.34.34 0 0 1 .33.42c-.333 1.35-1.782 2.406-3.3 2.406zM4.217 7.738c.428.84 1.45 1.467 2.481 1.467 1.033 0 2.054-.628 2.482-1.467H4.218zm4.775-2.644a.737.737 0 1 1 .001-1.474.737.737 0 0 1-.001 1.474zm-4.587 0a.737.737 0 0 1 0-1.472.737.737 0 0 1 0 1.472z" fill="#8A8A8A" fill-rule="evenodd"/></svg>