<?xml version="1.0" encoding="UTF-8" standalone="no"?>
<svg width="20px" height="19px" viewBox="0 0 20 19" version="1.1" xmlns="http://www.w3.org/2000/svg" xmlns:xlink="http://www.w3.org/1999/xlink">
    <!-- Generator: Sketch 41.2 (35397) - http://www.bohemiancoding.com/sketch -->
    <title>list-th-lg</title>
    <desc>Created with Sketch.</desc>
    <defs></defs>
    <g id="Page-1" stroke="none" stroke-width="1" fill="none" fill-rule="evenodd">
        <g id="680x680" transform="translate(-610.000000, -530.000000)" fill="#000000">
            <g id="Row-7" transform="translate(49.000000, 529.000000)">
                <path d="M567.702141,20 L562.297859,20 C561.581441,20 561,19.4185594 561,18.7021415 L561,13.2978585 C561,12.5805754 561.581441,12 562.297859,12 L567.702141,12 C568.419425,12 569,12.5805754 569,13.2978585 L569,18.7021415 C569,19.4185594 568.419425,20 567.702141,20 Z M567.702141,10 L562.297859,10 C561.581441,10 561,9.41855938 561,8.70214147 L561,3.29785853 C561,2.58057538 561.581441,2 562.297859,2 L567.702141,2 C568.419425,2 569,2.58057538 569,3.29785853 L569,8.70214147 C569,9.41855938 568.419425,10 567.702141,10 Z M579.706116,19.991 L572.293884,19.991 C571.57966,19.991 571,19.4303771 571,18.7396096 L571,18.2423904 C571,17.5516229 571.57966,16.991 572.293884,16.991 L579.706116,16.991 C580.42034,16.991 581,17.5516229 581,18.2423904 L581,18.7396096 C581,19.4303771 580.42034,19.991 579.706116,19.991 Z M579.706116,14.991 L572.293884,14.991 C571.57966,14.991 571,14.4303771 571,13.7396096 L571,13.2423904 C571,12.5516229 571.57966,11.991 572.293884,11.991 L579.706116,11.991 C580.42034,11.991 581,12.5516229 581,13.2423904 L581,13.7396096 C581,14.4303771 580.42034,14.991 579.706116,14.991 Z M579.706116,9.991 L572.293884,9.991 C571.57966,9.991 571,9.43037709 571,8.73960957 L571,8.24239043 C571,7.55162291 571.57966,6.991 572.293884,6.991 L579.706116,6.991 C580.42034,6.991 581,7.55162291 581,8.24239043 L581,8.73960957 C581,9.43037709 580.42034,9.991 579.706116,9.991 Z M579.706116,4.991 L572.293884,4.991 C571.57966,4.991 571,4.43037709 571,3.73960957 L571,3.24239043 C571,2.55162291 571.57966,1.991 572.293884,1.991 L579.706116,1.991 C580.42034,1.991 581,2.55162291 581,3.24239043 L581,3.73960957 C581,4.43037709 580.42034,4.991 579.706116,4.991 Z" id="list-th-lg"></path>
            </g>
        </g>
    </g>
</svg>