<?xml version="1.0" encoding="UTF-8" standalone="no"?>
<svg width="20px" height="18px" viewBox="0 0 20 18" version="1.1" xmlns="http://www.w3.org/2000/svg" xmlns:xlink="http://www.w3.org/1999/xlink">
    <!-- Generator: Sketch 41.2 (35397) - http://www.bohemiancoding.com/sketch -->
    <title>listbullet</title>
    <desc>Created with Sketch.</desc>
    <defs></defs>
    <g id="Page-1" stroke="none" stroke-width="1" fill="none" fill-rule="evenodd">
        <g id="680x680" transform="translate(-370.000000, -611.000000)" fill="#000000">
            <g id="Row-8" transform="translate(50.000000, 609.000000)">
                <path d="M327.413761,6 C326.633365,6 326,5.25527192 326,4.33518313 L326,3.66481687 C326,2.74472808 326.633365,2 327.413761,2 L338.586239,2 C339.367578,2 340,2.74472808 340,3.66481687 L340,4.33518313 C340,5.25527192 339.367578,6 338.586239,6 L327.413761,6 Z M322,6 C323.104569,6 324,5.1045695 324,4 C324,2.8954305 323.104569,2 322,2 C320.895431,2 320,2.8954305 320,4 C320,5.1045695 320.895431,6 322,6 Z M327.413761,13 C326.633365,13 326,12.2552719 326,11.3351831 L326,10.6648169 C326,9.74472808 326.633365,9 327.413761,9 L338.586239,9 C339.367578,9 340,9.74472808 340,10.6648169 L340,11.3351831 C340,12.2552719 339.367578,13 338.586239,13 L327.413761,13 Z M322,13 C323.104569,13 324,12.1045695 324,11 C324,9.8954305 323.104569,9 322,9 C320.895431,9 320,9.8954305 320,11 C320,12.1045695 320.895431,13 322,13 Z M327.413761,20 C326.633365,20 326,19.2552719 326,18.3351831 L326,17.6648169 C326,16.7447281 326.633365,16 327.413761,16 L338.586239,16 C339.367578,16 340,16.7447281 340,17.6648169 L340,18.3351831 C340,19.2552719 339.367578,20 338.586239,20 L327.413761,20 Z M322,20 C323.104569,20 324,19.1045695 324,18 C324,16.8954305 323.104569,16 322,16 C320.895431,16 320,16.8954305 320,18 C320,19.1045695 320.895431,20 322,20 Z" id="listbullet"></path>
            </g>
        </g>
    </g>
</svg>