<?xml version="1.0" encoding="UTF-8"?>
<svg width="16px" height="20px" viewBox="0 0 16 20" version="1.1" xmlns="http://www.w3.org/2000/svg" xmlns:xlink="http://www.w3.org/1999/xlink">
    <!-- Generator: Sketch 40 (33762) - http://www.bohemiancoding.com/sketch -->
    <title>loading_old</title>
    <desc>Created with Sketch.</desc>
    <defs></defs>
    <g id="Page-1" stroke="none" stroke-width="1" fill="none" fill-rule="evenodd">
        <g id="loading_old" transform="translate(8.000000, 10.000000) scale(-1, 1) translate(-8.000000, -10.000000) " fill="#000000">
            <g id="Page-1">
                <g id="Artboard-3">
                    <path d="M9.1631787,2.165701 C12.9920357,2.4767 16,5.621568 16,9.456254 C16,10.954087 15.5376922,12.344379 14.7493981,13.503117 C14.3779713,14.047607 13.6015313,14.15418 13.057233,13.775362 L13.0364884,13.761798 C12.5040441,13.3917 12.3608077,12.674755 12.7203805,12.140922 C13.0493303,11.653593 13.2893747,11.107165 13.41483,10.52392 C14.0411188,7.61545 12.0328458,5.025729 9.2935732,4.617846 C8.9033775,4.560684 8.5497318,4.861026 8.5497318,5.247595 L8.5497318,6.355952 C8.5497318,6.633042 8.2257212,6.790963 8.0004943,6.623353 L4.2536277,3.841801 C3.9147996,3.590871 3.9157874,3.091916 4.2546156,2.840985 L8.0004943,0.068153 C8.226709,-0.098488 8.5497318,0.059433 8.5497318,0.336523 L8.5497318,1.53789 C8.5497318,1.875048 8.821387,2.137604 9.1631787,2.165701 L9.1631787,2.165701 Z M6.8368213,17.834299 C3.0079643,17.5233 0,14.378432 0,10.543746 C0,9.045913 0.4623078,7.655621 1.2506019,6.496883 C1.6220287,5.952393 2.3984687,5.84582 2.942767,6.224638 L2.9635116,6.238202 C3.4959559,6.6083 3.6391923,7.325245 3.2796195,7.859078 C2.9506697,8.346407 2.7106253,8.892835 2.58517,9.47608 C1.9588812,12.38455 3.9671542,14.974271 6.7064268,15.382154 C7.0966225,15.439316 7.4502682,15.138974 7.4502682,14.752405 L7.4502682,13.644048 C7.4502682,13.366958 7.7742788,13.209037 7.9995057,13.376647 L11.7463723,16.158199 C12.0852004,16.409129 12.0842126,16.908084 11.7453844,17.159015 L7.9995057,19.931847 C7.773291,20.098488 7.4502682,19.940567 7.4502682,19.663477 L7.4502682,18.46211 C7.4502682,18.124952 7.178613,17.862396 6.8368213,17.834299 L6.8368213,17.834299 Z" id="loading" transform="translate(8.000000, 10.000000) scale(-1, 1) translate(-8.000000, -10.000000) "></path>
                </g>
            </g>
        </g>
    </g>
</svg>