<?xml version="1.0" encoding="UTF-8" standalone="no"?>
<svg width="18px" height="23px" viewBox="0 0 18 23" version="1.1" xmlns="http://www.w3.org/2000/svg" xmlns:xlink="http://www.w3.org/1999/xlink">
    <!-- Generator: Sketch 41.2 (35397) - http://www.bohemiancoding.com/sketch -->
    <title>location</title>
    <desc>Created with Sketch.</desc>
    <defs></defs>
    <g id="Page-1" stroke="none" stroke-width="1" fill="none" fill-rule="evenodd">
        <g id="680x680" transform="translate(-212.000000, -528.000000)" fill="#231F1F">
            <g id="Row-7" transform="translate(53.000000, 527.000000)">
                <path d="M167.969,1.765 C163.351,1.765 159.608,5.508 159.608,10.125 C159.608,16.5 166.375,23.404 167.996,23.404 C169.617,23.404 176.329,16.5 176.329,10.125 C176.329,5.508 172.586,1.765 167.969,1.765 L167.969,1.765 Z M167.969,14 C165.846,14 164.125,12.279 164.125,10.156 C164.125,8.033 165.846,6.312 167.969,6.312 C170.092,6.312 171.813,8.033 171.813,10.156 C171.813,12.279 170.092,14 167.969,14 L167.969,14 Z" id="location"></path>
            </g>
        </g>
    </g>
</svg>