<?xml version="1.0" encoding="UTF-8" standalone="no"?>
<svg width="16px" height="22px" viewBox="0 0 16 22" version="1.1" xmlns="http://www.w3.org/2000/svg" xmlns:xlink="http://www.w3.org/1999/xlink">
    <!-- Generator: Sketch 41.2 (35397) - http://www.bohemiancoding.com/sketch -->
    <title>lockedalt</title>
    <desc>Created with Sketch.</desc>
    <defs></defs>
    <g id="Page-1" stroke="none" stroke-width="1" fill="none" fill-rule="evenodd">
        <g id="680x680" transform="translate(-294.000000, -50.000000)" fill="#231F1F">
            <g id="Row-1" transform="translate(52.000000, 48.000000)">
                <path d="M256.493,10.8846767 C256.134,10.8336767 255.846,10.5686767 255.846,10.2056767 L255.846,8.10467667 C255.846,4.89667667 253.374,2.09867667 250.167,2.00267667 C246.849,1.90367667 244.128,4.56367667 244.128,7.85967667 L244.128,10.2026767 C244.128,10.5686767 243.836,10.8346767 243.474,10.8836767 C242.642,10.9956767 242,11.7086767 242,12.5726767 L242,22.1146767 C242,23.0556767 242.763,23.8186767 243.704,23.8186767 L256.288,23.8186767 C257.229,23.8186767 257.992,23.0556767 257.992,22.1146767 L257.992,12.5726767 C257.992,11.7136767 257.325,11.0036767 256.493,10.8846767 L256.493,10.8846767 Z M246.94,7.79967667 C246.94,6.07067667 248.386,4.68067667 250.134,4.77267667 C251.774,4.85767667 253.003,6.32967667 253.003,7.97067667 L253.003,10.1256767 C253.003,10.5356767 252.67,10.8676767 252.261,10.8676767 L247.682,10.8676767 C247.272,10.8676767 246.94,10.5356767 246.94,10.1256767 L246.94,7.79967667 L246.94,7.79967667 Z" id="lockedalt"></path>
            </g>
        </g>
    </g>
</svg>