<?xml version="1.0" encoding="UTF-8" standalone="no"?>
<svg width="17px" height="22px" viewBox="0 0 17 22" version="1.1" xmlns="http://www.w3.org/2000/svg" xmlns:xlink="http://www.w3.org/1999/xlink">
    <!-- Generator: Sketch 41.2 (35397) - http://www.bohemiancoding.com/sketch -->
    <title>locked</title>
    <desc>Created with Sketch.</desc>
    <defs></defs>
    <g id="Page-1" stroke="none" stroke-width="1" fill="none" fill-rule="evenodd">
        <g id="680x680" transform="translate(-52.000000, -50.000000)" fill="#231F1F">
            <g id="Row-1" transform="translate(52.000000, 48.000000)">
                <path d="M15.465,11.009 C14.778,11.009 14.549,10.674 14.549,10.26 L14.549,8.936 C14.549,5.105 11.714,2 8.218,2 C4.722,2 1.888,5.105 1.888,8.936 L1.888,10.26 C1.888,10.674 1.747,11.009 1.003,11.009 C0.449,11.009 0,11.459 0,12.013 L0,22.505 C0,23.06 0.449,23.509 1.003,23.509 L15.465,23.509 C16.019,23.509 16.468,23.06 16.468,22.505 L16.468,12.013 C16.468,11.459 16.019,11.009 15.465,11.009 L15.465,11.009 Z M9.052,17.193 C8.892,17.303 8.803,17.489 8.803,17.682 L8.803,19.198 C8.803,19.528 8.519,19.793 8.182,19.76 C7.888,19.732 7.673,19.469 7.673,19.174 L7.673,17.688 C7.673,17.494 7.583,17.307 7.422,17.198 C7.034,16.935 6.781,16.489 6.786,15.984 C6.793,15.226 7.408,14.588 8.165,14.553 C8.996,14.514 9.682,15.177 9.682,15.999 C9.682,16.495 9.432,16.932 9.052,17.193 L9.052,17.193 Z M12.294,10.26 C12.294,10.674 11.958,11.009 11.544,11.009 L4.892,11.009 C4.478,11.009 4.142,10.674 4.142,10.26 L4.142,8.635 C4.142,6.232 5.967,4.284 8.218,4.284 C10.469,4.284 12.294,6.232 12.294,8.635 L12.294,10.26 L12.294,10.26 Z" id="locked"></path>
            </g>
        </g>
    </g>
</svg>