<?xml version="1.0" encoding="UTF-8" standalone="no"?>
<svg width="22px" height="22px" viewBox="0 0 22 22" version="1.1" xmlns="http://www.w3.org/2000/svg" xmlns:xlink="http://www.w3.org/1999/xlink">
    <!-- Generator: Sketch 41.2 (35397) - http://www.bohemiancoding.com/sketch -->
    <title>map</title>
    <desc>Created with Sketch.</desc>
    <defs></defs>
    <g id="Page-1" stroke="none" stroke-width="1" fill="none" fill-rule="evenodd">
        <g id="680x680" transform="translate(-529.000000, -213.000000)" fill="#231F1F">
            <g id="Row-3" transform="translate(49.000000, 213.000000)">
                <path d="M485.064,19.6416002 L481.69,21.1246002 C480.893,21.4746002 480,20.8916002 480,20.0216002 L480,3.41160016 C480,2.62060016 480.467,1.90460016 481.191,1.58660016 L484.565,0.103600165 C485.362,-0.247399835 486.255,0.336600165 486.255,1.20660016 L486.255,17.8166002 C486.255,18.6076002 485.788,19.3236002 485.064,19.6416002 L485.064,19.6416002 Z M501.615,17.8166002 L501.615,1.20660016 C501.615,0.336600165 500.721,-0.247399835 499.925,0.103600165 L496.551,1.58660016 C495.827,1.90460016 495.359,2.62060016 495.359,3.41160016 L495.359,20.0216002 C495.359,20.8916002 496.253,21.4746002 497.05,21.1246002 L500.424,19.6416002 C501.148,19.3236002 501.615,18.6076002 501.615,17.8166002 L501.615,17.8166002 Z M488.871,19.6416002 L492.245,21.1246002 C493.041,21.4746002 493.935,20.8916002 493.935,20.0216002 L493.935,3.41160016 C493.935,2.62060016 493.468,1.90460016 492.744,1.58660016 L489.37,0.103600165 C488.573,-0.247399835 487.679,0.336600165 487.679,1.20660016 L487.679,17.8166002 C487.679,18.6076002 488.147,19.3236002 488.871,19.6416002 L488.871,19.6416002 Z" id="map"></path>
            </g>
        </g>
    </g>
</svg>