<?xml version="1.0" encoding="UTF-8" standalone="no"?>
<svg width="14px" height="24px" viewBox="0 0 14 24" version="1.1" xmlns="http://www.w3.org/2000/svg" xmlns:xlink="http://www.w3.org/1999/xlink">
    <!-- Generator: Sketch 41.2 (35397) - http://www.bohemiancoding.com/sketch -->
    <title>microphone</title>
    <desc>Created with Sketch.</desc>
    <defs></defs>
    <g id="Page-1" stroke="none" stroke-width="1" fill="none" fill-rule="evenodd">
        <g id="680x680" transform="translate(-453.000000, -447.000000)" fill="#231F1F">
            <g id="Row-6" transform="translate(50.000000, 447.000000)">
                <path d="M410.066427,15.887 C407.884523,15.8860095 406.037109,14.1843691 406.037109,12.0845568 L406.037109,4.72431824 C406.037109,2.62450587 407.807333,0.921875 409.989237,0.921875 C412.171141,0.922865478 414.018555,2.62549635 414.018555,4.72431824 L414.018555,12.0845568 C414.018555,14.1853596 412.24936,15.8879905 410.066427,15.887 Z M416.068349,10 C415.563704,10 415.155137,10.4113337 415.155137,10.9184172 L415.155137,12.3722521 C415.155137,14.7728383 413.587828,16.9702003 411.268404,17.5251588 C407.949397,18.3175379 404.843893,15.7088422 404.843893,12.5393258 L404.843893,10.9184172 C404.843893,10.4113337 404.416886,10 403.912242,10 C403.408568,10 403,10.4113337 403,10.9184172 L403,12.5393258 C403,15.8299951 405.3136,18.5901319 408.419104,19.3248657 C408.797588,19.4147533 409.052821,19.7762579 409.052821,20.1680508 L409.052821,20.9789936 C409.052821,21.4157303 408.736448,21.7850513 408.3075,21.8475818 C407.851379,21.9149976 407.284625,22 406.913905,22.0625305 C406.203521,22.1836834 405.984195,22.7073766 405.984195,23.0385931 C405.984195,23.3707865 406.245252,24 406.937197,24 L413.060862,24 C413.752807,24 414.014834,23.3707865 414.014834,23.0385931 C414.014834,22.7073766 413.794538,22.1836834 413.084154,22.0625305 C412.713434,22 412.14765,21.9149976 411.690559,21.8475818 C411.261611,21.7850513 410.946208,21.4157303 410.946208,20.9789936 L410.946208,20.1924768 C410.946208,19.7967758 411.204353,19.4342941 411.587689,19.3473376 C414.680577,18.6458232 417,15.8622374 417,12.5393258 L417,10.9184172 C417,10.4113337 416.572023,10 416.068349,10 Z" id="microphone"></path>
            </g>
        </g>
    </g>
</svg>