<svg width="16" height="16" viewBox="0 0 16 16" xmlns="http://www.w3.org/2000/svg"><title>73D6DA79-5FFE-4B0E-A5DA-0575CFA64DFE</title><path d="M14.926 0H1.074A1.07 1.07 0 0 0 0 1.065v9.66c0 .587.48 1.064 1.074 1.064h3.788a.64.64 0 0 1 .643.636v.844a.64.64 0 0 1-.643.636H4.8a.68.68 0 0 0-.683.677v.014a.68.68 0 0 0 .683.677h6.384a.68.68 0 0 0 .683-.677v-.014a.68.68 0 0 0-.683-.677h-.049a.64.64 0 0 1-.642-.636v-.844a.64.64 0 0 1 .642-.636h3.792A1.07 1.07 0 0 0 16 10.724V1.065A1.07 1.07 0 0 0 14.926 0zM8 11.284a.564.564 0 0 1-.567-.561c0-.31.254-.561.567-.561.312 0 .566.251.566.561 0 .31-.254.561-.566.561zm6.598-2.19a.386.386 0 0 1-.388.386H1.771a.386.386 0 0 1-.388-.385V1.738c0-.212.174-.384.388-.384h12.44c.214 0 .387.172.387.384v7.357z" fill="#FFF" fill-rule="evenodd"/></svg>