<?xml version="1.0" encoding="UTF-8" standalone="no"?>
<svg width="19px" height="22px" viewBox="0 0 19 22" version="1.1" xmlns="http://www.w3.org/2000/svg" xmlns:xlink="http://www.w3.org/1999/xlink">
    <!-- Generator: Sketch 41.2 (35397) - http://www.bohemiancoding.com/sketch -->
    <title>musicnotes</title>
    <desc>Created with Sketch.</desc>
    <defs></defs>
    <g id="Page-1" stroke="none" stroke-width="1" fill="none" fill-rule="evenodd">
        <g id="680x680" transform="translate(-50.000000, -448.000000)" fill="#231F1F">
            <g id="Row-6" transform="translate(50.000000, 447.000000)">
                <path d="M16.7403668,20.1927194 L14.1533379,20.5763684 C12.9964057,20.7475348 11.9549659,19.8710445 11.9549659,18.7240325 L11.9549659,17.7452358 C11.9549659,16.4309921 12.9351446,15.3144753 14.2628046,15.1167485 L16.6720757,14.7596599 C16.9643216,14.7163764 17.1802421,14.4704476 17.1802421,14.1812353 L17.1802421,8.27500864 C17.1802421,7.5775545 16.5415191,7.04733196 15.8395264,7.1594755 L8.43495956,8.34878729 C7.633543,8.47765399 7.04503409,9.15641755 7.04503409,9.95224322 L7.04503409,20.0205692 C7.04503409,21.3072688 6.08494106,22.4011602 4.78540092,22.5939684 L2.19837201,22.9786011 C1.04143982,23.1497676 0,22.2722935 0,21.1262652 L0,20.1474685 C0,18.8332249 0.980178656,17.7157243 2.3068344,17.5189812 L4.7161055,17.1609089 C5.00835139,17.1186091 5.22527618,16.8716966 5.22527618,16.5824843 L5.22527618,4.39031695 C5.22527618,3.595475 5.8127808,2.91769516 6.61319309,2.78981217 L17.6552672,1.01518978 C18.3592685,0.902062525 19,1.43523621 19,2.13465779 L19,17.6193202 C19,18.9060198 18.039907,19.9999112 16.7403668,20.1927194" id="musicnotes"></path>
            </g>
        </g>
    </g>
</svg>