<?xml version="1.0" encoding="UTF-8" standalone="no"?>
<svg width="25px" height="22px" viewBox="0 0 25 22" version="1.1" xmlns="http://www.w3.org/2000/svg" xmlns:xlink="http://www.w3.org/1999/xlink">
    <!-- Generator: Sketch 41.2 (35397) - http://www.bohemiancoding.com/sketch -->
    <title>outbox</title>
    <desc>Created with Sketch.</desc>
    <defs></defs>
    <g id="Page-1" stroke="none" stroke-width="1" fill="none" fill-rule="evenodd">
        <g id="680x680" transform="translate(-209.000000, -449.000000)" fill="#231F1F">
            <g id="Row-6" transform="translate(59.000000, 449.000000)">
                <path d="M174.004143,14.6 L170.402143,10.355 C170.211143,10.13 169.930143,10 169.635143,10 L168.406143,10 C168.240143,10 168.084143,10.078 167.984143,10.21 L167.589143,10.731 C167.440143,10.928 167.580143,11.211 167.827143,11.211 L168.545143,11.211 C168.795143,11.211 169.028143,11.332 169.172143,11.536 L171.507143,14.861 C171.704143,15.143 171.503143,15.529 171.160143,15.529 L168.066143,15.529 C167.438143,15.529 166.892143,15.958 166.743143,16.568 L166.314143,18.32 C166.201143,18.782 165.787143,19.106 165.312143,19.106 L159.364143,19.106 C158.886143,19.106 158.471143,18.779 158.360143,18.314 L157.945143,16.576 C157.799143,15.962 157.250143,15.529 156.620143,15.529 L153.519143,15.529 C153.176143,15.529 152.975143,15.143 153.172143,14.862 L155.497143,11.537 C155.640143,11.333 155.874143,11.211 156.124143,11.211 L156.866143,11.211 C157.122143,11.211 157.259143,10.911 157.093143,10.717 L156.634143,10.184 C156.534143,10.067 156.387143,10 156.233143,10 L155.086143,10 C154.791143,10 154.512143,10.129 154.320143,10.353 L150.689143,14.612 C150.132143,15.265 149.895143,16.133 150.043143,16.979 L150.618143,20.252 C150.765143,21.089 151.491143,21.699 152.340143,21.699 L172.313143,21.699 C173.156143,21.699 173.879143,21.098 174.032143,20.269 L174.640143,16.988 C174.797143,16.137 174.564143,15.26 174.004143,14.6 Z M156.945143,8.168 L158.928143,8.168 C159.416143,8.168 159.811143,8.563 159.811143,9.051 L159.811143,13.866 C159.811143,14.389 160.235143,14.813 160.757143,14.813 L163.903143,14.813 C164.426143,14.813 164.849143,14.389 164.849143,13.866 L164.849143,9.051 C164.849143,8.563 165.245143,8.168 165.733143,8.168 L167.743143,8.168 C168.295143,8.168 168.596143,7.524 168.243143,7.1 L163.020143,0.836 C162.668143,0.414 162.019143,0.414 161.667143,0.836 L156.445143,7.1 C156.092143,7.524 156.393143,8.168 156.945143,8.168 Z" id="outbox"></path>
            </g>
        </g>
    </g>
</svg>