<?xml version="1.0" encoding="UTF-8" standalone="no"?>
<svg width="24px" height="24px" viewBox="0 0 24 24" version="1.1" xmlns="http://www.w3.org/2000/svg" xmlns:xlink="http://www.w3.org/1999/xlink">
    <!-- Generator: Sketch 41.2 (35397) - http://www.bohemiancoding.com/sketch -->
    <title>pencil</title>
    <desc>Created with Sketch.</desc>
    <defs></defs>
    <g id="Page-1" stroke="none" stroke-width="1" fill="none" fill-rule="evenodd">
        <g id="680x680" transform="translate(-131.000000, -289.000000)" fill="#231F1F">
            <g id="Row-4" transform="translate(50.000000, 289.000000)">
                <path d="M104.32375,4.92025 L102.20175,7.04225 C101.95175,7.29225 101.54575,7.29225 101.29575,7.04225 L97.7037503,3.44925 C97.4537503,3.19825 97.4537503,2.79425 97.7037503,2.54425 L99.8257503,0.42225 C100.38775,-0.14075 101.29875,-0.14075 101.86175,0.42225 L104.32375,2.88325 C104.88575,3.44525 104.88575,4.35725 104.32375,4.92025 L104.32375,4.92025 Z M96.9337503,4.21825 C96.6837503,3.96825 96.2787503,3.96825 96.0287503,4.21825 L84.2787503,15.96825 C84.0287503,16.21825 84.0277503,16.62325 84.2787503,16.87425 L87.8717503,20.46725 C88.1217503,20.71725 88.5267503,20.71725 88.7767503,20.46725 L100.52675,8.71725 C100.77675,8.46725 100.77675,8.06125 100.52675,7.81125 L96.9337503,4.21825 L96.9337503,4.21825 Z M83.5977503,17.73225 C83.4107503,17.54525 83.1067503,17.54525 82.9187503,17.73225 C82.7817503,17.86925 81.0767503,22.97325 81.0127503,23.15625 C80.9327503,23.50325 81.2417503,23.81225 81.5887503,23.73225 C81.7717503,23.66925 86.8757503,21.96325 87.0127503,21.82625 C87.2007503,21.63825 87.2007503,21.33525 87.0127503,21.14725 L83.5977503,17.73225 L83.5977503,17.73225 Z" id="pencil"></path>
            </g>
        </g>
    </g>
</svg>