<?xml version="1.0" encoding="UTF-8" standalone="no"?>
<svg width="14px" height="16px" viewBox="0 0 14 16" version="1.1" xmlns="http://www.w3.org/2000/svg" xmlns:xlink="http://www.w3.org/1999/xlink">
    <!-- Generator: Sketch 41.2 (35397) - http://www.bohemiancoding.com/sketch -->
    <title>refresh</title>
    <desc>Created with Sketch.</desc>
    <defs></defs>
    <g id="Page-1" stroke="none" stroke-width="1" fill="none" fill-rule="evenodd">
        <g id="680x680" transform="translate(-293.000000, -291.000000)" fill="#000000">
            <g id="Row-4" transform="translate(50.000000, 288.000000)">
                <path d="M250.009346,4.46701064 L250.009346,3.32101303 C250.009346,3.05669422 249.706251,2.90605099 249.494919,3.06501195 L245.9792,5.70912418 C245.661275,5.94848981 245.661275,6.42444849 245.978273,6.66381412 L249.493992,9.31809246 C249.706251,9.47797761 250.009346,9.32733438 250.009346,9.06209138 L250.009346,8.00574036 C250.009346,7.63144275 250.349517,7.34956431 250.719349,7.40686419 C253.283145,7.80149401 255.161964,10.2681614 254.575239,13.0379637 C254.203553,14.7939278 252.781694,16.2116378 251.020591,16.5822386 C247.988712,17.2199308 245.317396,14.9307082 245.317396,12.0204288 C245.317396,11.0648146 245.610295,10.1812874 246.106185,9.44470671 C246.452844,8.93178036 246.316591,8.23678826 245.808651,7.88189868 L245.789187,7.86803581 C245.274759,7.50760107 244.545291,7.61295892 244.193071,8.1332788 C243.194803,9.60736444 242.744331,11.4788525 243.146605,13.4658645 C243.6944,16.1709733 245.889291,18.3428237 248.606025,18.8659161 C253.083862,19.7263385 257,16.3290101 257,12.0204288 C257,8.36247832 254.1776,5.36162813 250.585876,5.06496262 C250.264243,5.03816106 250.009346,4.78770513 250.009346,4.46701064" id="refresh"></path>
            </g>
        </g>
    </g>
</svg>