<?xml version="1.0" encoding="UTF-8" standalone="no"?>
<svg width="8px" height="8px" viewBox="0 0 8 8" version="1.1" xmlns="http://www.w3.org/2000/svg" xmlns:xlink="http://www.w3.org/1999/xlink">
    <title>Remove</title>
    <defs></defs>
    <g id="Page-1" stroke="none" stroke-width="1" fill="none" fill-rule="evenodd">
        <g id="New-Audience-Filter" transform="translate(-680.000000, -220.000000)" fill="#475257">
            <g id="Group-24" transform="translate(194.000000, 173.000000)">
                <g id="Group-22" transform="translate(351.000000, 22.000000)">
                    <g id="Group-17">
                        <g id="Tag-Copy-3">
                            <path d="M140.537978,28.9178772 L142.701538,26.7542392 C143.099487,26.3562762 143.099487,25.7113017 142.701538,25.3133387 C142.289867,24.9005092 141.643772,24.9005092 141.245823,25.2984723 L139.082263,27.4621102 C139.036522,27.5078531 138.963336,27.5078531 138.918738,27.4621102 L136.754034,25.2984723 C136.357228,24.9005092 135.711133,24.9005092 135.313185,25.2984723 C134.90037,25.7101581 134.90037,26.3562762 135.298319,26.7542392 L137.463023,28.9178772 C137.507621,28.96362 137.507621,29.0368086 137.463023,29.0814079 L135.298319,31.2461895 C134.901514,31.6430089 134.90037,32.2879834 135.298319,32.68709 C135.711133,33.0987759 136.356085,33.0999194 136.754034,32.7019564 L138.918738,30.5371749 C138.963336,30.4925756 139.036522,30.4925756 139.082263,30.5371749 L141.245823,32.7019564 C141.643772,33.0987759 142.288724,33.0999194 142.686673,32.7019564 C143.099487,32.289127 143.099487,31.6441525 142.701538,31.2461895 L140.537978,29.0814079 C140.492237,29.0368086 140.492237,28.96362 140.537978,28.9178772 Z" id="deleteocircle"></path>
                        </g>
                    </g>
                </g>
            </g>
        </g>
    </g>
</svg>