<?xml version="1.0" encoding="UTF-8" standalone="no"?>
<svg width="12px" height="12px" viewBox="0 0 12 12" version="1.1" xmlns="http://www.w3.org/2000/svg" xmlns:xlink="http://www.w3.org/1999/xlink">
    <!-- Generator: Sketch 41 (35326) - http://www.bohemiancoding.com/sketch -->
    <title>search</title>
    <desc>Created with Sketch.</desc>
    <defs></defs>
    <g id="Symbols" stroke="none" stroke-width="1" fill="none" fill-rule="evenodd">
        <g id="Search" transform="translate(-13.000000, -12.000000)" fill="#C1C1C1">
            <g id="Text-Field-empty">
                <path d="M21.9317794,19.641104 C21.7050832,19.4349673 21.6471918,19.102768 21.7900266,18.8317064 C22.2190722,18.0174395 22.4138471,17.0603377 22.2856203,16.0502139 C22.0302489,14.0440333 20.4477035,12.3922347 18.4518028,12.0649048 C15.2629062,11.541718 12.5441745,14.2582856 13.064115,17.4471821 C13.3892808,19.4403777 15.0351279,21.0229231 17.0386033,21.2837049 C18.0465629,21.4146368 19.0020416,21.2225672 19.8163085,20.7967679 C20.0846649,20.6566382 20.4125359,20.7134475 20.6181315,20.9358154 L23.1393832,23.6577934 C23.5797907,24.1333686 24.3670056,24.098742 24.7819841,23.5782604 C25.1401534,23.1286552 25.0384377,22.4631746 24.6126383,22.0768712 L21.9317794,19.641104 Z M14.2003014,16.6621314 C14.2003014,14.750092 15.7503843,13.2005502 17.6624237,13.2005502 C19.5739221,13.2005502 21.124005,14.750092 21.124005,16.6621314 C21.124005,18.5741708 19.5739221,20.1237127 17.6624237,20.1237127 C15.7503843,20.1237127 14.2003014,18.5741708 14.2003014,16.6621314 L14.2003014,16.6621314 Z" id="search"></path>
            </g>
        </g>
    </g>
</svg>