<?xml version="1.0" encoding="UTF-8" standalone="no"?>
<svg width="20px" height="20px" viewBox="0 0 20 20" version="1.1" xmlns="http://www.w3.org/2000/svg" xmlns:xlink="http://www.w3.org/1999/xlink">
    <!-- Generator: Sketch 41.2 (35397) - http://www.bohemiancoding.com/sketch -->
    <title>settings</title>
    <desc>Created with Sketch.</desc>
    <defs></defs>
    <g id="Page-1" stroke="none" stroke-width="1" fill="none" fill-rule="evenodd">
        <g id="680x680" transform="translate(-610.000000, -131.000000)" fill="#231F1F">
            <g id="Row-2" transform="translate(50.000000, 130.000000)">
                <path d="M579.781,11.6454378 L579.781,10.1355622 C579.781,9.64513125 579.383168,9.24729916 578.89188,9.24729916 L578.647522,9.24729916 C578.07821,9.24729916 577.581777,8.87947597 577.397437,8.34103082 C577.286833,8.01607746 577.154794,7.70055546 577.003892,7.39617962 C576.749245,6.88259898 576.837557,6.26784552 577.243106,5.86229687 L577.418015,5.68738793 C577.764403,5.34014226 577.764403,4.77769 577.418015,4.43044432 L576.350556,3.36384279 C576.00331,3.01659711 575.440858,3.01659711 575.093612,3.36384279 L574.905842,3.55075528 C574.502866,3.95458914 573.890684,4.04461579 573.377961,3.79339855 C573.077015,3.64592631 572.76578,3.51645941 572.445114,3.40757002 C571.904096,3.22408712 571.533701,2.72679702 571.533701,2.15577079 L571.533701,1.88912041 C571.533701,1.39783208 571.135869,1 570.645438,1 L569.135562,1 C568.645131,1 568.247299,1.39783208 568.247299,1.88912041 L568.247299,2.18235009 C568.247299,2.74994673 567.881191,3.24552204 567.34446,3.43157713 C567.031511,3.53960912 566.727135,3.66736123 566.433048,3.81311868 C565.91861,4.06776551 565.303856,3.97945364 564.898308,3.57390499 L564.687388,3.36384279 C564.340142,3.01659711 563.77769,3.01659711 563.430444,3.36384279 L562.363843,4.43044432 C562.016597,4.77769 562.016597,5.34014226 562.363843,5.68738793 L562.586766,5.91116848 C562.9906,6.31500234 563.079769,6.92718361 562.828552,7.43990685 C562.687081,7.73056434 562.561901,8.0306532 562.455584,8.33931602 C562.271244,8.87861857 561.774811,9.24729916 561.204642,9.24729916 L560.88912,9.24729916 C560.398689,9.24729916 560,9.64513125 560,10.1355622 L560,11.6454378 C560,12.1358688 560.398689,12.5337008 560.88912,12.5337008 L561.204642,12.5337008 C561.774811,12.5337008 562.271244,12.9023814 562.455584,13.441684 C562.561901,13.7503468 562.687081,14.0504357 562.828552,14.3410931 C563.079769,14.8538164 562.9906,15.4659977 562.586766,15.8698315 L562.363843,16.0936121 C562.016597,16.4408577 562.016597,17.00331 562.363843,17.3505557 L563.430444,18.4180146 C563.77769,18.7644029 564.340142,18.7644029 564.687388,18.4180146 L564.898308,18.207095 C565.303856,17.8015464 565.91861,17.7132345 566.433048,17.9678813 C566.727135,18.1136388 567.031511,18.2413909 567.34446,18.3494229 C567.881191,18.535478 568.247299,19.0310533 568.247299,19.5986499 L568.247299,19.8918796 C568.247299,20.3831679 568.645131,20.781 569.135562,20.781 L570.645438,20.781 C571.135869,20.781 571.533701,20.3831679 571.533701,19.8918796 L571.533701,19.6252292 C571.533701,19.054203 571.904096,18.5569129 572.445114,18.37343 C572.76578,18.2645406 573.077015,18.1350737 573.377961,17.9876014 C573.890684,17.7363842 574.502866,17.8264109 574.905842,18.2302447 L575.093612,18.4180146 C575.440858,18.7644029 576.00331,18.7644029 576.350556,18.4180146 L577.418015,17.3505557 C577.764403,17.00331 577.764403,16.4408577 577.418015,16.0936121 L577.243106,15.9187031 C576.837557,15.5131545 576.749245,14.898401 577.003892,14.3848204 C577.154794,14.0804445 577.286833,13.7649225 577.397437,13.4399692 C577.581777,12.901524 578.07821,12.5337008 578.647522,12.5337008 L578.89188,12.5337008 C579.383168,12.5337008 579.781,12.1358688 579.781,11.6454378 L579.781,11.6454378 Z M571.095571,15.8698315 C567.368468,16.6955046 564.120649,13.4485431 564.947179,9.72143956 C565.363874,7.84288332 566.879751,6.32786329 568.75745,5.91116848 C572.484554,5.08549543 575.731515,8.33245685 574.905842,12.0595604 C574.489147,13.9372593 572.974127,15.4531367 571.095571,15.8698315 L571.095571,15.8698315 Z" id="settings"></path>
            </g>
        </g>
    </g>
</svg>