<?xml version="1.0" encoding="UTF-8" standalone="no"?>
<svg width="23px" height="21px" viewBox="0 0 23 21" version="1.1" xmlns="http://www.w3.org/2000/svg" xmlns:xlink="http://www.w3.org/1999/xlink">
    <!-- Generator: Sketch 41.2 (35397) - http://www.bohemiancoding.com/sketch -->
    <title>shareright</title>
    <desc>Created with Sketch.</desc>
    <defs></defs>
    <g id="Page-1" stroke="none" stroke-width="1" fill="none" fill-rule="evenodd">
        <g id="680x680" transform="translate(-370.000000, -530.000000)" fill="#000000">
            <g id="Row-7" transform="translate(49.000000, 529.000000)">
                <path d="M336.66688,3.33309873 L336.66688,1.56897544 C336.66688,1.07791069 337.248095,0.818222366 337.613792,1.14624972 L343.61025,6.54015186 C344.124177,7.00290474 344.131003,7.80735277 343.623903,8.27791581 L337.620618,13.8475469 C337.256871,14.1843607 336.66688,13.9266249 336.66688,13.4306788 L336.66688,11.1920874 C336.66688,10.5174835 336.114921,9.96881871 335.440088,9.9658899 C330.629464,9.94734073 328.242192,11.2867858 326.876923,12.5364138 C326.471243,12.9083733 325.833467,12.4807663 326.040208,11.9701761 C327.94866,7.25868797 331.870884,4.95273378 335.477145,4.61494371 C336.130524,4.55343859 336.66688,3.99110598 336.66688,3.33309873 L336.66688,3.33309873 Z M340.384854,13.4996755 L339.675627,14.1506874 C339.397519,14.4140657 339.238304,14.7857691 339.238304,15.1744646 L339.238304,19.5180837 C339.238304,19.8961591 338.939519,20.2041418 338.571465,20.2041418 L323.429568,20.2041418 C323.060481,20.2041418 322.761696,19.8961591 322.761696,19.5180837 L322.761696,6.48616438 C322.761696,6.10702696 323.060481,5.8001062 323.429568,5.8001062 L327.07909,5.8001062 C327.533988,5.8001062 327.977514,5.64611482 328.33833,5.36043424 L329.218144,4.6552599 C329.470406,4.45347808 329.756785,4 329.028948,4 L322.292324,4 C321.577927,4 321,4.59366334 321,5.32751195 L321,20.6724881 C321,21.4052746 321.577927,22 322.292324,22 L339.707676,22 C340.421039,22 341,21.4052746 341,20.6724881 L341,13.9308514 C341,13.1683285 340.676402,13.2012508 340.384854,13.4996755 L340.384854,13.4996755 Z" id="shareright"></path>
            </g>
        </g>
    </g>
</svg>