<?xml version="1.0" encoding="UTF-8" standalone="no"?>
<svg width="21px" height="23px" viewBox="0 0 21 23" version="1.1" xmlns="http://www.w3.org/2000/svg" xmlns:xlink="http://www.w3.org/1999/xlink">
    <!-- Generator: Sketch 41.2 (35397) - http://www.bohemiancoding.com/sketch -->
    <title>shield</title>
    <desc>Created with Sketch.</desc>
    <defs></defs>
    <g id="Page-1" stroke="none" stroke-width="1" fill="none" fill-rule="evenodd">
        <g id="680x680" transform="translate(-530.000000, -609.000000)" fill="#231F1F">
            <g id="Row-8" transform="translate(49.000000, 609.000000)">
                <path d="M501.933814,3.668 C501.925814,3.118 501.631814,2.617 501.148814,2.355 C498.921814,1.149 495.212814,0 491.468814,0 C487.725814,0 484.015814,1.149 481.789814,2.355 C481.305814,2.617 481.012814,3.118 481.004814,3.668 C480.950814,7.37 481.185814,16.324 490.709814,22.794 C491.162814,23.102 491.775814,23.102 492.227814,22.794 C501.752814,16.324 501.986814,7.37 501.933814,3.668 L501.933814,3.668 Z M491.946814,20.697 C491.667814,20.903 491.270814,20.902 490.993814,20.694 C483.468814,15.042 482.929814,7.465 482.915814,4.494 C482.913814,4.11 483.130814,3.773 483.469814,3.594 C485.281814,2.641 488.361814,1.92 491.468814,1.92 C494.576814,1.92 497.656814,2.641 499.468814,3.594 C499.807814,3.773 500.023814,4.11 500.022814,4.493 C500.009814,7.47 499.483814,15.097 491.946814,20.697 L491.946814,20.697 Z M498.173814,7.908 C495.849814,8.337 490.622814,9.468 485.854814,11.655 C485.553814,11.793 485.193814,11.653 485.078814,11.343 C484.174814,8.911 483.935814,6.746 483.888814,5.416 C483.871814,4.936 484.120814,4.485 484.552814,4.273 C486.180814,3.474 488.812814,2.881 491.468814,2.881 C494.123814,2.881 496.754814,3.474 498.382814,4.272 C498.812814,4.483 499.066814,4.928 499.048814,5.407 C499.031814,5.883 498.987814,6.469 498.899814,7.135 C498.847814,7.523 498.558814,7.837 498.173814,7.908 L498.173814,7.908 Z M487.007814,13.396 C489.656814,12.134 493.341814,10.699 497.421814,10.049 C497.846814,9.982 498.184814,10.4 498.046814,10.807 C497.113814,13.572 495.337814,16.75 491.972814,19.461 C491.683814,19.694 491.253814,19.693 490.964814,19.46 C489.056814,17.921 487.663814,16.237 486.642814,14.565 C486.387814,14.148 486.567814,13.606 487.007814,13.396 L487.007814,13.396 Z" id="shield"></path>
            </g>
        </g>
    </g>
</svg>