<?xml version="1.0" encoding="UTF-8" standalone="no"?>
<svg width="21px" height="22px" viewBox="0 0 21 22" version="1.1" xmlns="http://www.w3.org/2000/svg" xmlns:xlink="http://www.w3.org/1999/xlink">
    <!-- Generator: Sketch 41.2 (35397) - http://www.bohemiancoding.com/sketch -->
    <title>slate</title>
    <desc>Created with Sketch.</desc>
    <defs></defs>
    <g id="Page-1" stroke="none" stroke-width="1" fill="none" fill-rule="evenodd">
        <g id="680x680" transform="translate(-289.000000, -528.000000)" fill="#231F1F">
            <g id="Row-7" transform="translate(49.000000, 528.000000)">
                <path d="M259.801,9.09212554 L245.606,9.09212554 C245.235,9.09212554 245.158,8.55938088 245.514,8.45059523 L258.919,4.35334145 C259.577,4.15305385 259.952,3.45052225 259.76,2.78052467 L259.225,0.915918356 C259.03,0.23778727 258.33,-0.148554278 257.665,0.0537666903 L241.319,5.04977292 C240.666,5.24904382 240.29,5.94445861 240.476,6.61242281 L240.725,7.50914188 C241.017,8.55938088 241.164,9.64520397 241.164,10.7371272 L241.164,20.7820074 C241.164,21.4550551 241.702,22 242.364,22 L259.801,22 C260.463,22 261,21.4550551 261,20.7820074 L261,10.3111348 C261,9.63808715 260.463,9.09212554 259.801,9.09212554 L259.801,9.09212554 Z M257.144,17.8142943 C257.144,18.2087694 256.829,18.5290262 256.441,18.5290262 L245.691,18.5290262 C245.302,18.5290262 244.988,18.2087694 244.988,17.8142943 L244.988,17.2418988 C244.988,16.8464071 245.302,16.527167 245.691,16.527167 L256.441,16.527167 C256.829,16.527167 257.144,16.8464071 257.144,17.2418988 L257.144,17.8142943 L257.144,17.8142943 Z M257.144,13.8746272 C257.144,14.2691023 256.829,14.5893591 256.441,14.5893591 L245.691,14.5893591 C245.302,14.5893591 244.988,14.2691023 244.988,13.8746272 L244.988,13.3022317 C244.988,12.90674 245.302,12.5874999 245.691,12.5874999 L256.441,12.5874999 C256.829,12.5874999 257.144,12.90674 257.144,13.3022317 L257.144,13.8746272 L257.144,13.8746272 Z" id="slate"></path>
            </g>
        </g>
    </g>
</svg>