<?xml version="1.0" encoding="UTF-8" standalone="no"?>
<svg width="15px" height="25px" viewBox="0 0 15 25" version="1.1" xmlns="http://www.w3.org/2000/svg" xmlns:xlink="http://www.w3.org/1999/xlink">
    <!-- Generator: Sketch 41.2 (35397) - http://www.bohemiancoding.com/sketch -->
    <title>smartphone</title>
    <desc>Created with Sketch.</desc>
    <defs></defs>
    <g id="Page-1" stroke="none" stroke-width="1" fill="none" fill-rule="evenodd">
        <g id="680x680" transform="translate(-453.000000, -49.000000)" fill="#231F1F">
            <g id="Row-1" transform="translate(53.000000, 49.000000)">
                <path d="M413.104372,0 L401.894543,0 C400.84793,0 400,0.781 400,1.746 L400,22.648 C400,23.613 400.84793,24.394 401.894543,24.394 L413.104372,24.394 C414.150984,24.394 415,23.613 415,22.648 L415,1.746 C415,0.781 414.150984,0 413.104372,0 L413.104372,0 Z M406.035394,1.394 L408.948321,1.394 C409.28163,1.394 409.551969,1.644 409.551969,1.951 C409.551969,2.259 409.28163,2.519 408.948321,2.519 L406.035394,2.519 C405.700999,2.519 405.43066,2.259 405.43066,1.951 C405.43066,1.644 405.700999,1.394 406.035394,1.394 L406.035394,1.394 Z M407.491314,23.475 C406.814925,23.475 406.266647,22.97 406.266647,22.347 C406.266647,21.725 406.814925,21.22 407.491314,21.22 C408.167704,21.22 408.715981,21.725 408.715981,22.347 C408.715981,22.97 408.167704,23.475 407.491314,23.475 L407.491314,23.475 Z M412.911118,19.467 C412.911118,20.022 412.422554,20.472 411.819991,20.472 L403.145266,20.472 C402.542704,20.472 402.05414,20.022 402.05414,19.467 L402.05414,4.915 C402.05414,4.36 402.542704,3.91 403.145266,3.91 L411.819991,3.91 C412.422554,3.91 412.911118,4.36 412.911118,4.915 L412.911118,19.467 L412.911118,19.467 Z" id="smartphone"></path>
            </g>
        </g>
    </g>
</svg>