<?xml version="1.0" encoding="UTF-8" standalone="no"?>
<svg width="23px" height="22px" viewBox="0 0 23 22" version="1.1" xmlns="http://www.w3.org/2000/svg" xmlns:xlink="http://www.w3.org/1999/xlink">
    <!-- Generator: Sketch 41.2 (35397) - http://www.bohemiancoding.com/sketch -->
    <title>sort</title>
    <desc>Created with Sketch.</desc>
    <defs></defs>
    <g id="Page-1" stroke="none" stroke-width="1" fill="none" fill-rule="evenodd">
        <g id="Artboard-3" transform="translate(-122.000000, -100.000000)" fill="#000000">
            <path d="M138,119.393885 L138,100.75 C138,100.335786 138.335786,100 138.75,100 C139.164214,100 139.5,100.335786 139.5,100.75 L139.5,119.393885 L143.21967,115.674215 C143.512563,115.381322 143.987437,115.381322 144.28033,115.674215 C144.573223,115.967109 144.573223,116.441982 144.28033,116.734876 L139.28033,121.734876 C138.987437,122.027769 138.512563,122.027769 138.21967,121.734876 L133.21967,116.734876 C132.926777,116.441982 132.926777,115.967109 133.21967,115.674215 C133.512563,115.381322 133.987437,115.381322 134.28033,115.674215 L138,119.393885 Z M127,102.56066 L127,121.204545 C127,121.618759 127.335786,121.954545 127.75,121.954545 C128.164214,121.954545 128.5,121.618759 128.5,121.204545 L128.5,102.56066 L132.21967,106.28033 C132.512563,106.573223 132.987437,106.573223 133.28033,106.28033 C133.573223,105.987437 133.573223,105.512563 133.28033,105.21967 L128.28033,100.21967 C127.987437,99.9267767 127.512563,99.9267767 127.21967,100.21967 L122.21967,105.21967 C121.926777,105.512563 121.926777,105.987437 122.21967,106.28033 C122.512563,106.573223 122.987437,106.573223 123.28033,106.28033 L127,102.56066 Z" id="sort"></path>
        </g>
    </g>
</svg>