<?xml version="1.0" encoding="UTF-8" standalone="no"?>
<svg width="16px" height="21px" viewBox="0 0 16 21" version="1.1" xmlns="http://www.w3.org/2000/svg" xmlns:xlink="http://www.w3.org/1999/xlink">
    <!-- Generator: Sketch 41.2 (35397) - http://www.bohemiancoding.com/sketch -->
    <title>statusupdate</title>
    <desc>Created with Sketch.</desc>
    <defs></defs>
    <g id="Page-1" stroke="none" stroke-width="1" fill="none" fill-rule="evenodd">
        <g id="Artboard-3" transform="translate(-83.000000, -67.000000)" fill="#000000">
            <path d="M83,68.3433678 L83,86.6566322 C83,87.3988711 83.4395568,88 83.982296,88 L97.3733014,88 C97.9160406,88 98.3555974,87.3988711 98.3555974,86.6566322 L98.3555974,68.3433678 C98.3555974,67.6011289 97.9160406,67 97.3733014,67 L83.982296,67 C83.4395568,67 83,67.6011289 83,68.3433678 L83,68.3433678 Z M96.5560972,86.2088429 L84.8043154,86.2088429 C84.537417,86.2088429 84.3207341,85.9125118 84.3207341,85.5465663 L84.3207341,69.4760113 C84.3207341,69.1110066 84.537417,68.8146754 84.8043154,68.8146754 L96.5560972,68.8146754 C96.8229955,68.8146754 97.0396785,69.1110066 97.0396785,69.4760113 L97.0396785,85.5465663 C97.0396785,85.9125118 96.8229955,86.2088429 96.5560972,86.2088429 Z M94.452553,73.9642521 L86.8253137,73.9642521 C86.2784472,73.9642521 85.8347631,73.3574788 85.8347631,72.6095955 L85.8347631,71.9266228 C85.8347631,71.1777987 86.2784472,70.5710254 86.8253137,70.5710254 L94.452553,70.5710254 C95.0001073,70.5710254 95.4437914,71.1777987 95.4437914,71.9266228 L95.4437914,72.6095955 C95.4437914,73.3574788 95.0001073,73.9642521 94.452553,73.9642521 Z M93.8765195,83.9680151 L87.6531121,83.9680151 C86.7873602,83.9680151 86.0858402,83.3612418 86.0858402,82.6133584 L86.0858402,76.8673565 C86.0858402,76.1194732 86.7873602,75.5126999 87.6531121,75.5126999 L93.8765195,75.5126999 C94.7422714,75.5126999 95.4437914,76.1194732 95.4437914,76.8673565 L95.4437914,82.6133584 C95.4437914,83.3612418 94.7422714,83.9680151 93.8765195,83.9680151 Z" id="statusupdate"></path>
        </g>
    </g>
</svg>