<?xml version="1.0" encoding="UTF-8" standalone="no"?>
<svg width="16px" height="20px" viewBox="0 0 16 20" version="1.1" xmlns="http://www.w3.org/2000/svg" xmlns:xlink="http://www.w3.org/1999/xlink">
    <!-- Generator: Sketch 41.2 (35397) - http://www.bohemiancoding.com/sketch -->
    <title>text-doc</title>
    <desc>Created with Sketch.</desc>
    <defs></defs>
    <g id="Page-1" stroke="none" stroke-width="1" fill="none" fill-rule="evenodd">
        <g id="680x680" transform="translate(-132.000000, -50.000000)" fill="#231F1F">
            <g id="Row-1" transform="translate(52.000000, 48.000000)">
                <path d="M81.3185303,2 C80.5900079,2 80,2.56834386 80,3.27011611 L80,20.7288653 C80,21.4306376 80.5900079,22 81.3185303,22 L94.6804124,22 C95.4089347,22 96,21.4306376 96,20.7288653 L96,9.01161133 C96,8.73864331 95.8868623,8.4768792 95.6859635,8.2833571 L89.5257732,2.34935832 C89.2931536,2.1252801 88.9791171,2 88.6502776,2 L81.3185303,2 Z M82.4074357,20 C82.1823275,20 82,19.8240894 82,19.6069038 L82,4.39309625 C82,4.17591057 82.1823275,4 82.4074357,4 L88.1522791,4 C88.715559,4 89.1718869,4.4402678 89.1708683,4.98372336 L89.1688312,8.24543947 C89.1688312,8.51765862 89.3980138,8.73877526 89.680163,8.73779252 L93.1810542,8.72305141 C93.6333079,8.72108593 94,9.07290707 94,9.5092439 L94,19.6069038 C94,19.8240894 93.8176725,20 93.5925643,20 L82.4074357,20 Z M91.1982506,13 L84.8007224,13 C84.358165,13 83.998973,12.5562619 84.0000022,12.0095359 C84.0000022,11.4640814 84.358165,11 84.8007224,11 L91.1982506,11 C91.640808,11 92,11.4437381 92,11.9904641 C92,12.5371901 91.640808,13 91.1982506,13 Z M87.9999974,7.99046408 C87.9999974,8.53719008 87.5788818,9 87.0612354,9 L84.9387646,9 C84.4199115,9 83.998796,8.55626192 84.0000026,8.00953592 C84.0000026,7.46280992 84.4199115,7 84.9387646,7 L87.0612354,7 C87.5800885,7 88.001204,7.44373808 87.9999974,7.99046408 Z M90.9352473,17 L85.0633888,17 C84.4756563,17 83.9986361,16.5562619 84.0000029,16.0095359 C84.0000029,15.4628099 84.4756563,15 85.0633888,15 L90.9352473,15 C91.5229798,15 92,15.4424666 92,15.9904641 C91.9986332,16.5359186 91.5229798,17 90.9352473,17 Z" id="text-doc"></path>
            </g>
        </g>
    </g>
</svg>