<?xml version="1.0" encoding="UTF-8" standalone="no"?>
<svg width="10px" height="14px" viewBox="0 0 10 14" version="1.1" xmlns="http://www.w3.org/2000/svg" xmlns:xlink="http://www.w3.org/1999/xlink">
    <title>trash</title>
    <desc></desc>
    <defs></defs>
    <g id="Page-1" stroke="none" stroke-width="1" fill="none" fill-rule="evenodd">
        <g id="Saved-Audiences-Hover" transform="translate(-849.000000, -470.000000)" fill="#C1C1C1">
            <g id="Group-2" transform="translate(211.000000, 258.000000)">
                <g id="Group-6-Copy-2" transform="translate(346.000000, 0.000000)">
                    <g id="Group-9" transform="translate(30.000000, 30.000000)">
                        <g id="Group-10" transform="translate(0.000000, 174.000000)">
                            <path d="M270.811364,12.5437064 L263.184178,12.5437064 C262.828833,12.5437064 262.549906,12.8468325 262.579837,13.2002672 L263.227482,20.9554539 C263.252318,21.2522117 263.500041,21.4801931 263.797435,21.4801931 L270.19747,21.4801931 C270.494865,21.4801931 270.743224,21.2522117 270.76806,20.9554539 L271.415706,13.2002672 C271.444999,12.8468325 271.166073,12.5437064 270.811364,12.5437064 L270.811364,12.5437064 Z M262.574105,11.4853126 C262.182461,11.4853126 261.91436,11.124236 262.025167,10.7478757 L262.296452,9.72387012 C262.35886,9.51626699 262.518065,9.38062446 262.735857,9.33795756 C262.95365,9.29465384 264.632305,9.14436446 265.03987,9.11952851 C265.224548,9.10997622 265.338538,8.95650274 265.367195,8.86607439 C265.396489,8.77564603 265.587535,8.35661886 265.70662,8.20505585 C265.761386,8.13627935 266.002741,8 266.997453,8 C267.992801,8 268.239251,8.13627935 268.29338,8.20505585 C268.412465,8.35661886 268.603511,8.77564603 268.632805,8.86607439 C268.661462,8.95650274 268.776089,9.10997622 268.96013,9.11952851 C269.367695,9.14436446 271.04635,9.29465384 271.264143,9.33795756 C271.482572,9.38062446 271.641777,9.51626699 271.704185,9.72387012 L271.974833,10.7478757 C272.08564,11.124236 271.817539,11.4853126 271.425895,11.4853126 L262.574105,11.4853126 L262.574105,11.4853126 Z" id="trashcan"></path>
                        </g>
                    </g>
                </g>
            </g>
        </g>
    </g>
</svg>