<?xml version="1.0" encoding="UTF-8" standalone="no"?>
<svg width="11px" height="25px" viewBox="0 0 11 25" version="1.1" xmlns="http://www.w3.org/2000/svg" xmlns:xlink="http://www.w3.org/1999/xlink">
    <!-- Generator: Sketch 41.2 (35397) - http://www.bohemiancoding.com/sketch -->
    <title>user</title>
    <desc>Created with Sketch.</desc>
    <defs></defs>
    <g id="Page-1" stroke="none" stroke-width="1" fill="none" fill-rule="evenodd">
        <g id="680x680" transform="translate(-456.000000, -449.000000)" fill="#231F1F">
            <g id="Row-6" transform="translate(48.000000, 449.000000)">
                <path d="M416.489,3.272 C416.489,5.08 415.024,6.545 413.217,6.545 C411.409,6.545 409.944,5.08 409.944,3.272 C409.944,1.465 411.409,0 413.217,0 C415.024,0 416.489,1.465 416.489,3.272 L416.489,3.272 Z M408,9.298 L408.559,15.509 C408.602,15.987 408.993,16.36 409.474,16.379 L409.886,16.396 C410.217,16.409 410.484,16.67 410.505,17.001 L411.006,23.522 C411.043,24.014 411.454,24.394 411.947,24.394 L414.51,24.394 C415.003,24.394 415.414,24.014 415.451,23.521 L415.948,16.995 C415.971,16.667 416.237,16.409 416.566,16.395 L416.977,16.378 C417.449,16.358 417.834,15.991 417.876,15.52 L418.432,9.298 C418.432,8.469 417.76,7.797 416.931,7.797 L409.501,7.797 C408.672,7.797 408,8.469 408,9.298 L408,9.298 Z" id="user"></path>
            </g>
        </g>
    </g>
</svg>