<?xml version="1.0" encoding="UTF-8" standalone="no"?>
<svg width="16px" height="21px" viewBox="0 0 16 21" version="1.1" xmlns="http://www.w3.org/2000/svg" xmlns:xlink="http://www.w3.org/1999/xlink">
    <!-- Generator: Sketch 41.2 (35397) - http://www.bohemiancoding.com/sketch -->
    <title>Yelp</title>
    <desc>Created with Sketch.</desc>
    <defs></defs>
    <g id="Page-1" stroke="none" stroke-width="1" fill="none" fill-rule="evenodd">
        <g id="680x680" transform="translate(-453.000000, -130.000000)" fill="#1A1918">
            <g id="Row-2" transform="translate(48.000000, 129.000000)">
                <path d="M405.503,11.129 C405.663,10.88 405.892,10.749 406.151,10.76 C406.319,10.761 406.469,10.816 409.814,12.197 C409.816,12.197 410.791,12.593 410.791,12.593 C411.143,12.725 411.358,13.091 411.335,13.508 C411.314,13.913 411.081,14.229 410.737,14.317 C410.731,14.32 409.347,14.762 409.347,14.762 C406.236,15.763 406.132,15.791 405.967,15.781 C405.709,15.773 405.482,15.62 405.347,15.364 C405.249,15.179 405.182,14.868 405.142,14.497 C405.024,13.368 405.167,11.669 405.503,11.129 M412.985,21.407 C413.039,21.25 413.046,21.144 413.054,17.873 C413.054,17.873 413.061,16.428 413.064,16.414 C413.085,16.06 412.857,15.737 412.48,15.593 C412.094,15.445 411.679,15.535 411.445,15.827 C411.445,15.827 410.764,16.637 410.762,16.637 C408.417,19.388 408.32,19.516 408.262,19.679 C408.228,19.775 408.214,19.876 408.226,19.979 C408.24,20.124 408.306,20.27 408.415,20.402 C408.958,21.049 411.565,22.008 412.397,21.866 C412.686,21.813 412.894,21.65 412.985,21.407 M418.269,20.27 C419.054,19.956 420.768,17.775 420.889,16.937 C420.931,16.645 420.839,16.394 420.639,16.233 C420.507,16.135 420.405,16.094 417.296,15.074 C417.296,15.074 415.93,14.625 415.914,14.614 C415.584,14.487 415.207,14.605 414.953,14.919 C414.691,15.24 414.65,15.662 414.86,15.983 L415.41,16.876 C417.256,19.875 417.396,20.087 417.53,20.191 C417.735,20.352 417.997,20.379 418.269,20.27 M416.663,12.55 C420.198,11.695 420.333,11.649 420.474,11.558 C420.687,11.413 420.795,11.172 420.776,10.878 C420.776,10.867 420.778,10.859 420.776,10.848 C420.685,9.98 419.165,7.723 418.415,7.356 C418.15,7.229 417.884,7.238 417.665,7.384 C417.528,7.475 417.428,7.609 415.536,10.197 C415.536,10.197 414.68,11.361 414.669,11.373 C414.444,11.646 414.441,12.039 414.662,12.375 C414.889,12.726 415.275,12.896 415.628,12.797 C415.628,12.797 415.614,12.822 415.609,12.827 C415.784,12.762 416.096,12.684 416.663,12.55 M413.113,9.631 L413.113,9.631 C413.052,8.231 412.632,1.993 412.582,1.704 C412.51,1.442 412.307,1.255 412.012,1.182 C411.109,0.958 407.662,1.925 407.022,2.584 C406.817,2.798 406.741,3.061 406.803,3.295 C406.904,3.502 408.373,5.812 409.449,7.499 L411.176,10.223 C411.808,11.248 412.324,11.089 412.492,11.037 C412.659,10.984 413.172,10.826 413.113,9.631" id="Yelp"></path>
            </g>
        </g>
    </g>
</svg>