<?xml version="1.0" encoding="UTF-8" standalone="no"?>
<svg width="18px" height="22px" viewBox="0 0 18 22" version="1.1" xmlns="http://www.w3.org/2000/svg" xmlns:xlink="http://www.w3.org/1999/xlink">
    <!-- Generator: Sketch 41.2 (35397) - http://www.bohemiancoding.com/sketch -->
    <title>YouTube</title>
    <desc>Created with Sketch.</desc>
    <defs></defs>
    <g id="Page-1" stroke="none" stroke-width="1" fill="none" fill-rule="evenodd">
        <g id="680x680" transform="translate(-612.000000, -210.000000)" fill="#1A1918">
            <g id="Row-3" transform="translate(51.000000, 209.000000)">
                <path d="M565.359,5.865 L563.941,1.206 L565.141,1.206 L565.915,4.291 L565.992,4.291 L566.728,1.206 L567.939,1.206 L566.551,5.721 L566.551,8.925 L565.359,8.925 L565.359,5.865 L565.359,5.865 Z M567.885,4.532 C567.885,4.092 568.028,3.74 568.313,3.478 C568.597,3.217 568.981,3.086 569.463,3.086 C569.901,3.086 570.26,3.224 570.54,3.499 C570.82,3.775 570.96,4.131 570.96,4.564 L570.96,7.504 C570.96,7.993 570.822,8.376 570.547,8.652 C570.272,8.928 569.895,9.068 569.414,9.068 C568.951,9.068 568.58,8.926 568.302,8.638 C568.025,8.353 567.885,7.968 567.885,7.484 L567.885,4.532 L567.885,4.532 Z M568.974,7.591 C568.974,7.748 569.012,7.869 569.089,7.954 C569.164,8.039 569.271,8.082 569.411,8.082 C569.554,8.082 569.669,8.038 569.754,7.951 C569.838,7.863 569.88,7.744 569.88,7.591 L569.88,4.489 C569.88,4.365 569.837,4.264 569.751,4.187 C569.665,4.111 569.55,4.074 569.411,4.074 C569.282,4.074 569.177,4.111 569.096,4.187 C569.016,4.264 568.974,4.365 568.974,4.489 L568.974,7.591 L568.974,7.591 Z M572.596,9.008 C572.796,9.008 573.001,8.945 573.212,8.826 C573.423,8.705 573.626,8.527 573.821,8.296 L573.821,8.925 L574.88,8.925 L574.88,3.23 L573.821,3.23 L573.821,7.552 C573.721,7.677 573.612,7.779 573.493,7.859 C573.374,7.939 573.276,7.978 573.198,7.978 C573.098,7.978 573.026,7.949 572.983,7.888 C572.938,7.828 572.917,7.731 572.917,7.595 L572.917,3.23 L571.858,3.23 L571.858,7.99 C571.858,8.33 571.92,8.583 572.045,8.753 C572.168,8.922 572.352,9.008 572.596,9.008 L572.596,9.008 Z M571.837,15.148 C571.761,15.148 571.687,15.167 571.615,15.205 C571.54,15.243 571.466,15.299 571.395,15.378 L571.395,18.926 C571.481,19.019 571.564,19.086 571.645,19.127 C571.726,19.168 571.811,19.188 571.902,19.188 C572.031,19.188 572.127,19.148 572.186,19.068 C572.249,18.988 572.279,18.858 572.279,18.676 L572.279,15.736 C572.279,15.543 572.241,15.398 572.166,15.299 C572.091,15.198 571.98,15.148 571.837,15.148 L571.837,15.148 Z M575.729,15.17 C575.561,15.17 575.44,15.22 575.366,15.324 C575.294,15.427 575.257,15.597 575.257,15.838 L575.257,16.414 L576.192,16.414 L576.192,15.838 C576.192,15.597 576.155,15.427 576.081,15.324 C576.008,15.22 575.891,15.17 575.729,15.17 L575.729,15.17 Z M578.725,16.261 C578.727,17.35 578.69,18.439 578.608,19.53 C578.608,20.904 577.479,22.02 576.087,22.02 C574.1,22.104 572.07,22.14 569.999,22.135 C567.927,22.14 565.895,22.104 563.91,22.02 C562.52,22.02 561.391,20.904 561.391,19.53 C561.307,18.439 561.27,17.35 561.275,16.261 C561.27,15.173 561.307,14.084 561.391,12.993 C561.391,11.618 562.52,10.503 563.91,10.503 C565.798,10.426 567.726,10.386 569.691,10.386 L569.999,10.386 L570.306,10.386 C572.272,10.386 574.2,10.426 576.087,10.503 C577.479,10.503 578.608,11.618 578.608,12.993 C578.69,14.084 578.727,15.173 578.725,16.261 L578.725,16.261 Z M565.052,13.412 L566.285,13.412 L566.285,12.291 L562.626,12.291 L562.626,13.412 L563.859,13.412 L563.859,20.011 L565.052,20.011 L565.052,13.412 L565.052,13.412 Z M569.294,14.316 L568.235,14.316 L568.235,18.638 C568.135,18.763 568.026,18.865 567.908,18.945 C567.788,19.024 567.689,19.064 567.612,19.064 C567.512,19.064 567.441,19.034 567.397,18.974 C567.352,18.914 567.33,18.816 567.33,18.681 L567.33,14.316 L566.271,14.316 L566.271,19.076 C566.271,19.414 566.334,19.67 566.457,19.84 C566.582,20.008 566.766,20.093 567.01,20.093 C567.209,20.093 567.414,20.032 567.626,19.912 C567.837,19.791 568.039,19.614 568.235,19.383 L568.235,20.011 L569.294,20.011 L569.294,14.316 L569.294,14.316 Z M573.368,15.672 C573.368,15.207 573.28,14.853 573.104,14.609 C572.926,14.367 572.671,14.244 572.337,14.244 C572.173,14.244 572.01,14.29 571.849,14.381 C571.69,14.47 571.538,14.602 571.395,14.776 L571.395,12.291 L570.326,12.291 L570.326,20.011 L571.395,20.011 L571.395,19.572 C571.535,19.747 571.685,19.874 571.847,19.957 C572.009,20.041 572.193,20.083 572.401,20.083 C572.714,20.083 572.954,19.974 573.12,19.76 C573.286,19.545 573.368,19.235 573.368,18.831 L573.368,15.672 L573.368,15.672 Z M577.282,15.845 C577.282,15.306 577.151,14.892 576.891,14.604 C576.632,14.316 576.26,14.172 575.776,14.172 C575.302,14.172 574.915,14.328 574.614,14.638 C574.315,14.951 574.167,15.352 574.167,15.845 L574.167,18.402 C574.167,18.951 574.303,19.383 574.575,19.695 C574.848,20.008 575.221,20.164 575.694,20.164 C576.221,20.164 576.618,20.017 576.883,19.722 C577.149,19.426 577.282,18.986 577.282,18.402 L577.282,17.975 L576.192,17.975 L576.192,18.371 C576.192,18.707 576.157,18.922 576.087,19.02 C576.018,19.118 575.893,19.168 575.719,19.168 C575.549,19.168 575.432,19.111 575.362,18.994 C575.29,18.879 575.257,18.67 575.257,18.371 L575.257,17.297 L577.282,17.297 L577.282,15.845 L577.282,15.845 Z" id="YouTube"></path>
            </g>
        </g>
    </g>
</svg>